<mxfile host="app.diagrams.net" modified="2020-07-15T10:55:34.819Z" agent="5.0 (Windows NT 10.0; Win64; x64) AppleWebKit/537.36 (KHTML, like Gecko) Chrome/83.0.4103.116 Safari/537.36" etag="EJKxV9VV20Eis3SwHORU" version="13.3.5" type="github">
  <diagram id="YNcn--Eb4MYJt73Dupsy" name="Page-1">
    <mxGraphModel dx="2019" dy="485" grid="1" gridSize="10" guides="1" tooltips="1" connect="1" arrows="1" fold="1" page="1" pageScale="1" pageWidth="850" pageHeight="1100" math="0" shadow="0">
      <root>
        <mxCell id="0" />
        <mxCell id="1" parent="0" />
        <mxCell id="SjNW3VqROAEUk7hYalKs-390" value="" style="rounded=1;whiteSpace=wrap;html=1;shadow=0;glass=0;labelBackgroundColor=none;dashed=1;dashPattern=1 1;strokeWidth=4;fillColor=none;" vertex="1" parent="1">
          <mxGeometry x="1520" y="200" width="410" height="4590" as="geometry" />
        </mxCell>
        <mxCell id="SjNW3VqROAEUk7hYalKs-120" value="" style="rounded=1;whiteSpace=wrap;html=1;shadow=0;glass=0;labelBackgroundColor=none;dashed=1;dashPattern=1 1;strokeWidth=4;fillColor=none;" vertex="1" parent="1">
          <mxGeometry x="1520" y="200" width="410" height="4590" as="geometry" />
        </mxCell>
        <mxCell id="SjNW3VqROAEUk7hYalKs-198" value="" style="rounded=1;whiteSpace=wrap;html=1;shadow=0;glass=1;dashed=1;dashPattern=1 1;labelBackgroundColor=none;strokeWidth=4;fillColor=none;strokeColor=#9999FF;" vertex="1" parent="1">
          <mxGeometry x="1620" y="1490" width="260" height="410" as="geometry" />
        </mxCell>
        <mxCell id="SjNW3VqROAEUk7hYalKs-184" value="" style="rounded=1;whiteSpace=wrap;html=1;shadow=0;glass=1;dashed=1;dashPattern=1 1;labelBackgroundColor=none;strokeWidth=4;fillColor=none;strokeColor=#FFFF00;" vertex="1" parent="1">
          <mxGeometry x="1620" y="850" width="260" height="290" as="geometry" />
        </mxCell>
        <mxCell id="SjNW3VqROAEUk7hYalKs-185" value="" style="rounded=1;whiteSpace=wrap;html=1;shadow=0;glass=1;dashed=1;dashPattern=1 1;labelBackgroundColor=none;strokeWidth=4;fillColor=none;strokeColor=#FF6666;" vertex="1" parent="1">
          <mxGeometry x="1620" y="1170" width="260" height="290" as="geometry" />
        </mxCell>
        <mxCell id="SjNW3VqROAEUk7hYalKs-45" value="" style="rounded=1;whiteSpace=wrap;html=1;shadow=0;glass=0;labelBackgroundColor=none;strokeColor=#CCCC00;" vertex="1" parent="1">
          <mxGeometry x="960" y="240" width="260" height="170" as="geometry" />
        </mxCell>
        <mxCell id="SjNW3VqROAEUk7hYalKs-1" value="Patient Name(10,10)" style="ellipse;whiteSpace=wrap;html=1;align=center;fontStyle=4;" vertex="1" parent="1">
          <mxGeometry y="40" width="160" height="80" as="geometry" />
        </mxCell>
        <mxCell id="SjNW3VqROAEUk7hYalKs-503" style="edgeStyle=orthogonalEdgeStyle;rounded=0;orthogonalLoop=1;jettySize=auto;html=1;exitX=0.5;exitY=1;exitDx=0;exitDy=0;fontColor=#FF9933;" edge="1" parent="1" source="SjNW3VqROAEUk7hYalKs-2">
          <mxGeometry relative="1" as="geometry">
            <mxPoint x="300" y="180" as="targetPoint" />
          </mxGeometry>
        </mxCell>
        <mxCell id="SjNW3VqROAEUk7hYalKs-2" value="Contributing Equipment Sequence(18,A001)" style="ellipse;whiteSpace=wrap;html=1;align=center;fontStyle=4;" vertex="1" parent="1">
          <mxGeometry x="200" y="40" width="200" height="80" as="geometry" />
        </mxCell>
        <mxCell id="SjNW3VqROAEUk7hYalKs-504" style="edgeStyle=orthogonalEdgeStyle;rounded=0;orthogonalLoop=1;jettySize=auto;html=1;exitX=0.5;exitY=1;exitDx=0;exitDy=0;fontColor=#FF9933;" edge="1" parent="1" source="SjNW3VqROAEUk7hYalKs-3">
          <mxGeometry relative="1" as="geometry">
            <mxPoint x="540" y="180" as="targetPoint" />
          </mxGeometry>
        </mxCell>
        <mxCell id="SjNW3VqROAEUk7hYalKs-3" value="Concept Name Code Sequence(40,A043)" style="ellipse;whiteSpace=wrap;html=1;align=center;fontStyle=4;" vertex="1" parent="1">
          <mxGeometry x="440" y="40" width="200" height="80" as="geometry" />
        </mxCell>
        <mxCell id="SjNW3VqROAEUk7hYalKs-505" style="edgeStyle=orthogonalEdgeStyle;rounded=0;orthogonalLoop=1;jettySize=auto;html=1;exitX=0.5;exitY=1;exitDx=0;exitDy=0;fontColor=#FF9933;" edge="1" parent="1" source="SjNW3VqROAEUk7hYalKs-4">
          <mxGeometry relative="1" as="geometry">
            <mxPoint x="780" y="180" as="targetPoint" />
          </mxGeometry>
        </mxCell>
        <mxCell id="SjNW3VqROAEUk7hYalKs-4" value="Performed Procedure Code Sequence(40,372)" style="ellipse;whiteSpace=wrap;html=1;align=center;fontStyle=4;" vertex="1" parent="1">
          <mxGeometry x="680" y="40" width="200" height="80" as="geometry" />
        </mxCell>
        <mxCell id="SjNW3VqROAEUk7hYalKs-506" style="edgeStyle=orthogonalEdgeStyle;rounded=0;orthogonalLoop=1;jettySize=auto;html=1;exitX=0.5;exitY=1;exitDx=0;exitDy=0;fontColor=#FF9933;" edge="1" parent="1" source="SjNW3VqROAEUk7hYalKs-5">
          <mxGeometry relative="1" as="geometry">
            <mxPoint x="1020" y="180" as="targetPoint" />
          </mxGeometry>
        </mxCell>
        <mxCell id="SjNW3VqROAEUk7hYalKs-5" value="Current Requested Procedure Evidence Sequence(40,A375)" style="ellipse;whiteSpace=wrap;html=1;align=center;fontStyle=4;" vertex="1" parent="1">
          <mxGeometry x="920" y="40" width="200" height="80" as="geometry" />
        </mxCell>
        <mxCell id="SjNW3VqROAEUk7hYalKs-507" style="edgeStyle=orthogonalEdgeStyle;rounded=0;orthogonalLoop=1;jettySize=auto;html=1;exitX=0.5;exitY=1;exitDx=0;exitDy=0;fontColor=#FF9933;" edge="1" parent="1" source="SjNW3VqROAEUk7hYalKs-6">
          <mxGeometry relative="1" as="geometry">
            <mxPoint x="1380" y="180" as="targetPoint" />
          </mxGeometry>
        </mxCell>
        <mxCell id="SjNW3VqROAEUk7hYalKs-6" value="Content Template Sequence(40,A504)" style="ellipse;whiteSpace=wrap;html=1;align=center;fontStyle=4;" vertex="1" parent="1">
          <mxGeometry x="1280" y="40" width="200" height="80" as="geometry" />
        </mxCell>
        <mxCell id="SjNW3VqROAEUk7hYalKs-511" style="edgeStyle=orthogonalEdgeStyle;rounded=0;orthogonalLoop=1;jettySize=auto;html=1;exitX=0.5;exitY=1;exitDx=0;exitDy=0;fontColor=#FF9933;" edge="1" parent="1" source="SjNW3VqROAEUk7hYalKs-7">
          <mxGeometry relative="1" as="geometry">
            <mxPoint x="1620" y="180" as="targetPoint" />
          </mxGeometry>
        </mxCell>
        <mxCell id="SjNW3VqROAEUk7hYalKs-7" value="Content Sequence(40,A730)" style="ellipse;whiteSpace=wrap;html=1;align=center;fontStyle=4;" vertex="1" parent="1">
          <mxGeometry x="1520" y="40" width="200" height="80" as="geometry" />
        </mxCell>
        <mxCell id="SjNW3VqROAEUk7hYalKs-14" value="Code Value (8,100)" style="text;html=1;strokeColor=#d6b656;fillColor=#fff2cc;align=left;verticalAlign=middle;whiteSpace=wrap;rounded=0;glass=0;shadow=0;sketch=0;labelBackgroundColor=none;labelBorderColor=none;" vertex="1" parent="1">
          <mxGeometry x="240" y="360" width="200" height="20" as="geometry" />
        </mxCell>
        <mxCell id="SjNW3VqROAEUk7hYalKs-15" value="&lt;span style=&quot;text-align: center&quot;&gt;Manufacturer&#39;s Model Name (8,1090)&lt;/span&gt;" style="text;html=1;strokeColor=#82b366;fillColor=#d5e8d4;align=left;verticalAlign=middle;whiteSpace=wrap;rounded=0;labelBackgroundColor=none;labelBorderColor=none;" vertex="1" parent="1">
          <mxGeometry x="200" y="240" width="200" height="20" as="geometry" />
        </mxCell>
        <mxCell id="SjNW3VqROAEUk7hYalKs-16" value="&lt;span style=&quot;text-align: center&quot;&gt;Software Versions (18,1020)&lt;/span&gt;" style="text;html=1;strokeColor=#82b366;fillColor=#d5e8d4;align=left;verticalAlign=middle;whiteSpace=wrap;rounded=0;labelBackgroundColor=none;labelBorderColor=none;" vertex="1" parent="1">
          <mxGeometry x="200" y="280" width="200" height="20" as="geometry" />
        </mxCell>
        <mxCell id="SjNW3VqROAEUk7hYalKs-17" value="&lt;span style=&quot;text-align: center&quot;&gt;Purpose of Reference Code Sequence (40,A170)&lt;/span&gt;" style="text;html=1;strokeColor=#82b366;fillColor=#d5e8d4;align=left;verticalAlign=middle;whiteSpace=wrap;rounded=0;labelBackgroundColor=none;labelBorderColor=none;" vertex="1" parent="1">
          <mxGeometry x="200" y="320" width="200" height="20" as="geometry" />
        </mxCell>
        <mxCell id="SjNW3VqROAEUk7hYalKs-18" value="Coding Scheme Designator (8,102)" style="text;html=1;strokeColor=#d6b656;fillColor=#fff2cc;align=left;verticalAlign=middle;whiteSpace=wrap;rounded=0;glass=0;shadow=0;sketch=0;labelBackgroundColor=none;labelBorderColor=none;" vertex="1" parent="1">
          <mxGeometry x="240" y="400" width="200" height="20" as="geometry" />
        </mxCell>
        <mxCell id="SjNW3VqROAEUk7hYalKs-19" value="Code Meaning (8,104)" style="text;html=1;strokeColor=#d6b656;fillColor=#fff2cc;align=left;verticalAlign=middle;whiteSpace=wrap;rounded=0;glass=0;shadow=0;sketch=0;labelBackgroundColor=none;labelBorderColor=none;" vertex="1" parent="1">
          <mxGeometry x="240" y="440" width="200" height="20" as="geometry" />
        </mxCell>
        <mxCell id="SjNW3VqROAEUk7hYalKs-20" value="Code Value (8,100)" style="text;html=1;strokeColor=#82b366;fillColor=#d5e8d4;align=left;verticalAlign=middle;whiteSpace=wrap;rounded=0;glass=0;shadow=0;sketch=0;labelBackgroundColor=none;labelBorderColor=none;" vertex="1" parent="1">
          <mxGeometry x="440" y="200" width="200" height="20" as="geometry" />
        </mxCell>
        <mxCell id="SjNW3VqROAEUk7hYalKs-22" value="Coding Scheme Designator (8,102)" style="text;html=1;strokeColor=#82b366;fillColor=#d5e8d4;align=left;verticalAlign=middle;whiteSpace=wrap;rounded=0;glass=0;shadow=0;sketch=0;labelBackgroundColor=none;labelBorderColor=none;" vertex="1" parent="1">
          <mxGeometry x="440" y="240" width="200" height="20" as="geometry" />
        </mxCell>
        <mxCell id="SjNW3VqROAEUk7hYalKs-23" value="Code Meaning (8,104)" style="text;html=1;strokeColor=#82b366;fillColor=#d5e8d4;align=left;verticalAlign=middle;whiteSpace=wrap;rounded=0;glass=0;shadow=0;sketch=0;labelBackgroundColor=none;labelBorderColor=none;" vertex="1" parent="1">
          <mxGeometry x="440" y="280" width="200" height="20" as="geometry" />
        </mxCell>
        <mxCell id="SjNW3VqROAEUk7hYalKs-24" value="Code Value (8,100)" style="text;html=1;strokeColor=#82b366;fillColor=#d5e8d4;align=left;verticalAlign=middle;whiteSpace=wrap;rounded=0;glass=0;shadow=0;sketch=0;labelBackgroundColor=none;labelBorderColor=none;" vertex="1" parent="1">
          <mxGeometry x="680" y="200" width="200" height="20" as="geometry" />
        </mxCell>
        <mxCell id="SjNW3VqROAEUk7hYalKs-25" value="Coding Scheme Designator (8,102)" style="text;html=1;strokeColor=#82b366;fillColor=#d5e8d4;align=left;verticalAlign=middle;whiteSpace=wrap;rounded=0;glass=0;shadow=0;sketch=0;labelBackgroundColor=none;labelBorderColor=none;" vertex="1" parent="1">
          <mxGeometry x="680" y="240" width="200" height="20" as="geometry" />
        </mxCell>
        <mxCell id="SjNW3VqROAEUk7hYalKs-26" value="Code Meaning (8,104)" style="text;html=1;strokeColor=#82b366;fillColor=#d5e8d4;align=left;verticalAlign=middle;whiteSpace=wrap;rounded=0;glass=0;shadow=0;sketch=0;labelBackgroundColor=none;labelBorderColor=none;" vertex="1" parent="1">
          <mxGeometry x="680" y="280" width="200" height="20" as="geometry" />
        </mxCell>
        <mxCell id="SjNW3VqROAEUk7hYalKs-27" value="Referenced Series Sequence (8,1115)" style="text;html=1;strokeColor=#82b366;fillColor=#d5e8d4;align=left;verticalAlign=middle;whiteSpace=wrap;rounded=0;glass=0;shadow=0;sketch=0;labelBackgroundColor=none;labelBorderColor=none;" vertex="1" parent="1">
          <mxGeometry x="920" y="200" width="200" height="20" as="geometry" />
        </mxCell>
        <mxCell id="SjNW3VqROAEUk7hYalKs-28" value="Study Instance UID (20,D)" style="text;html=1;strokeColor=#82b366;fillColor=#d5e8d4;align=left;verticalAlign=middle;whiteSpace=wrap;rounded=0;glass=0;shadow=0;sketch=0;labelBackgroundColor=none;labelBorderColor=none;" vertex="1" parent="1">
          <mxGeometry x="920" y="1640" width="200" height="20" as="geometry" />
        </mxCell>
        <mxCell id="SjNW3VqROAEUk7hYalKs-29" value="Referenced SOP Sequence (8,1199)" style="text;html=1;strokeColor=#d6b656;fillColor=#fff2cc;align=left;verticalAlign=middle;whiteSpace=wrap;rounded=0;glass=0;shadow=0;sketch=0;labelBackgroundColor=none;labelBorderColor=none;" vertex="1" parent="1">
          <mxGeometry x="970" y="250" width="200" height="20" as="geometry" />
        </mxCell>
        <mxCell id="SjNW3VqROAEUk7hYalKs-30" value="Series Instance UID (20,E)" style="text;html=1;strokeColor=#d6b656;fillColor=#fff2cc;align=left;verticalAlign=middle;whiteSpace=wrap;rounded=0;glass=0;shadow=0;sketch=0;labelBackgroundColor=none;labelBorderColor=none;" vertex="1" parent="1">
          <mxGeometry x="970" y="370" width="200" height="20" as="geometry" />
        </mxCell>
        <mxCell id="SjNW3VqROAEUk7hYalKs-31" value="Referenced SOP Class UID (8,1150)" style="text;html=1;strokeColor=#9673a6;fillColor=#e1d5e7;align=left;verticalAlign=middle;whiteSpace=wrap;rounded=0;glass=0;shadow=0;sketch=0;labelBackgroundColor=none;labelBorderColor=none;" vertex="1" parent="1">
          <mxGeometry x="1010" y="290" width="200" height="20" as="geometry" />
        </mxCell>
        <mxCell id="SjNW3VqROAEUk7hYalKs-32" value="Referenced SOP Instance UID (8,1155)" style="text;html=1;strokeColor=#9673a6;fillColor=#e1d5e7;align=left;verticalAlign=middle;whiteSpace=wrap;rounded=0;glass=0;shadow=0;sketch=0;labelBackgroundColor=none;labelBorderColor=none;" vertex="1" parent="1">
          <mxGeometry x="1010" y="330" width="200" height="20" as="geometry" />
        </mxCell>
        <mxCell id="SjNW3VqROAEUk7hYalKs-50" value="" style="rounded=1;whiteSpace=wrap;html=1;shadow=0;glass=0;labelBackgroundColor=none;strokeColor=#FF33FF;" vertex="1" parent="1">
          <mxGeometry x="960" y="440" width="260" height="170" as="geometry" />
        </mxCell>
        <mxCell id="SjNW3VqROAEUk7hYalKs-51" value="Referenced SOP Sequence (8,1199)" style="text;html=1;strokeColor=#d6b656;fillColor=#fff2cc;align=left;verticalAlign=middle;whiteSpace=wrap;rounded=0;glass=0;shadow=0;sketch=0;labelBackgroundColor=none;labelBorderColor=none;" vertex="1" parent="1">
          <mxGeometry x="970" y="450" width="200" height="20" as="geometry" />
        </mxCell>
        <mxCell id="SjNW3VqROAEUk7hYalKs-52" value="Series Instance UID (20,E)" style="text;html=1;strokeColor=#d6b656;fillColor=#fff2cc;align=left;verticalAlign=middle;whiteSpace=wrap;rounded=0;glass=0;shadow=0;sketch=0;labelBackgroundColor=none;labelBorderColor=none;" vertex="1" parent="1">
          <mxGeometry x="970" y="570" width="200" height="20" as="geometry" />
        </mxCell>
        <mxCell id="SjNW3VqROAEUk7hYalKs-53" value="Referenced SOP Class UID (8,1150)" style="text;html=1;strokeColor=#9673a6;fillColor=#e1d5e7;align=left;verticalAlign=middle;whiteSpace=wrap;rounded=0;glass=0;shadow=0;sketch=0;labelBackgroundColor=none;labelBorderColor=none;" vertex="1" parent="1">
          <mxGeometry x="1010" y="490" width="200" height="20" as="geometry" />
        </mxCell>
        <mxCell id="SjNW3VqROAEUk7hYalKs-54" value="Referenced SOP Instance UID (8,1155)" style="text;html=1;strokeColor=#9673a6;fillColor=#e1d5e7;align=left;verticalAlign=middle;whiteSpace=wrap;rounded=0;glass=0;shadow=0;sketch=0;labelBackgroundColor=none;labelBorderColor=none;" vertex="1" parent="1">
          <mxGeometry x="1010" y="530" width="200" height="20" as="geometry" />
        </mxCell>
        <mxCell id="SjNW3VqROAEUk7hYalKs-55" value="" style="rounded=1;whiteSpace=wrap;html=1;shadow=0;glass=0;labelBackgroundColor=none;strokeColor=#0066CC;" vertex="1" parent="1">
          <mxGeometry x="960" y="640" width="260" height="170" as="geometry" />
        </mxCell>
        <mxCell id="SjNW3VqROAEUk7hYalKs-56" value="Referenced SOP Sequence (8,1199)" style="text;html=1;strokeColor=#d6b656;fillColor=#fff2cc;align=left;verticalAlign=middle;whiteSpace=wrap;rounded=0;glass=0;shadow=0;sketch=0;labelBackgroundColor=none;labelBorderColor=none;" vertex="1" parent="1">
          <mxGeometry x="970" y="650" width="200" height="20" as="geometry" />
        </mxCell>
        <mxCell id="SjNW3VqROAEUk7hYalKs-57" value="Series Instance UID (20,E)" style="text;html=1;strokeColor=#d6b656;fillColor=#fff2cc;align=left;verticalAlign=middle;whiteSpace=wrap;rounded=0;glass=0;shadow=0;sketch=0;labelBackgroundColor=none;labelBorderColor=none;" vertex="1" parent="1">
          <mxGeometry x="970" y="770" width="200" height="20" as="geometry" />
        </mxCell>
        <mxCell id="SjNW3VqROAEUk7hYalKs-58" value="Referenced SOP Class UID (8,1150)" style="text;html=1;strokeColor=#9673a6;fillColor=#e1d5e7;align=left;verticalAlign=middle;whiteSpace=wrap;rounded=0;glass=0;shadow=0;sketch=0;labelBackgroundColor=none;labelBorderColor=none;" vertex="1" parent="1">
          <mxGeometry x="1010" y="690" width="200" height="20" as="geometry" />
        </mxCell>
        <mxCell id="SjNW3VqROAEUk7hYalKs-59" value="Referenced SOP Instance UID (8,1155)" style="text;html=1;strokeColor=#9673a6;fillColor=#e1d5e7;align=left;verticalAlign=middle;whiteSpace=wrap;rounded=0;glass=0;shadow=0;sketch=0;labelBackgroundColor=none;labelBorderColor=none;" vertex="1" parent="1">
          <mxGeometry x="1010" y="730" width="200" height="20" as="geometry" />
        </mxCell>
        <mxCell id="SjNW3VqROAEUk7hYalKs-60" value="" style="rounded=1;whiteSpace=wrap;html=1;shadow=0;glass=0;labelBackgroundColor=none;strokeColor=#B3FF66;" vertex="1" parent="1">
          <mxGeometry x="960" y="840" width="260" height="170" as="geometry" />
        </mxCell>
        <mxCell id="SjNW3VqROAEUk7hYalKs-61" value="Referenced SOP Sequence (8,1199)" style="text;html=1;strokeColor=#d6b656;fillColor=#fff2cc;align=left;verticalAlign=middle;whiteSpace=wrap;rounded=0;glass=0;shadow=0;sketch=0;labelBackgroundColor=none;labelBorderColor=none;" vertex="1" parent="1">
          <mxGeometry x="970" y="850" width="200" height="20" as="geometry" />
        </mxCell>
        <mxCell id="SjNW3VqROAEUk7hYalKs-62" value="Series Instance UID (20,E)" style="text;html=1;strokeColor=#d6b656;fillColor=#fff2cc;align=left;verticalAlign=middle;whiteSpace=wrap;rounded=0;glass=0;shadow=0;sketch=0;labelBackgroundColor=none;labelBorderColor=none;" vertex="1" parent="1">
          <mxGeometry x="970" y="970" width="200" height="20" as="geometry" />
        </mxCell>
        <mxCell id="SjNW3VqROAEUk7hYalKs-63" value="Referenced SOP Class UID (8,1150)" style="text;html=1;strokeColor=#9673a6;fillColor=#e1d5e7;align=left;verticalAlign=middle;whiteSpace=wrap;rounded=0;glass=0;shadow=0;sketch=0;labelBackgroundColor=none;labelBorderColor=none;" vertex="1" parent="1">
          <mxGeometry x="1010" y="890" width="200" height="20" as="geometry" />
        </mxCell>
        <mxCell id="SjNW3VqROAEUk7hYalKs-64" value="Referenced SOP Instance UID (8,1155)" style="text;html=1;strokeColor=#9673a6;fillColor=#e1d5e7;align=left;verticalAlign=middle;whiteSpace=wrap;rounded=0;glass=0;shadow=0;sketch=0;labelBackgroundColor=none;labelBorderColor=none;" vertex="1" parent="1">
          <mxGeometry x="1010" y="930" width="200" height="20" as="geometry" />
        </mxCell>
        <mxCell id="SjNW3VqROAEUk7hYalKs-65" value="" style="rounded=1;whiteSpace=wrap;html=1;shadow=0;glass=0;labelBackgroundColor=none;strokeColor=#FF9933;" vertex="1" parent="1">
          <mxGeometry x="960" y="1040" width="260" height="170" as="geometry" />
        </mxCell>
        <mxCell id="SjNW3VqROAEUk7hYalKs-66" value="Referenced SOP Sequence (8,1199)" style="text;html=1;strokeColor=#d6b656;fillColor=#fff2cc;align=left;verticalAlign=middle;whiteSpace=wrap;rounded=0;glass=0;shadow=0;sketch=0;labelBackgroundColor=none;labelBorderColor=none;" vertex="1" parent="1">
          <mxGeometry x="970" y="1050" width="200" height="20" as="geometry" />
        </mxCell>
        <mxCell id="SjNW3VqROAEUk7hYalKs-67" value="Series Instance UID (20,E)" style="text;html=1;strokeColor=#d6b656;fillColor=#fff2cc;align=left;verticalAlign=middle;whiteSpace=wrap;rounded=0;glass=0;shadow=0;sketch=0;labelBackgroundColor=none;labelBorderColor=none;" vertex="1" parent="1">
          <mxGeometry x="970" y="1170" width="200" height="20" as="geometry" />
        </mxCell>
        <mxCell id="SjNW3VqROAEUk7hYalKs-68" value="Referenced SOP Class UID (8,1150)" style="text;html=1;strokeColor=#9673a6;fillColor=#e1d5e7;align=left;verticalAlign=middle;whiteSpace=wrap;rounded=0;glass=0;shadow=0;sketch=0;labelBackgroundColor=none;labelBorderColor=none;" vertex="1" parent="1">
          <mxGeometry x="1010" y="1090" width="200" height="20" as="geometry" />
        </mxCell>
        <mxCell id="SjNW3VqROAEUk7hYalKs-69" value="Referenced SOP Instance UID (8,1155)" style="text;html=1;strokeColor=#9673a6;fillColor=#e1d5e7;align=left;verticalAlign=middle;whiteSpace=wrap;rounded=0;glass=0;shadow=0;sketch=0;labelBackgroundColor=none;labelBorderColor=none;" vertex="1" parent="1">
          <mxGeometry x="1010" y="1130" width="200" height="20" as="geometry" />
        </mxCell>
        <mxCell id="SjNW3VqROAEUk7hYalKs-70" value="" style="rounded=1;whiteSpace=wrap;html=1;shadow=0;glass=0;labelBackgroundColor=none;strokeColor=#66CC00;" vertex="1" parent="1">
          <mxGeometry x="960" y="1240" width="260" height="170" as="geometry" />
        </mxCell>
        <mxCell id="SjNW3VqROAEUk7hYalKs-71" value="Referenced SOP Sequence (8,1199)" style="text;html=1;strokeColor=#d6b656;fillColor=#fff2cc;align=left;verticalAlign=middle;whiteSpace=wrap;rounded=0;glass=0;shadow=0;sketch=0;labelBackgroundColor=none;labelBorderColor=none;" vertex="1" parent="1">
          <mxGeometry x="970" y="1250" width="200" height="20" as="geometry" />
        </mxCell>
        <mxCell id="SjNW3VqROAEUk7hYalKs-72" value="Series Instance UID (20,E)" style="text;html=1;strokeColor=#d6b656;fillColor=#fff2cc;align=left;verticalAlign=middle;whiteSpace=wrap;rounded=0;glass=0;shadow=0;sketch=0;labelBackgroundColor=none;labelBorderColor=none;" vertex="1" parent="1">
          <mxGeometry x="970" y="1370" width="200" height="20" as="geometry" />
        </mxCell>
        <mxCell id="SjNW3VqROAEUk7hYalKs-73" value="Referenced SOP Class UID (8,1150)" style="text;html=1;strokeColor=#9673a6;fillColor=#e1d5e7;align=left;verticalAlign=middle;whiteSpace=wrap;rounded=0;glass=0;shadow=0;sketch=0;labelBackgroundColor=none;labelBorderColor=none;" vertex="1" parent="1">
          <mxGeometry x="1010" y="1290" width="200" height="20" as="geometry" />
        </mxCell>
        <mxCell id="SjNW3VqROAEUk7hYalKs-74" value="Referenced SOP Instance UID (8,1155)" style="text;html=1;strokeColor=#9673a6;fillColor=#e1d5e7;align=left;verticalAlign=middle;whiteSpace=wrap;rounded=0;glass=0;shadow=0;sketch=0;labelBackgroundColor=none;labelBorderColor=none;" vertex="1" parent="1">
          <mxGeometry x="1010" y="1330" width="200" height="20" as="geometry" />
        </mxCell>
        <mxCell id="SjNW3VqROAEUk7hYalKs-75" value="" style="rounded=1;whiteSpace=wrap;html=1;shadow=0;glass=0;labelBackgroundColor=none;strokeColor=#004C99;" vertex="1" parent="1">
          <mxGeometry x="960" y="1440" width="260" height="170" as="geometry" />
        </mxCell>
        <mxCell id="SjNW3VqROAEUk7hYalKs-76" value="Referenced SOP Sequence (8,1199)" style="text;html=1;strokeColor=#d6b656;fillColor=#fff2cc;align=left;verticalAlign=middle;whiteSpace=wrap;rounded=0;glass=0;shadow=0;sketch=0;labelBackgroundColor=none;labelBorderColor=none;" vertex="1" parent="1">
          <mxGeometry x="970" y="1450" width="200" height="20" as="geometry" />
        </mxCell>
        <mxCell id="SjNW3VqROAEUk7hYalKs-77" value="Series Instance UID (20,E)" style="text;html=1;strokeColor=#d6b656;fillColor=#fff2cc;align=left;verticalAlign=middle;whiteSpace=wrap;rounded=0;glass=0;shadow=0;sketch=0;labelBackgroundColor=none;labelBorderColor=none;" vertex="1" parent="1">
          <mxGeometry x="970" y="1570" width="200" height="20" as="geometry" />
        </mxCell>
        <mxCell id="SjNW3VqROAEUk7hYalKs-78" value="Referenced SOP Class UID (8,1150)" style="text;html=1;strokeColor=#9673a6;fillColor=#e1d5e7;align=left;verticalAlign=middle;whiteSpace=wrap;rounded=0;glass=0;shadow=0;sketch=0;labelBackgroundColor=none;labelBorderColor=none;" vertex="1" parent="1">
          <mxGeometry x="1010" y="1490" width="200" height="20" as="geometry" />
        </mxCell>
        <mxCell id="SjNW3VqROAEUk7hYalKs-79" value="Referenced SOP Instance UID (8,1155)" style="text;html=1;strokeColor=#9673a6;fillColor=#e1d5e7;align=left;verticalAlign=middle;whiteSpace=wrap;rounded=0;glass=0;shadow=0;sketch=0;labelBackgroundColor=none;labelBorderColor=none;" vertex="1" parent="1">
          <mxGeometry x="1010" y="1530" width="200" height="20" as="geometry" />
        </mxCell>
        <mxCell id="SjNW3VqROAEUk7hYalKs-80" value="1" style="text;html=1;strokeColor=#6F0000;fillColor=#a20025;align=center;verticalAlign=middle;whiteSpace=wrap;rounded=0;shadow=0;glass=0;labelBackgroundColor=none;fontColor=#ffffff;" vertex="1" parent="1">
          <mxGeometry x="950" y="240" width="20" height="10" as="geometry" />
        </mxCell>
        <mxCell id="SjNW3VqROAEUk7hYalKs-81" value="2" style="text;html=1;strokeColor=#6F0000;fillColor=#a20025;align=center;verticalAlign=middle;whiteSpace=wrap;rounded=0;shadow=0;glass=0;labelBackgroundColor=none;fontColor=#ffffff;" vertex="1" parent="1">
          <mxGeometry x="950" y="440" width="20" height="10" as="geometry" />
        </mxCell>
        <mxCell id="SjNW3VqROAEUk7hYalKs-82" value="3" style="text;html=1;strokeColor=#6F0000;fillColor=#a20025;align=center;verticalAlign=middle;whiteSpace=wrap;rounded=0;shadow=0;glass=0;labelBackgroundColor=none;fontColor=#ffffff;" vertex="1" parent="1">
          <mxGeometry x="950" y="640" width="20" height="10" as="geometry" />
        </mxCell>
        <mxCell id="SjNW3VqROAEUk7hYalKs-87" value="4" style="text;html=1;strokeColor=#6F0000;fillColor=#a20025;align=center;verticalAlign=middle;whiteSpace=wrap;rounded=0;shadow=0;glass=0;labelBackgroundColor=none;fontColor=#ffffff;" vertex="1" parent="1">
          <mxGeometry x="950" y="840" width="20" height="10" as="geometry" />
        </mxCell>
        <mxCell id="SjNW3VqROAEUk7hYalKs-90" value="5" style="text;html=1;strokeColor=#6F0000;fillColor=#a20025;align=center;verticalAlign=middle;whiteSpace=wrap;rounded=0;shadow=0;glass=0;labelBackgroundColor=none;fontColor=#ffffff;" vertex="1" parent="1">
          <mxGeometry x="950" y="1040" width="20" height="10" as="geometry" />
        </mxCell>
        <mxCell id="SjNW3VqROAEUk7hYalKs-91" value="6" style="text;html=1;strokeColor=#6F0000;fillColor=#a20025;align=center;verticalAlign=middle;whiteSpace=wrap;rounded=0;shadow=0;glass=0;labelBackgroundColor=none;fontColor=#ffffff;" vertex="1" parent="1">
          <mxGeometry x="950" y="1240" width="20" height="10" as="geometry" />
        </mxCell>
        <mxCell id="SjNW3VqROAEUk7hYalKs-92" value="7" style="text;html=1;strokeColor=#6F0000;fillColor=#a20025;align=center;verticalAlign=middle;whiteSpace=wrap;rounded=0;shadow=0;glass=0;labelBackgroundColor=none;fontColor=#ffffff;" vertex="1" parent="1">
          <mxGeometry x="950" y="1440" width="20" height="10" as="geometry" />
        </mxCell>
        <mxCell id="SjNW3VqROAEUk7hYalKs-93" value="Mapping Resource (8,105)" style="text;html=1;strokeColor=#82b366;fillColor=#d5e8d4;align=left;verticalAlign=middle;whiteSpace=wrap;rounded=0;glass=0;shadow=0;sketch=0;labelBackgroundColor=none;labelBorderColor=none;" vertex="1" parent="1">
          <mxGeometry x="1280" y="200" width="200" height="20" as="geometry" />
        </mxCell>
        <mxCell id="SjNW3VqROAEUk7hYalKs-94" value="&lt;font color=&quot;#ff0000&quot;&gt;Not in Dictionary&lt;/font&gt; (8,118)" style="text;html=1;strokeColor=#82b366;fillColor=#d5e8d4;align=left;verticalAlign=middle;whiteSpace=wrap;rounded=0;glass=0;shadow=0;sketch=0;labelBackgroundColor=none;labelBorderColor=none;" vertex="1" parent="1">
          <mxGeometry x="1280" y="240" width="200" height="20" as="geometry" />
        </mxCell>
        <mxCell id="SjNW3VqROAEUk7hYalKs-95" value="Template Identifier (40,DB00)" style="text;html=1;strokeColor=#82b366;fillColor=#d5e8d4;align=left;verticalAlign=middle;whiteSpace=wrap;rounded=0;glass=0;shadow=0;sketch=0;labelBackgroundColor=none;labelBorderColor=none;" vertex="1" parent="1">
          <mxGeometry x="1280" y="280" width="200" height="20" as="geometry" />
        </mxCell>
        <mxCell id="SjNW3VqROAEUk7hYalKs-96" value="Relationship Type (40,A010)" style="text;html=1;strokeColor=#82b366;fillColor=#d5e8d4;align=left;verticalAlign=middle;whiteSpace=wrap;rounded=0;glass=0;shadow=0;sketch=0;labelBackgroundColor=none;labelBorderColor=none;" vertex="1" parent="1">
          <mxGeometry x="1540" y="210" width="200" height="20" as="geometry" />
        </mxCell>
        <mxCell id="SjNW3VqROAEUk7hYalKs-97" value="Value Type (40,A040)" style="text;html=1;strokeColor=#82b366;fillColor=#d5e8d4;align=left;verticalAlign=middle;whiteSpace=wrap;rounded=0;glass=0;shadow=0;sketch=0;labelBackgroundColor=none;labelBorderColor=none;" vertex="1" parent="1">
          <mxGeometry x="1540" y="250" width="200" height="20" as="geometry" />
        </mxCell>
        <mxCell id="SjNW3VqROAEUk7hYalKs-98" value="Concept Name Code Sequence (40,A043)" style="text;html=1;strokeColor=#82b366;fillColor=#d5e8d4;align=left;verticalAlign=middle;whiteSpace=wrap;rounded=0;glass=0;shadow=0;sketch=0;labelBackgroundColor=none;labelBorderColor=none;" vertex="1" parent="1">
          <mxGeometry x="1540" y="290" width="200" height="20" as="geometry" />
        </mxCell>
        <mxCell id="SjNW3VqROAEUk7hYalKs-99" value="Continuity Of Content (40, A050)" style="text;html=1;strokeColor=#82b366;fillColor=#d5e8d4;align=left;verticalAlign=middle;whiteSpace=wrap;rounded=0;glass=0;shadow=0;sketch=0;labelBackgroundColor=none;labelBorderColor=none;" vertex="1" parent="1">
          <mxGeometry x="1540" y="450" width="200" height="20" as="geometry" />
        </mxCell>
        <mxCell id="SjNW3VqROAEUk7hYalKs-100" value="Content Sequence (40, A730)" style="text;html=1;strokeColor=#82b366;fillColor=#d5e8d4;align=left;verticalAlign=middle;whiteSpace=wrap;rounded=0;glass=0;shadow=0;sketch=0;labelBackgroundColor=none;labelBorderColor=none;" vertex="1" parent="1">
          <mxGeometry x="1540" y="490" width="200" height="20" as="geometry" />
        </mxCell>
        <mxCell id="SjNW3VqROAEUk7hYalKs-102" value="Code Value (8,100)" style="text;html=1;strokeColor=#d6b656;fillColor=#fff2cc;align=left;verticalAlign=middle;whiteSpace=wrap;rounded=0;glass=0;shadow=0;sketch=0;labelBackgroundColor=none;labelBorderColor=none;" vertex="1" parent="1">
          <mxGeometry x="1580" y="330" width="200" height="20" as="geometry" />
        </mxCell>
        <mxCell id="SjNW3VqROAEUk7hYalKs-103" value="Coding Scheme Designator (8,102)" style="text;html=1;strokeColor=#d6b656;fillColor=#fff2cc;align=left;verticalAlign=middle;whiteSpace=wrap;rounded=0;glass=0;shadow=0;sketch=0;labelBackgroundColor=none;labelBorderColor=none;" vertex="1" parent="1">
          <mxGeometry x="1580" y="370" width="200" height="20" as="geometry" />
        </mxCell>
        <mxCell id="SjNW3VqROAEUk7hYalKs-104" value="Code Meaning (8,104)" style="text;html=1;strokeColor=#d6b656;fillColor=#fff2cc;align=left;verticalAlign=middle;whiteSpace=wrap;rounded=0;glass=0;shadow=0;sketch=0;labelBackgroundColor=none;labelBorderColor=none;" vertex="1" parent="1">
          <mxGeometry x="1580" y="410" width="200" height="20" as="geometry" />
        </mxCell>
        <mxCell id="SjNW3VqROAEUk7hYalKs-105" value="Relationship Type (40,A010)" style="text;html=1;strokeColor=#d6b656;fillColor=#fff2cc;align=left;verticalAlign=middle;whiteSpace=wrap;rounded=0;glass=0;shadow=0;sketch=0;labelBackgroundColor=none;labelBorderColor=none;" vertex="1" parent="1">
          <mxGeometry x="1580" y="530" width="200" height="20" as="geometry" />
        </mxCell>
        <mxCell id="SjNW3VqROAEUk7hYalKs-106" value="Value Type (40,A040)" style="text;html=1;strokeColor=#d6b656;fillColor=#fff2cc;align=left;verticalAlign=middle;whiteSpace=wrap;rounded=0;glass=0;shadow=0;sketch=0;labelBackgroundColor=none;labelBorderColor=none;" vertex="1" parent="1">
          <mxGeometry x="1580" y="570" width="200" height="20" as="geometry" />
        </mxCell>
        <mxCell id="SjNW3VqROAEUk7hYalKs-107" value="Concept Name Code Sequence (40,A043)" style="text;html=1;strokeColor=#d6b656;fillColor=#fff2cc;align=left;verticalAlign=middle;whiteSpace=wrap;rounded=0;glass=0;shadow=0;sketch=0;labelBackgroundColor=none;labelBorderColor=none;" vertex="1" parent="1">
          <mxGeometry x="1580" y="610" width="200" height="20" as="geometry" />
        </mxCell>
        <mxCell id="SjNW3VqROAEUk7hYalKs-108" value="Continuity Of Content (40, A050)" style="text;html=1;strokeColor=#d6b656;fillColor=#fff2cc;align=left;verticalAlign=middle;whiteSpace=wrap;rounded=0;glass=0;shadow=0;sketch=0;labelBackgroundColor=none;labelBorderColor=none;" vertex="1" parent="1">
          <mxGeometry x="1580" y="770" width="200" height="20" as="geometry" />
        </mxCell>
        <mxCell id="SjNW3VqROAEUk7hYalKs-109" value="Content Sequence (40, A730)" style="text;html=1;strokeColor=#d6b656;fillColor=#fff2cc;align=left;verticalAlign=middle;whiteSpace=wrap;rounded=0;glass=0;shadow=0;sketch=0;labelBackgroundColor=none;labelBorderColor=none;" vertex="1" parent="1">
          <mxGeometry x="1580" y="810" width="200" height="20" as="geometry" />
        </mxCell>
        <mxCell id="SjNW3VqROAEUk7hYalKs-110" value="Code Value (8,100)" style="text;html=1;strokeColor=#6D1F00;fillColor=#a0522d;align=left;verticalAlign=middle;whiteSpace=wrap;rounded=0;glass=0;shadow=0;sketch=0;labelBackgroundColor=none;labelBorderColor=none;fontColor=#ffffff;" vertex="1" parent="1">
          <mxGeometry x="1670" y="980" width="200" height="20" as="geometry" />
        </mxCell>
        <mxCell id="SjNW3VqROAEUk7hYalKs-111" value="Coding Scheme Designator (8,102)" style="text;html=1;strokeColor=#6D1F00;fillColor=#a0522d;align=left;verticalAlign=middle;whiteSpace=wrap;rounded=0;glass=0;shadow=0;sketch=0;labelBackgroundColor=none;labelBorderColor=none;fontColor=#ffffff;" vertex="1" parent="1">
          <mxGeometry x="1670" y="1020" width="200" height="20" as="geometry" />
        </mxCell>
        <mxCell id="SjNW3VqROAEUk7hYalKs-112" value="Code Meaning (8,104)" style="text;html=1;strokeColor=#6D1F00;fillColor=#a0522d;align=left;verticalAlign=middle;whiteSpace=wrap;rounded=0;glass=0;shadow=0;sketch=0;labelBackgroundColor=none;labelBorderColor=none;fontColor=#ffffff;" vertex="1" parent="1">
          <mxGeometry x="1670" y="1060" width="200" height="20" as="geometry" />
        </mxCell>
        <mxCell id="SjNW3VqROAEUk7hYalKs-113" value="Relationship Type (40,A010)" style="text;html=1;strokeColor=#9673a6;fillColor=#e1d5e7;align=left;verticalAlign=middle;whiteSpace=wrap;rounded=0;glass=0;shadow=0;sketch=0;labelBackgroundColor=none;labelBorderColor=none;" vertex="1" parent="1">
          <mxGeometry x="1630" y="860" width="200" height="20" as="geometry" />
        </mxCell>
        <mxCell id="SjNW3VqROAEUk7hYalKs-114" value="Value Type (40,A040)" style="text;html=1;strokeColor=#9673a6;fillColor=#e1d5e7;align=left;verticalAlign=middle;whiteSpace=wrap;rounded=0;glass=0;shadow=0;sketch=0;labelBackgroundColor=none;labelBorderColor=none;" vertex="1" parent="1">
          <mxGeometry x="1630" y="900" width="200" height="20" as="geometry" />
        </mxCell>
        <mxCell id="SjNW3VqROAEUk7hYalKs-115" value="Concept Name Code Sequence (40,A043)" style="text;html=1;strokeColor=#9673a6;fillColor=#e1d5e7;align=left;verticalAlign=middle;whiteSpace=wrap;rounded=0;glass=0;shadow=0;sketch=0;labelBackgroundColor=none;labelBorderColor=none;" vertex="1" parent="1">
          <mxGeometry x="1630" y="940" width="200" height="20" as="geometry" />
        </mxCell>
        <mxCell id="SjNW3VqROAEUk7hYalKs-116" value="Text Value (40,A160)" style="text;html=1;strokeColor=#9673a6;fillColor=#e1d5e7;align=left;verticalAlign=middle;whiteSpace=wrap;rounded=0;glass=0;shadow=0;sketch=0;labelBackgroundColor=none;labelBorderColor=none;" vertex="1" parent="1">
          <mxGeometry x="1630" y="1100" width="200" height="20" as="geometry" />
        </mxCell>
        <mxCell id="SjNW3VqROAEUk7hYalKs-117" value="Code Value (8,100)" style="text;html=1;strokeColor=#9673a6;fillColor=#e1d5e7;align=left;verticalAlign=middle;whiteSpace=wrap;rounded=0;glass=0;shadow=0;sketch=0;labelBackgroundColor=none;labelBorderColor=none;" vertex="1" parent="1">
          <mxGeometry x="1620" y="650" width="200" height="20" as="geometry" />
        </mxCell>
        <mxCell id="SjNW3VqROAEUk7hYalKs-118" value="Coding Scheme Designator (8,102)" style="text;html=1;strokeColor=#9673a6;fillColor=#e1d5e7;align=left;verticalAlign=middle;whiteSpace=wrap;rounded=0;glass=0;shadow=0;sketch=0;labelBackgroundColor=none;labelBorderColor=none;" vertex="1" parent="1">
          <mxGeometry x="1620" y="690" width="200" height="20" as="geometry" />
        </mxCell>
        <mxCell id="SjNW3VqROAEUk7hYalKs-119" value="Code Meaning (8,104)" style="text;html=1;strokeColor=#9673a6;fillColor=#e1d5e7;align=left;verticalAlign=middle;whiteSpace=wrap;rounded=0;glass=0;shadow=0;sketch=0;labelBackgroundColor=none;labelBorderColor=none;" vertex="1" parent="1">
          <mxGeometry x="1620" y="730" width="200" height="20" as="geometry" />
        </mxCell>
        <mxCell id="SjNW3VqROAEUk7hYalKs-123" value="1x6" style="text;html=1;strokeColor=#6F0000;fillColor=#a20025;align=center;verticalAlign=middle;whiteSpace=wrap;rounded=0;shadow=0;glass=0;labelBackgroundColor=none;fontColor=#ffffff;" vertex="1" parent="1">
          <mxGeometry x="1510" y="200" width="30" height="10" as="geometry" />
        </mxCell>
        <mxCell id="SjNW3VqROAEUk7hYalKs-176" value="Relationship Type (40,A010)" style="text;html=1;strokeColor=#9673a6;fillColor=#e1d5e7;align=left;verticalAlign=middle;whiteSpace=wrap;rounded=0;glass=0;shadow=0;sketch=0;labelBackgroundColor=none;labelBorderColor=none;" vertex="1" parent="1">
          <mxGeometry x="1630" y="1180" width="200" height="20" as="geometry" />
        </mxCell>
        <mxCell id="SjNW3VqROAEUk7hYalKs-177" value="Value Type (40,A040)" style="text;html=1;strokeColor=#9673a6;fillColor=#e1d5e7;align=left;verticalAlign=middle;whiteSpace=wrap;rounded=0;glass=0;shadow=0;sketch=0;labelBackgroundColor=none;labelBorderColor=none;" vertex="1" parent="1">
          <mxGeometry x="1630" y="1220" width="200" height="20" as="geometry" />
        </mxCell>
        <mxCell id="SjNW3VqROAEUk7hYalKs-178" value="Concept Name Code Sequence (40,A043)" style="text;html=1;strokeColor=#9673a6;fillColor=#e1d5e7;align=left;verticalAlign=middle;whiteSpace=wrap;rounded=0;glass=0;shadow=0;sketch=0;labelBackgroundColor=none;labelBorderColor=none;" vertex="1" parent="1">
          <mxGeometry x="1630" y="1260" width="200" height="20" as="geometry" />
        </mxCell>
        <mxCell id="SjNW3VqROAEUk7hYalKs-180" value="Code Value (8,100)" style="text;html=1;strokeColor=#6D1F00;fillColor=#a0522d;align=left;verticalAlign=middle;whiteSpace=wrap;rounded=0;glass=0;shadow=0;sketch=0;labelBackgroundColor=none;labelBorderColor=none;fontColor=#ffffff;" vertex="1" parent="1">
          <mxGeometry x="1670" y="1300" width="200" height="20" as="geometry" />
        </mxCell>
        <mxCell id="SjNW3VqROAEUk7hYalKs-181" value="Coding Scheme Designator (8,102)" style="text;html=1;strokeColor=#6D1F00;fillColor=#a0522d;align=left;verticalAlign=middle;whiteSpace=wrap;rounded=0;glass=0;shadow=0;sketch=0;labelBackgroundColor=none;labelBorderColor=none;fontColor=#ffffff;" vertex="1" parent="1">
          <mxGeometry x="1670" y="1340" width="200" height="20" as="geometry" />
        </mxCell>
        <mxCell id="SjNW3VqROAEUk7hYalKs-182" value="Code Meaning (8,104)" style="text;html=1;strokeColor=#6D1F00;fillColor=#a0522d;align=left;verticalAlign=middle;whiteSpace=wrap;rounded=0;glass=0;shadow=0;sketch=0;labelBackgroundColor=none;labelBorderColor=none;fontColor=#ffffff;" vertex="1" parent="1">
          <mxGeometry x="1670" y="1380" width="200" height="20" as="geometry" />
        </mxCell>
        <mxCell id="SjNW3VqROAEUk7hYalKs-183" value="UID (40,A124)" style="text;html=1;strokeColor=#9673a6;fillColor=#e1d5e7;align=left;verticalAlign=middle;whiteSpace=wrap;rounded=0;glass=0;shadow=0;sketch=0;labelBackgroundColor=none;labelBorderColor=none;" vertex="1" parent="1">
          <mxGeometry x="1630" y="1420" width="200" height="20" as="geometry" />
        </mxCell>
        <mxCell id="SjNW3VqROAEUk7hYalKs-188" value="Relationship Type (40,A010)" style="text;html=1;strokeColor=#9673a6;fillColor=#e1d5e7;align=left;verticalAlign=middle;whiteSpace=wrap;rounded=0;glass=0;shadow=0;sketch=0;labelBackgroundColor=none;labelBorderColor=none;" vertex="1" parent="1">
          <mxGeometry x="1630" y="1500" width="200" height="20" as="geometry" />
        </mxCell>
        <mxCell id="SjNW3VqROAEUk7hYalKs-189" value="Value Type (40,A040)" style="text;html=1;strokeColor=#9673a6;fillColor=#e1d5e7;align=left;verticalAlign=middle;whiteSpace=wrap;rounded=0;glass=0;shadow=0;sketch=0;labelBackgroundColor=none;labelBorderColor=none;" vertex="1" parent="1">
          <mxGeometry x="1630" y="1540" width="200" height="20" as="geometry" />
        </mxCell>
        <mxCell id="SjNW3VqROAEUk7hYalKs-190" value="Concept Name Code Sequence (40,A043)" style="text;html=1;strokeColor=#9673a6;fillColor=#e1d5e7;align=left;verticalAlign=middle;whiteSpace=wrap;rounded=0;glass=0;shadow=0;sketch=0;labelBackgroundColor=none;labelBorderColor=none;" vertex="1" parent="1">
          <mxGeometry x="1630" y="1580" width="200" height="20" as="geometry" />
        </mxCell>
        <mxCell id="SjNW3VqROAEUk7hYalKs-191" value="Code Value (8,100)" style="text;html=1;strokeColor=#6D1F00;fillColor=#a0522d;align=left;verticalAlign=middle;whiteSpace=wrap;rounded=0;glass=0;shadow=0;sketch=0;labelBackgroundColor=none;labelBorderColor=none;fontColor=#ffffff;" vertex="1" parent="1">
          <mxGeometry x="1670" y="1620" width="200" height="20" as="geometry" />
        </mxCell>
        <mxCell id="SjNW3VqROAEUk7hYalKs-192" value="Coding Scheme Designator (8,102)" style="text;html=1;strokeColor=#6D1F00;fillColor=#a0522d;align=left;verticalAlign=middle;whiteSpace=wrap;rounded=0;glass=0;shadow=0;sketch=0;labelBackgroundColor=none;labelBorderColor=none;fontColor=#ffffff;" vertex="1" parent="1">
          <mxGeometry x="1670" y="1660" width="200" height="20" as="geometry" />
        </mxCell>
        <mxCell id="SjNW3VqROAEUk7hYalKs-193" value="Code Meaning (8,104)" style="text;html=1;strokeColor=#6D1F00;fillColor=#a0522d;align=left;verticalAlign=middle;whiteSpace=wrap;rounded=0;glass=0;shadow=0;sketch=0;labelBackgroundColor=none;labelBorderColor=none;fontColor=#ffffff;" vertex="1" parent="1">
          <mxGeometry x="1670" y="1700" width="200" height="20" as="geometry" />
        </mxCell>
        <mxCell id="SjNW3VqROAEUk7hYalKs-194" value="Concept Code Sequence (40,A168)" style="text;html=1;strokeColor=#9673a6;fillColor=#e1d5e7;align=left;verticalAlign=middle;whiteSpace=wrap;rounded=0;glass=0;shadow=0;sketch=0;labelBackgroundColor=none;labelBorderColor=none;" vertex="1" parent="1">
          <mxGeometry x="1630" y="1740" width="200" height="20" as="geometry" />
        </mxCell>
        <mxCell id="SjNW3VqROAEUk7hYalKs-195" value="Code Value (8,100)" style="text;html=1;strokeColor=#6D1F00;fillColor=#a0522d;align=left;verticalAlign=middle;whiteSpace=wrap;rounded=0;glass=0;shadow=0;sketch=0;labelBackgroundColor=none;labelBorderColor=none;fontColor=#ffffff;" vertex="1" parent="1">
          <mxGeometry x="1670" y="1780" width="200" height="20" as="geometry" />
        </mxCell>
        <mxCell id="SjNW3VqROAEUk7hYalKs-196" value="Coding Scheme Designator (8,102)" style="text;html=1;strokeColor=#6D1F00;fillColor=#a0522d;align=left;verticalAlign=middle;whiteSpace=wrap;rounded=0;glass=0;shadow=0;sketch=0;labelBackgroundColor=none;labelBorderColor=none;fontColor=#ffffff;" vertex="1" parent="1">
          <mxGeometry x="1670" y="1820" width="200" height="20" as="geometry" />
        </mxCell>
        <mxCell id="SjNW3VqROAEUk7hYalKs-197" value="Code Meaning (8,104)" style="text;html=1;strokeColor=#6D1F00;fillColor=#a0522d;align=left;verticalAlign=middle;whiteSpace=wrap;rounded=0;glass=0;shadow=0;sketch=0;labelBackgroundColor=none;labelBorderColor=none;fontColor=#ffffff;" vertex="1" parent="1">
          <mxGeometry x="1670" y="1860" width="200" height="20" as="geometry" />
        </mxCell>
        <mxCell id="SjNW3VqROAEUk7hYalKs-199" value="Relationship Type (40,A010)" style="text;html=1;strokeColor=#9673a6;fillColor=#e1d5e7;align=left;verticalAlign=middle;whiteSpace=wrap;rounded=0;glass=0;shadow=0;sketch=0;labelBackgroundColor=none;labelBorderColor=none;" vertex="1" parent="1">
          <mxGeometry x="1630" y="1500" width="200" height="20" as="geometry" />
        </mxCell>
        <mxCell id="SjNW3VqROAEUk7hYalKs-201" value="Relationship Type (40,A010)" style="text;html=1;strokeColor=#9673a6;fillColor=#e1d5e7;align=left;verticalAlign=middle;whiteSpace=wrap;rounded=0;glass=0;shadow=0;sketch=0;labelBackgroundColor=none;labelBorderColor=none;" vertex="1" parent="1">
          <mxGeometry x="1630" y="1500" width="200" height="20" as="geometry" />
        </mxCell>
        <mxCell id="SjNW3VqROAEUk7hYalKs-202" value="Value Type (40,A040)" style="text;html=1;strokeColor=#9673a6;fillColor=#e1d5e7;align=left;verticalAlign=middle;whiteSpace=wrap;rounded=0;glass=0;shadow=0;sketch=0;labelBackgroundColor=none;labelBorderColor=none;" vertex="1" parent="1">
          <mxGeometry x="1630" y="1540" width="200" height="20" as="geometry" />
        </mxCell>
        <mxCell id="SjNW3VqROAEUk7hYalKs-203" value="Concept Name Code Sequence (40,A043)" style="text;html=1;strokeColor=#9673a6;fillColor=#e1d5e7;align=left;verticalAlign=middle;whiteSpace=wrap;rounded=0;glass=0;shadow=0;sketch=0;labelBackgroundColor=none;labelBorderColor=none;" vertex="1" parent="1">
          <mxGeometry x="1630" y="1580" width="200" height="20" as="geometry" />
        </mxCell>
        <mxCell id="SjNW3VqROAEUk7hYalKs-204" value="Code Value (8,100)" style="text;html=1;strokeColor=#6D1F00;fillColor=#a0522d;align=left;verticalAlign=middle;whiteSpace=wrap;rounded=0;glass=0;shadow=0;sketch=0;labelBackgroundColor=none;labelBorderColor=none;fontColor=#ffffff;" vertex="1" parent="1">
          <mxGeometry x="1670" y="1620" width="200" height="20" as="geometry" />
        </mxCell>
        <mxCell id="SjNW3VqROAEUk7hYalKs-205" value="Coding Scheme Designator (8,102)" style="text;html=1;strokeColor=#6D1F00;fillColor=#a0522d;align=left;verticalAlign=middle;whiteSpace=wrap;rounded=0;glass=0;shadow=0;sketch=0;labelBackgroundColor=none;labelBorderColor=none;fontColor=#ffffff;" vertex="1" parent="1">
          <mxGeometry x="1670" y="1660" width="200" height="20" as="geometry" />
        </mxCell>
        <mxCell id="SjNW3VqROAEUk7hYalKs-206" value="" style="rounded=1;whiteSpace=wrap;html=1;shadow=0;glass=1;dashed=1;dashPattern=1 1;labelBackgroundColor=none;strokeWidth=4;fillColor=none;strokeColor=#7CCF7C;" vertex="1" parent="1">
          <mxGeometry x="1620" y="1940" width="260" height="420" as="geometry" />
        </mxCell>
        <mxCell id="SjNW3VqROAEUk7hYalKs-208" value="Relationship Type (40,A010)" style="text;html=1;strokeColor=#9673a6;fillColor=#e1d5e7;align=left;verticalAlign=middle;whiteSpace=wrap;rounded=0;glass=0;shadow=0;sketch=0;labelBackgroundColor=none;labelBorderColor=none;" vertex="1" parent="1">
          <mxGeometry x="1630" y="1950" width="200" height="20" as="geometry" />
        </mxCell>
        <mxCell id="SjNW3VqROAEUk7hYalKs-209" value="Value Type (40,A040)" style="text;html=1;strokeColor=#9673a6;fillColor=#e1d5e7;align=left;verticalAlign=middle;whiteSpace=wrap;rounded=0;glass=0;shadow=0;sketch=0;labelBackgroundColor=none;labelBorderColor=none;" vertex="1" parent="1">
          <mxGeometry x="1630" y="1990" width="200" height="20" as="geometry" />
        </mxCell>
        <mxCell id="SjNW3VqROAEUk7hYalKs-210" value="Concept Name Code Sequence (40,A043)" style="text;html=1;strokeColor=#9673a6;fillColor=#e1d5e7;align=left;verticalAlign=middle;whiteSpace=wrap;rounded=0;glass=0;shadow=0;sketch=0;labelBackgroundColor=none;labelBorderColor=none;" vertex="1" parent="1">
          <mxGeometry x="1630" y="2030" width="200" height="20" as="geometry" />
        </mxCell>
        <mxCell id="SjNW3VqROAEUk7hYalKs-211" value="Code Value (8,100)" style="text;html=1;strokeColor=#6D1F00;fillColor=#a0522d;align=left;verticalAlign=middle;whiteSpace=wrap;rounded=0;glass=0;shadow=0;sketch=0;labelBackgroundColor=none;labelBorderColor=none;fontColor=#ffffff;" vertex="1" parent="1">
          <mxGeometry x="1670" y="2070" width="200" height="20" as="geometry" />
        </mxCell>
        <mxCell id="SjNW3VqROAEUk7hYalKs-212" value="Coding Scheme Designator (8,102)" style="text;html=1;strokeColor=#6D1F00;fillColor=#a0522d;align=left;verticalAlign=middle;whiteSpace=wrap;rounded=0;glass=0;shadow=0;sketch=0;labelBackgroundColor=none;labelBorderColor=none;fontColor=#ffffff;" vertex="1" parent="1">
          <mxGeometry x="1670" y="2110" width="200" height="20" as="geometry" />
        </mxCell>
        <mxCell id="SjNW3VqROAEUk7hYalKs-213" value="Code Meaning (8,104)" style="text;html=1;strokeColor=#6D1F00;fillColor=#a0522d;align=left;verticalAlign=middle;whiteSpace=wrap;rounded=0;glass=0;shadow=0;sketch=0;labelBackgroundColor=none;labelBorderColor=none;fontColor=#ffffff;" vertex="1" parent="1">
          <mxGeometry x="1670" y="2150" width="200" height="20" as="geometry" />
        </mxCell>
        <mxCell id="SjNW3VqROAEUk7hYalKs-214" value="Concept Code Sequence (40,A168)" style="text;html=1;strokeColor=#9673a6;fillColor=#e1d5e7;align=left;verticalAlign=middle;whiteSpace=wrap;rounded=0;glass=0;shadow=0;sketch=0;labelBackgroundColor=none;labelBorderColor=none;" vertex="1" parent="1">
          <mxGeometry x="1630" y="2190" width="200" height="20" as="geometry" />
        </mxCell>
        <mxCell id="SjNW3VqROAEUk7hYalKs-215" value="Code Value (8,100)" style="text;html=1;strokeColor=#6D1F00;fillColor=#a0522d;align=left;verticalAlign=middle;whiteSpace=wrap;rounded=0;glass=0;shadow=0;sketch=0;labelBackgroundColor=none;labelBorderColor=none;fontColor=#ffffff;" vertex="1" parent="1">
          <mxGeometry x="1670" y="2230" width="200" height="20" as="geometry" />
        </mxCell>
        <mxCell id="SjNW3VqROAEUk7hYalKs-216" value="Coding Scheme Designator (8,102)" style="text;html=1;strokeColor=#6D1F00;fillColor=#a0522d;align=left;verticalAlign=middle;whiteSpace=wrap;rounded=0;glass=0;shadow=0;sketch=0;labelBackgroundColor=none;labelBorderColor=none;fontColor=#ffffff;" vertex="1" parent="1">
          <mxGeometry x="1670" y="2270" width="200" height="20" as="geometry" />
        </mxCell>
        <mxCell id="SjNW3VqROAEUk7hYalKs-217" value="Code Meaning (8,104)" style="text;html=1;strokeColor=#6D1F00;fillColor=#a0522d;align=left;verticalAlign=middle;whiteSpace=wrap;rounded=0;glass=0;shadow=0;sketch=0;labelBackgroundColor=none;labelBorderColor=none;fontColor=#ffffff;" vertex="1" parent="1">
          <mxGeometry x="1670" y="2310" width="200" height="20" as="geometry" />
        </mxCell>
        <mxCell id="SjNW3VqROAEUk7hYalKs-218" value="Relationship Type (40,A010)" style="text;html=1;strokeColor=#9673a6;fillColor=#e1d5e7;align=left;verticalAlign=middle;whiteSpace=wrap;rounded=0;glass=0;shadow=0;sketch=0;labelBackgroundColor=none;labelBorderColor=none;" vertex="1" parent="1">
          <mxGeometry x="1630" y="1950" width="200" height="20" as="geometry" />
        </mxCell>
        <mxCell id="SjNW3VqROAEUk7hYalKs-220" value="Relationship Type (40,A010)" style="text;html=1;strokeColor=#9673a6;fillColor=#e1d5e7;align=left;verticalAlign=middle;whiteSpace=wrap;rounded=0;glass=0;shadow=0;sketch=0;labelBackgroundColor=none;labelBorderColor=none;" vertex="1" parent="1">
          <mxGeometry x="1630" y="1950" width="200" height="20" as="geometry" />
        </mxCell>
        <mxCell id="SjNW3VqROAEUk7hYalKs-221" value="Value Type (40,A040)" style="text;html=1;strokeColor=#9673a6;fillColor=#e1d5e7;align=left;verticalAlign=middle;whiteSpace=wrap;rounded=0;glass=0;shadow=0;sketch=0;labelBackgroundColor=none;labelBorderColor=none;" vertex="1" parent="1">
          <mxGeometry x="1630" y="1990" width="200" height="20" as="geometry" />
        </mxCell>
        <mxCell id="SjNW3VqROAEUk7hYalKs-222" value="Concept Name Code Sequence (40,A043)" style="text;html=1;strokeColor=#9673a6;fillColor=#e1d5e7;align=left;verticalAlign=middle;whiteSpace=wrap;rounded=0;glass=0;shadow=0;sketch=0;labelBackgroundColor=none;labelBorderColor=none;" vertex="1" parent="1">
          <mxGeometry x="1630" y="2030" width="200" height="20" as="geometry" />
        </mxCell>
        <mxCell id="SjNW3VqROAEUk7hYalKs-223" value="Code Value (8,100)" style="text;html=1;strokeColor=#6D1F00;fillColor=#a0522d;align=left;verticalAlign=middle;whiteSpace=wrap;rounded=0;glass=0;shadow=0;sketch=0;labelBackgroundColor=none;labelBorderColor=none;fontColor=#ffffff;" vertex="1" parent="1">
          <mxGeometry x="1670" y="2070" width="200" height="20" as="geometry" />
        </mxCell>
        <mxCell id="SjNW3VqROAEUk7hYalKs-224" value="Coding Scheme Designator (8,102)" style="text;html=1;strokeColor=#6D1F00;fillColor=#a0522d;align=left;verticalAlign=middle;whiteSpace=wrap;rounded=0;glass=0;shadow=0;sketch=0;labelBackgroundColor=none;labelBorderColor=none;fontColor=#ffffff;" vertex="1" parent="1">
          <mxGeometry x="1670" y="2110" width="200" height="20" as="geometry" />
        </mxCell>
        <mxCell id="SjNW3VqROAEUk7hYalKs-225" value="1" style="text;html=1;strokeColor=#6F0000;align=center;verticalAlign=middle;whiteSpace=wrap;rounded=0;shadow=0;glass=0;labelBackgroundColor=none;fontColor=#ffffff;fillColor=#0000FF;" vertex="1" parent="1">
          <mxGeometry x="1610" y="850" width="20" height="10" as="geometry" />
        </mxCell>
        <mxCell id="SjNW3VqROAEUk7hYalKs-226" value="2" style="text;html=1;strokeColor=#6F0000;align=center;verticalAlign=middle;whiteSpace=wrap;rounded=0;shadow=0;glass=0;labelBackgroundColor=none;fontColor=#ffffff;fillColor=#0000FF;" vertex="1" parent="1">
          <mxGeometry x="1610" y="1170" width="20" height="10" as="geometry" />
        </mxCell>
        <mxCell id="SjNW3VqROAEUk7hYalKs-227" value="&lt;span style=&quot;color: rgba(0 , 0 , 0 , 0) ; font-family: monospace ; font-size: 0px&quot;&gt;%3CmxGraphModel%3E%3Croot%3E%3CmxCell%20id%3D%220%22%2F%3E%3CmxCell%20id%3D%221%22%20parent%3D%220%22%2F%3E%3CmxCell%20id%3D%222%22%20value%3D%222%22%20style%3D%22text%3Bhtml%3D1%3BstrokeColor%3D%236F0000%3Balign%3Dcenter%3BverticalAlign%3Dmiddle%3BwhiteSpace%3Dwrap%3Brounded%3D0%3Bshadow%3D0%3Bglass%3D0%3BlabelBackgroundColor%3Dnone%3BfontColor%3D%23ffffff%3BfillColor%3D%230000FF%3B%22%20vertex%3D%221%22%20parent%3D%221%22%3E%3CmxGeometry%20x%3D%221610%22%20y%3D%221170%22%20width%3D%2220%22%20height%3D%2210%22%20as%3D%22geometry%22%2F%3E%3C%2FmxCell%3E%3C%2Froot%3E%3C%2FmxGraphModel%3E&lt;/span&gt;3" style="text;html=1;strokeColor=#6F0000;align=center;verticalAlign=middle;whiteSpace=wrap;rounded=0;shadow=0;glass=0;labelBackgroundColor=none;fontColor=#ffffff;fillColor=#0000FF;" vertex="1" parent="1">
          <mxGeometry x="1610" y="1490" width="20" height="10" as="geometry" />
        </mxCell>
        <mxCell id="SjNW3VqROAEUk7hYalKs-232" value="&lt;font face=&quot;monospace&quot;&gt;&lt;span&gt;4&lt;/span&gt;&lt;/font&gt;" style="text;html=1;strokeColor=#6F0000;align=center;verticalAlign=middle;whiteSpace=wrap;rounded=0;shadow=0;glass=0;labelBackgroundColor=none;fillColor=#0000FF;fontStyle=0;labelBorderColor=none;fontColor=#FFFFFF;" vertex="1" parent="1">
          <mxGeometry x="1610" y="1940" width="20" height="10" as="geometry" />
        </mxCell>
        <mxCell id="SjNW3VqROAEUk7hYalKs-233" value="" style="rounded=1;whiteSpace=wrap;html=1;shadow=0;glass=1;dashed=1;dashPattern=1 1;labelBackgroundColor=none;strokeWidth=4;fillColor=none;strokeColor=#FF8000;" vertex="1" parent="1">
          <mxGeometry x="1620" y="2390" width="260" height="420" as="geometry" />
        </mxCell>
        <mxCell id="SjNW3VqROAEUk7hYalKs-235" value="Relationship Type (40,A010)" style="text;html=1;strokeColor=#9673a6;fillColor=#e1d5e7;align=left;verticalAlign=middle;whiteSpace=wrap;rounded=0;glass=0;shadow=0;sketch=0;labelBackgroundColor=none;labelBorderColor=none;" vertex="1" parent="1">
          <mxGeometry x="1630" y="2400" width="200" height="20" as="geometry" />
        </mxCell>
        <mxCell id="SjNW3VqROAEUk7hYalKs-236" value="Value Type (40,A040)" style="text;html=1;strokeColor=#9673a6;fillColor=#e1d5e7;align=left;verticalAlign=middle;whiteSpace=wrap;rounded=0;glass=0;shadow=0;sketch=0;labelBackgroundColor=none;labelBorderColor=none;" vertex="1" parent="1">
          <mxGeometry x="1630" y="2440" width="200" height="20" as="geometry" />
        </mxCell>
        <mxCell id="SjNW3VqROAEUk7hYalKs-237" value="Concept Name Code Sequence (40,A043)" style="text;html=1;strokeColor=#9673a6;fillColor=#e1d5e7;align=left;verticalAlign=middle;whiteSpace=wrap;rounded=0;glass=0;shadow=0;sketch=0;labelBackgroundColor=none;labelBorderColor=none;" vertex="1" parent="1">
          <mxGeometry x="1630" y="2480" width="200" height="20" as="geometry" />
        </mxCell>
        <mxCell id="SjNW3VqROAEUk7hYalKs-238" value="Code Value (8,100)" style="text;html=1;strokeColor=#6D1F00;fillColor=#a0522d;align=left;verticalAlign=middle;whiteSpace=wrap;rounded=0;glass=0;shadow=0;sketch=0;labelBackgroundColor=none;labelBorderColor=none;fontColor=#ffffff;" vertex="1" parent="1">
          <mxGeometry x="1670" y="2520" width="200" height="20" as="geometry" />
        </mxCell>
        <mxCell id="SjNW3VqROAEUk7hYalKs-239" value="Coding Scheme Designator (8,102)" style="text;html=1;strokeColor=#6D1F00;fillColor=#a0522d;align=left;verticalAlign=middle;whiteSpace=wrap;rounded=0;glass=0;shadow=0;sketch=0;labelBackgroundColor=none;labelBorderColor=none;fontColor=#ffffff;" vertex="1" parent="1">
          <mxGeometry x="1670" y="2560" width="200" height="20" as="geometry" />
        </mxCell>
        <mxCell id="SjNW3VqROAEUk7hYalKs-240" value="Code Meaning (8,104)" style="text;html=1;strokeColor=#6D1F00;fillColor=#a0522d;align=left;verticalAlign=middle;whiteSpace=wrap;rounded=0;glass=0;shadow=0;sketch=0;labelBackgroundColor=none;labelBorderColor=none;fontColor=#ffffff;" vertex="1" parent="1">
          <mxGeometry x="1670" y="2600" width="200" height="20" as="geometry" />
        </mxCell>
        <mxCell id="SjNW3VqROAEUk7hYalKs-241" value="Concept Code Sequence (40,A168)" style="text;html=1;strokeColor=#9673a6;fillColor=#e1d5e7;align=left;verticalAlign=middle;whiteSpace=wrap;rounded=0;glass=0;shadow=0;sketch=0;labelBackgroundColor=none;labelBorderColor=none;" vertex="1" parent="1">
          <mxGeometry x="1630" y="2640" width="200" height="20" as="geometry" />
        </mxCell>
        <mxCell id="SjNW3VqROAEUk7hYalKs-242" value="Code Value (8,100)" style="text;html=1;strokeColor=#6D1F00;fillColor=#a0522d;align=left;verticalAlign=middle;whiteSpace=wrap;rounded=0;glass=0;shadow=0;sketch=0;labelBackgroundColor=none;labelBorderColor=none;fontColor=#ffffff;" vertex="1" parent="1">
          <mxGeometry x="1670" y="2680" width="200" height="20" as="geometry" />
        </mxCell>
        <mxCell id="SjNW3VqROAEUk7hYalKs-243" value="Coding Scheme Designator (8,102)" style="text;html=1;strokeColor=#6D1F00;fillColor=#a0522d;align=left;verticalAlign=middle;whiteSpace=wrap;rounded=0;glass=0;shadow=0;sketch=0;labelBackgroundColor=none;labelBorderColor=none;fontColor=#ffffff;" vertex="1" parent="1">
          <mxGeometry x="1670" y="2720" width="200" height="20" as="geometry" />
        </mxCell>
        <mxCell id="SjNW3VqROAEUk7hYalKs-244" value="Code Meaning (8,104)" style="text;html=1;strokeColor=#6D1F00;fillColor=#a0522d;align=left;verticalAlign=middle;whiteSpace=wrap;rounded=0;glass=0;shadow=0;sketch=0;labelBackgroundColor=none;labelBorderColor=none;fontColor=#ffffff;" vertex="1" parent="1">
          <mxGeometry x="1670" y="2760" width="200" height="20" as="geometry" />
        </mxCell>
        <mxCell id="SjNW3VqROAEUk7hYalKs-245" value="Relationship Type (40,A010)" style="text;html=1;strokeColor=#9673a6;fillColor=#e1d5e7;align=left;verticalAlign=middle;whiteSpace=wrap;rounded=0;glass=0;shadow=0;sketch=0;labelBackgroundColor=none;labelBorderColor=none;" vertex="1" parent="1">
          <mxGeometry x="1630" y="2400" width="200" height="20" as="geometry" />
        </mxCell>
        <mxCell id="SjNW3VqROAEUk7hYalKs-247" value="Relationship Type (40,A010)" style="text;html=1;strokeColor=#9673a6;fillColor=#e1d5e7;align=left;verticalAlign=middle;whiteSpace=wrap;rounded=0;glass=0;shadow=0;sketch=0;labelBackgroundColor=none;labelBorderColor=none;" vertex="1" parent="1">
          <mxGeometry x="1630" y="2400" width="200" height="20" as="geometry" />
        </mxCell>
        <mxCell id="SjNW3VqROAEUk7hYalKs-248" value="Value Type (40,A040)" style="text;html=1;strokeColor=#9673a6;fillColor=#e1d5e7;align=left;verticalAlign=middle;whiteSpace=wrap;rounded=0;glass=0;shadow=0;sketch=0;labelBackgroundColor=none;labelBorderColor=none;" vertex="1" parent="1">
          <mxGeometry x="1630" y="2440" width="200" height="20" as="geometry" />
        </mxCell>
        <mxCell id="SjNW3VqROAEUk7hYalKs-249" value="Concept Name Code Sequence (40,A043)" style="text;html=1;strokeColor=#9673a6;fillColor=#e1d5e7;align=left;verticalAlign=middle;whiteSpace=wrap;rounded=0;glass=0;shadow=0;sketch=0;labelBackgroundColor=none;labelBorderColor=none;" vertex="1" parent="1">
          <mxGeometry x="1630" y="2480" width="200" height="20" as="geometry" />
        </mxCell>
        <mxCell id="SjNW3VqROAEUk7hYalKs-250" value="Code Value (8,100)" style="text;html=1;strokeColor=#6D1F00;fillColor=#a0522d;align=left;verticalAlign=middle;whiteSpace=wrap;rounded=0;glass=0;shadow=0;sketch=0;labelBackgroundColor=none;labelBorderColor=none;fontColor=#ffffff;" vertex="1" parent="1">
          <mxGeometry x="1670" y="2520" width="200" height="20" as="geometry" />
        </mxCell>
        <mxCell id="SjNW3VqROAEUk7hYalKs-251" value="Coding Scheme Designator (8,102)" style="text;html=1;strokeColor=#6D1F00;fillColor=#a0522d;align=left;verticalAlign=middle;whiteSpace=wrap;rounded=0;glass=0;shadow=0;sketch=0;labelBackgroundColor=none;labelBorderColor=none;fontColor=#ffffff;" vertex="1" parent="1">
          <mxGeometry x="1670" y="2560" width="200" height="20" as="geometry" />
        </mxCell>
        <mxCell id="SjNW3VqROAEUk7hYalKs-252" value="&lt;font face=&quot;monospace&quot;&gt;&lt;span&gt;5&lt;/span&gt;&lt;/font&gt;" style="text;html=1;strokeColor=#6F0000;align=center;verticalAlign=middle;whiteSpace=wrap;rounded=0;shadow=0;glass=0;labelBackgroundColor=none;fillColor=#0000FF;fontStyle=0;labelBorderColor=none;fontColor=#FFFFFF;" vertex="1" parent="1">
          <mxGeometry x="1610" y="2390" width="20" height="10" as="geometry" />
        </mxCell>
        <mxCell id="SjNW3VqROAEUk7hYalKs-253" value="" style="rounded=1;whiteSpace=wrap;html=1;shadow=0;glass=1;dashed=1;dashPattern=1 1;labelBackgroundColor=none;strokeWidth=4;fillColor=none;strokeColor=#33FF99;" vertex="1" parent="1">
          <mxGeometry x="1625" y="2840" width="260" height="380" as="geometry" />
        </mxCell>
        <mxCell id="SjNW3VqROAEUk7hYalKs-254" value="Relationship Type (40,A010)" style="text;html=1;strokeColor=#9673a6;fillColor=#e1d5e7;align=left;verticalAlign=middle;whiteSpace=wrap;rounded=0;glass=0;shadow=0;sketch=0;labelBackgroundColor=none;labelBorderColor=none;" vertex="1" parent="1">
          <mxGeometry x="1635" y="2850" width="200" height="20" as="geometry" />
        </mxCell>
        <mxCell id="SjNW3VqROAEUk7hYalKs-256" value="Concept Name Code Sequence (40,A043)" style="text;html=1;strokeColor=#9673a6;fillColor=#e1d5e7;align=left;verticalAlign=middle;whiteSpace=wrap;rounded=0;glass=0;shadow=0;sketch=0;labelBackgroundColor=none;labelBorderColor=none;" vertex="1" parent="1">
          <mxGeometry x="1635" y="3010" width="200" height="20" as="geometry" />
        </mxCell>
        <mxCell id="SjNW3VqROAEUk7hYalKs-260" value="Concept Name Code Sequence (40,A043)" style="text;html=1;strokeColor=#9673a6;fillColor=#e1d5e7;align=left;verticalAlign=middle;whiteSpace=wrap;rounded=0;glass=0;shadow=0;sketch=0;labelBackgroundColor=none;labelBorderColor=none;" vertex="1" parent="1">
          <mxGeometry x="1635" y="3050" width="200" height="20" as="geometry" />
        </mxCell>
        <mxCell id="SjNW3VqROAEUk7hYalKs-261" value="Code Value (8,100)" style="text;html=1;strokeColor=#6D1F00;fillColor=#a0522d;align=left;verticalAlign=middle;whiteSpace=wrap;rounded=0;glass=0;shadow=0;sketch=0;labelBackgroundColor=none;labelBorderColor=none;fontColor=#ffffff;" vertex="1" parent="1">
          <mxGeometry x="1675" y="3090" width="200" height="20" as="geometry" />
        </mxCell>
        <mxCell id="SjNW3VqROAEUk7hYalKs-262" value="Coding Scheme Designator (8,102)" style="text;html=1;strokeColor=#6D1F00;fillColor=#a0522d;align=left;verticalAlign=middle;whiteSpace=wrap;rounded=0;glass=0;shadow=0;sketch=0;labelBackgroundColor=none;labelBorderColor=none;fontColor=#ffffff;" vertex="1" parent="1">
          <mxGeometry x="1675" y="3130" width="200" height="20" as="geometry" />
        </mxCell>
        <mxCell id="SjNW3VqROAEUk7hYalKs-263" value="Code Meaning (8,104)" style="text;html=1;strokeColor=#6D1F00;fillColor=#a0522d;align=left;verticalAlign=middle;whiteSpace=wrap;rounded=0;glass=0;shadow=0;sketch=0;labelBackgroundColor=none;labelBorderColor=none;fontColor=#ffffff;" vertex="1" parent="1">
          <mxGeometry x="1675" y="3170" width="200" height="20" as="geometry" />
        </mxCell>
        <mxCell id="SjNW3VqROAEUk7hYalKs-264" value="Relationship Type (40,A010)" style="text;html=1;strokeColor=#9673a6;fillColor=#e1d5e7;align=left;verticalAlign=middle;whiteSpace=wrap;rounded=0;glass=0;shadow=0;sketch=0;labelBackgroundColor=none;labelBorderColor=none;" vertex="1" parent="1">
          <mxGeometry x="1635" y="2850" width="200" height="20" as="geometry" />
        </mxCell>
        <mxCell id="SjNW3VqROAEUk7hYalKs-265" value="Referenced SOP Sequence (8,1199)" style="text;html=1;strokeColor=#9673a6;fillColor=#e1d5e7;align=left;verticalAlign=middle;whiteSpace=wrap;rounded=0;glass=0;shadow=0;sketch=0;labelBackgroundColor=none;labelBorderColor=none;" vertex="1" parent="1">
          <mxGeometry x="1635" y="2850" width="200" height="20" as="geometry" />
        </mxCell>
        <mxCell id="SjNW3VqROAEUk7hYalKs-266" value="Relationship Type (40,A010)" style="text;html=1;strokeColor=#9673a6;fillColor=#e1d5e7;align=left;verticalAlign=middle;whiteSpace=wrap;rounded=0;glass=0;shadow=0;sketch=0;labelBackgroundColor=none;labelBorderColor=none;" vertex="1" parent="1">
          <mxGeometry x="1635" y="2970" width="200" height="20" as="geometry" />
        </mxCell>
        <mxCell id="SjNW3VqROAEUk7hYalKs-270" value="&lt;font face=&quot;monospace&quot;&gt;&lt;span&gt;6&lt;/span&gt;&lt;/font&gt;" style="text;html=1;strokeColor=#6F0000;align=center;verticalAlign=middle;whiteSpace=wrap;rounded=0;shadow=0;glass=0;labelBackgroundColor=none;fillColor=#0000FF;fontStyle=0;labelBorderColor=none;fontColor=#FFFFFF;" vertex="1" parent="1">
          <mxGeometry x="1615" y="2840" width="20" height="10" as="geometry" />
        </mxCell>
        <mxCell id="SjNW3VqROAEUk7hYalKs-289" value="Referenced SOP Class UID (8,1150)" style="text;html=1;strokeColor=#6D1F00;fillColor=#a0522d;align=left;verticalAlign=middle;whiteSpace=wrap;rounded=0;glass=0;shadow=0;sketch=0;labelBackgroundColor=none;labelBorderColor=none;fontColor=#ffffff;" vertex="1" parent="1">
          <mxGeometry x="1675" y="2890" width="200" height="20" as="geometry" />
        </mxCell>
        <mxCell id="SjNW3VqROAEUk7hYalKs-290" value="Referenced SOP Instance UID (8,1155)" style="text;html=1;strokeColor=#6D1F00;fillColor=#a0522d;align=left;verticalAlign=middle;whiteSpace=wrap;rounded=0;glass=0;shadow=0;sketch=0;labelBackgroundColor=none;labelBorderColor=none;fontColor=#ffffff;" vertex="1" parent="1">
          <mxGeometry x="1675" y="2930" width="200" height="20" as="geometry" />
        </mxCell>
        <mxCell id="SjNW3VqROAEUk7hYalKs-291" value="" style="rounded=1;whiteSpace=wrap;html=1;shadow=0;glass=1;dashed=1;dashPattern=1 1;labelBackgroundColor=none;strokeWidth=4;fillColor=none;strokeColor=#3399FF;" vertex="1" parent="1">
          <mxGeometry x="1630" y="3250" width="290" height="490" as="geometry" />
        </mxCell>
        <mxCell id="SjNW3VqROAEUk7hYalKs-292" value="Relationship Type (40,A010)" style="text;html=1;strokeColor=#9673a6;fillColor=#e1d5e7;align=left;verticalAlign=middle;whiteSpace=wrap;rounded=0;glass=0;shadow=0;sketch=0;labelBackgroundColor=none;labelBorderColor=none;" vertex="1" parent="1">
          <mxGeometry x="1640" y="3260" width="200" height="20" as="geometry" />
        </mxCell>
        <mxCell id="SjNW3VqROAEUk7hYalKs-293" value="Value Type (40,A040)" style="text;html=1;strokeColor=#9673a6;fillColor=#e1d5e7;align=left;verticalAlign=middle;whiteSpace=wrap;rounded=0;glass=0;shadow=0;sketch=0;labelBackgroundColor=none;labelBorderColor=none;" vertex="1" parent="1">
          <mxGeometry x="1640" y="3300" width="200" height="20" as="geometry" />
        </mxCell>
        <mxCell id="SjNW3VqROAEUk7hYalKs-294" value="Concept Name Code Sequence (40,A043)" style="text;html=1;strokeColor=#9673a6;fillColor=#e1d5e7;align=left;verticalAlign=middle;whiteSpace=wrap;rounded=0;glass=0;shadow=0;sketch=0;labelBackgroundColor=none;labelBorderColor=none;" vertex="1" parent="1">
          <mxGeometry x="1640" y="3340" width="200" height="20" as="geometry" />
        </mxCell>
        <mxCell id="SjNW3VqROAEUk7hYalKs-295" value="Code Value (8,100)" style="text;html=1;strokeColor=#6D1F00;fillColor=#a0522d;align=left;verticalAlign=middle;whiteSpace=wrap;rounded=0;glass=0;shadow=0;sketch=0;labelBackgroundColor=none;labelBorderColor=none;fontColor=#ffffff;" vertex="1" parent="1">
          <mxGeometry x="1680" y="3380" width="200" height="20" as="geometry" />
        </mxCell>
        <mxCell id="SjNW3VqROAEUk7hYalKs-296" value="Coding Scheme Designator (8,102)" style="text;html=1;strokeColor=#6D1F00;fillColor=#a0522d;align=left;verticalAlign=middle;whiteSpace=wrap;rounded=0;glass=0;shadow=0;sketch=0;labelBackgroundColor=none;labelBorderColor=none;fontColor=#ffffff;" vertex="1" parent="1">
          <mxGeometry x="1680" y="3420" width="200" height="20" as="geometry" />
        </mxCell>
        <mxCell id="SjNW3VqROAEUk7hYalKs-297" value="Code Meaning (8,104)" style="text;html=1;strokeColor=#6D1F00;fillColor=#a0522d;align=left;verticalAlign=middle;whiteSpace=wrap;rounded=0;glass=0;shadow=0;sketch=0;labelBackgroundColor=none;labelBorderColor=none;fontColor=#ffffff;" vertex="1" parent="1">
          <mxGeometry x="1680" y="3460" width="200" height="20" as="geometry" />
        </mxCell>
        <mxCell id="SjNW3VqROAEUk7hYalKs-298" value="Measured Value Sequence (40,A043)" style="text;html=1;strokeColor=#9673a6;fillColor=#e1d5e7;align=left;verticalAlign=middle;whiteSpace=wrap;rounded=0;glass=0;shadow=0;sketch=0;labelBackgroundColor=none;labelBorderColor=none;" vertex="1" parent="1">
          <mxGeometry x="1640" y="3500" width="200" height="20" as="geometry" />
        </mxCell>
        <mxCell id="SjNW3VqROAEUk7hYalKs-299" value="Measured Units Code Sequence (40, 08EA)" style="text;html=1;strokeColor=#6D1F00;fillColor=#a0522d;align=left;verticalAlign=middle;whiteSpace=wrap;rounded=0;glass=0;shadow=0;sketch=0;labelBackgroundColor=none;labelBorderColor=none;fontColor=#ffffff;" vertex="1" parent="1">
          <mxGeometry x="1680" y="3540" width="200" height="20" as="geometry" />
        </mxCell>
        <mxCell id="SjNW3VqROAEUk7hYalKs-300" value="Numeric Value (40, A30A)" style="text;html=1;strokeColor=#6D1F00;fillColor=#a0522d;align=left;verticalAlign=middle;whiteSpace=wrap;rounded=0;glass=0;shadow=0;sketch=0;labelBackgroundColor=none;labelBorderColor=none;fontColor=#ffffff;" vertex="1" parent="1">
          <mxGeometry x="1680" y="3700" width="200" height="20" as="geometry" />
        </mxCell>
        <mxCell id="SjNW3VqROAEUk7hYalKs-302" value="Relationship Type (40,A010)" style="text;html=1;strokeColor=#9673a6;fillColor=#e1d5e7;align=left;verticalAlign=middle;whiteSpace=wrap;rounded=0;glass=0;shadow=0;sketch=0;labelBackgroundColor=none;labelBorderColor=none;" vertex="1" parent="1">
          <mxGeometry x="1640" y="3260" width="200" height="20" as="geometry" />
        </mxCell>
        <mxCell id="SjNW3VqROAEUk7hYalKs-303" value="Relationship Type (40,A010)" style="text;html=1;strokeColor=#9673a6;fillColor=#e1d5e7;align=left;verticalAlign=middle;whiteSpace=wrap;rounded=0;glass=0;shadow=0;sketch=0;labelBackgroundColor=none;labelBorderColor=none;" vertex="1" parent="1">
          <mxGeometry x="1640" y="3260" width="200" height="20" as="geometry" />
        </mxCell>
        <mxCell id="SjNW3VqROAEUk7hYalKs-304" value="Value Type (40,A040)" style="text;html=1;strokeColor=#9673a6;fillColor=#e1d5e7;align=left;verticalAlign=middle;whiteSpace=wrap;rounded=0;glass=0;shadow=0;sketch=0;labelBackgroundColor=none;labelBorderColor=none;" vertex="1" parent="1">
          <mxGeometry x="1640" y="3300" width="200" height="20" as="geometry" />
        </mxCell>
        <mxCell id="SjNW3VqROAEUk7hYalKs-305" value="Concept Name Code Sequence (40,A043)" style="text;html=1;strokeColor=#9673a6;fillColor=#e1d5e7;align=left;verticalAlign=middle;whiteSpace=wrap;rounded=0;glass=0;shadow=0;sketch=0;labelBackgroundColor=none;labelBorderColor=none;" vertex="1" parent="1">
          <mxGeometry x="1640" y="3340" width="200" height="20" as="geometry" />
        </mxCell>
        <mxCell id="SjNW3VqROAEUk7hYalKs-306" value="Code Value (8,100)" style="text;html=1;strokeColor=#6D1F00;fillColor=#a0522d;align=left;verticalAlign=middle;whiteSpace=wrap;rounded=0;glass=0;shadow=0;sketch=0;labelBackgroundColor=none;labelBorderColor=none;fontColor=#ffffff;" vertex="1" parent="1">
          <mxGeometry x="1680" y="3380" width="200" height="20" as="geometry" />
        </mxCell>
        <mxCell id="SjNW3VqROAEUk7hYalKs-307" value="Coding Scheme Designator (8,102)" style="text;html=1;strokeColor=#6D1F00;fillColor=#a0522d;align=left;verticalAlign=middle;whiteSpace=wrap;rounded=0;glass=0;shadow=0;sketch=0;labelBackgroundColor=none;labelBorderColor=none;fontColor=#ffffff;" vertex="1" parent="1">
          <mxGeometry x="1680" y="3420" width="200" height="20" as="geometry" />
        </mxCell>
        <mxCell id="SjNW3VqROAEUk7hYalKs-308" value="&lt;font face=&quot;monospace&quot;&gt;&lt;span&gt;7&lt;/span&gt;&lt;/font&gt;" style="text;html=1;strokeColor=#6F0000;align=center;verticalAlign=middle;whiteSpace=wrap;rounded=0;shadow=0;glass=0;labelBackgroundColor=none;fillColor=#0000FF;fontStyle=0;labelBorderColor=none;fontColor=#FFFFFF;" vertex="1" parent="1">
          <mxGeometry x="1620" y="3250" width="20" height="10" as="geometry" />
        </mxCell>
        <mxCell id="SjNW3VqROAEUk7hYalKs-309" value="Code Value (8,100)" style="text;html=1;strokeColor=#6D1F00;fillColor=#a0522d;align=left;verticalAlign=middle;whiteSpace=wrap;rounded=0;glass=0;shadow=0;sketch=0;labelBackgroundColor=none;labelBorderColor=none;fontColor=#ffffff;" vertex="1" parent="1">
          <mxGeometry x="1680" y="3380" width="200" height="20" as="geometry" />
        </mxCell>
        <mxCell id="SjNW3VqROAEUk7hYalKs-310" value="Coding Scheme Designator (8,102)" style="text;html=1;strokeColor=#6D1F00;fillColor=#a0522d;align=left;verticalAlign=middle;whiteSpace=wrap;rounded=0;glass=0;shadow=0;sketch=0;labelBackgroundColor=none;labelBorderColor=none;fontColor=#ffffff;" vertex="1" parent="1">
          <mxGeometry x="1680" y="3420" width="200" height="20" as="geometry" />
        </mxCell>
        <mxCell id="SjNW3VqROAEUk7hYalKs-311" value="Code Value (8,100)" style="text;html=1;strokeColor=#006EAF;fillColor=#1ba1e2;align=left;verticalAlign=middle;whiteSpace=wrap;rounded=0;glass=0;shadow=0;sketch=0;labelBackgroundColor=none;labelBorderColor=none;fontColor=#ffffff;" vertex="1" parent="1">
          <mxGeometry x="1720" y="3580" width="200" height="20" as="geometry" />
        </mxCell>
        <mxCell id="SjNW3VqROAEUk7hYalKs-312" value="Coding Scheme Designator (8,102)" style="text;html=1;strokeColor=#006EAF;fillColor=#1ba1e2;align=left;verticalAlign=middle;whiteSpace=wrap;rounded=0;glass=0;shadow=0;sketch=0;labelBackgroundColor=none;labelBorderColor=none;fontColor=#ffffff;" vertex="1" parent="1">
          <mxGeometry x="1720" y="3620" width="200" height="20" as="geometry" />
        </mxCell>
        <mxCell id="SjNW3VqROAEUk7hYalKs-313" value="Code Meaning (8,104)" style="text;html=1;strokeColor=#006EAF;fillColor=#1ba1e2;align=left;verticalAlign=middle;whiteSpace=wrap;rounded=0;glass=0;shadow=0;sketch=0;labelBackgroundColor=none;labelBorderColor=none;fontColor=#ffffff;" vertex="1" parent="1">
          <mxGeometry x="1720" y="3660" width="200" height="20" as="geometry" />
        </mxCell>
        <mxCell id="SjNW3VqROAEUk7hYalKs-336" value="" style="rounded=1;whiteSpace=wrap;html=1;shadow=0;glass=1;dashed=1;dashPattern=1 1;labelBackgroundColor=none;strokeWidth=4;fillColor=none;strokeColor=#00994D;" vertex="1" parent="1">
          <mxGeometry x="1625" y="3770" width="290" height="490" as="geometry" />
        </mxCell>
        <mxCell id="SjNW3VqROAEUk7hYalKs-337" value="Relationship Type (40,A010)" style="text;html=1;strokeColor=#9673a6;fillColor=#e1d5e7;align=left;verticalAlign=middle;whiteSpace=wrap;rounded=0;glass=0;shadow=0;sketch=0;labelBackgroundColor=none;labelBorderColor=none;" vertex="1" parent="1">
          <mxGeometry x="1635" y="3780" width="200" height="20" as="geometry" />
        </mxCell>
        <mxCell id="SjNW3VqROAEUk7hYalKs-338" value="Value Type (40,A040)" style="text;html=1;strokeColor=#9673a6;fillColor=#e1d5e7;align=left;verticalAlign=middle;whiteSpace=wrap;rounded=0;glass=0;shadow=0;sketch=0;labelBackgroundColor=none;labelBorderColor=none;" vertex="1" parent="1">
          <mxGeometry x="1635" y="3820" width="200" height="20" as="geometry" />
        </mxCell>
        <mxCell id="SjNW3VqROAEUk7hYalKs-339" value="Concept Name Code Sequence (40,A043)" style="text;html=1;strokeColor=#9673a6;fillColor=#e1d5e7;align=left;verticalAlign=middle;whiteSpace=wrap;rounded=0;glass=0;shadow=0;sketch=0;labelBackgroundColor=none;labelBorderColor=none;" vertex="1" parent="1">
          <mxGeometry x="1635" y="3860" width="200" height="20" as="geometry" />
        </mxCell>
        <mxCell id="SjNW3VqROAEUk7hYalKs-340" value="Code Value (8,100)" style="text;html=1;strokeColor=#6D1F00;fillColor=#a0522d;align=left;verticalAlign=middle;whiteSpace=wrap;rounded=0;glass=0;shadow=0;sketch=0;labelBackgroundColor=none;labelBorderColor=none;fontColor=#ffffff;" vertex="1" parent="1">
          <mxGeometry x="1675" y="3900" width="200" height="20" as="geometry" />
        </mxCell>
        <mxCell id="SjNW3VqROAEUk7hYalKs-341" value="Coding Scheme Designator (8,102)" style="text;html=1;strokeColor=#6D1F00;fillColor=#a0522d;align=left;verticalAlign=middle;whiteSpace=wrap;rounded=0;glass=0;shadow=0;sketch=0;labelBackgroundColor=none;labelBorderColor=none;fontColor=#ffffff;" vertex="1" parent="1">
          <mxGeometry x="1675" y="3940" width="200" height="20" as="geometry" />
        </mxCell>
        <mxCell id="SjNW3VqROAEUk7hYalKs-342" value="Code Meaning (8,104)" style="text;html=1;strokeColor=#6D1F00;fillColor=#a0522d;align=left;verticalAlign=middle;whiteSpace=wrap;rounded=0;glass=0;shadow=0;sketch=0;labelBackgroundColor=none;labelBorderColor=none;fontColor=#ffffff;" vertex="1" parent="1">
          <mxGeometry x="1675" y="3980" width="200" height="20" as="geometry" />
        </mxCell>
        <mxCell id="SjNW3VqROAEUk7hYalKs-343" value="Measured Value Sequence (40,A043)" style="text;html=1;strokeColor=#9673a6;fillColor=#e1d5e7;align=left;verticalAlign=middle;whiteSpace=wrap;rounded=0;glass=0;shadow=0;sketch=0;labelBackgroundColor=none;labelBorderColor=none;" vertex="1" parent="1">
          <mxGeometry x="1635" y="4020" width="200" height="20" as="geometry" />
        </mxCell>
        <mxCell id="SjNW3VqROAEUk7hYalKs-344" value="Measured Units Code Sequence (40, 08EA)" style="text;html=1;strokeColor=#6D1F00;fillColor=#a0522d;align=left;verticalAlign=middle;whiteSpace=wrap;rounded=0;glass=0;shadow=0;sketch=0;labelBackgroundColor=none;labelBorderColor=none;fontColor=#ffffff;" vertex="1" parent="1">
          <mxGeometry x="1675" y="4060" width="200" height="20" as="geometry" />
        </mxCell>
        <mxCell id="SjNW3VqROAEUk7hYalKs-345" value="Numeric Value (40, A30A)" style="text;html=1;strokeColor=#6D1F00;fillColor=#a0522d;align=left;verticalAlign=middle;whiteSpace=wrap;rounded=0;glass=0;shadow=0;sketch=0;labelBackgroundColor=none;labelBorderColor=none;fontColor=#ffffff;" vertex="1" parent="1">
          <mxGeometry x="1675" y="4220" width="200" height="20" as="geometry" />
        </mxCell>
        <mxCell id="SjNW3VqROAEUk7hYalKs-346" value="Relationship Type (40,A010)" style="text;html=1;strokeColor=#9673a6;fillColor=#e1d5e7;align=left;verticalAlign=middle;whiteSpace=wrap;rounded=0;glass=0;shadow=0;sketch=0;labelBackgroundColor=none;labelBorderColor=none;" vertex="1" parent="1">
          <mxGeometry x="1635" y="3780" width="200" height="20" as="geometry" />
        </mxCell>
        <mxCell id="SjNW3VqROAEUk7hYalKs-347" value="Relationship Type (40,A010)" style="text;html=1;strokeColor=#9673a6;fillColor=#e1d5e7;align=left;verticalAlign=middle;whiteSpace=wrap;rounded=0;glass=0;shadow=0;sketch=0;labelBackgroundColor=none;labelBorderColor=none;" vertex="1" parent="1">
          <mxGeometry x="1635" y="3780" width="200" height="20" as="geometry" />
        </mxCell>
        <mxCell id="SjNW3VqROAEUk7hYalKs-348" value="Value Type (40,A040)" style="text;html=1;strokeColor=#9673a6;fillColor=#e1d5e7;align=left;verticalAlign=middle;whiteSpace=wrap;rounded=0;glass=0;shadow=0;sketch=0;labelBackgroundColor=none;labelBorderColor=none;" vertex="1" parent="1">
          <mxGeometry x="1635" y="3820" width="200" height="20" as="geometry" />
        </mxCell>
        <mxCell id="SjNW3VqROAEUk7hYalKs-349" value="Concept Name Code Sequence (40,A043)" style="text;html=1;strokeColor=#9673a6;fillColor=#e1d5e7;align=left;verticalAlign=middle;whiteSpace=wrap;rounded=0;glass=0;shadow=0;sketch=0;labelBackgroundColor=none;labelBorderColor=none;" vertex="1" parent="1">
          <mxGeometry x="1635" y="3860" width="200" height="20" as="geometry" />
        </mxCell>
        <mxCell id="SjNW3VqROAEUk7hYalKs-350" value="Code Value (8,100)" style="text;html=1;strokeColor=#6D1F00;fillColor=#a0522d;align=left;verticalAlign=middle;whiteSpace=wrap;rounded=0;glass=0;shadow=0;sketch=0;labelBackgroundColor=none;labelBorderColor=none;fontColor=#ffffff;" vertex="1" parent="1">
          <mxGeometry x="1675" y="3900" width="200" height="20" as="geometry" />
        </mxCell>
        <mxCell id="SjNW3VqROAEUk7hYalKs-351" value="Coding Scheme Designator (8,102)" style="text;html=1;strokeColor=#6D1F00;fillColor=#a0522d;align=left;verticalAlign=middle;whiteSpace=wrap;rounded=0;glass=0;shadow=0;sketch=0;labelBackgroundColor=none;labelBorderColor=none;fontColor=#ffffff;" vertex="1" parent="1">
          <mxGeometry x="1675" y="3940" width="200" height="20" as="geometry" />
        </mxCell>
        <mxCell id="SjNW3VqROAEUk7hYalKs-352" value="&lt;font face=&quot;monospace&quot;&gt;&lt;span&gt;8&lt;/span&gt;&lt;/font&gt;" style="text;html=1;strokeColor=#6F0000;align=center;verticalAlign=middle;whiteSpace=wrap;rounded=0;shadow=0;glass=0;labelBackgroundColor=none;fillColor=#0000FF;fontStyle=0;labelBorderColor=none;fontColor=#FFFFFF;" vertex="1" parent="1">
          <mxGeometry x="1615" y="3770" width="20" height="10" as="geometry" />
        </mxCell>
        <mxCell id="SjNW3VqROAEUk7hYalKs-353" value="Code Value (8,100)" style="text;html=1;strokeColor=#6D1F00;fillColor=#a0522d;align=left;verticalAlign=middle;whiteSpace=wrap;rounded=0;glass=0;shadow=0;sketch=0;labelBackgroundColor=none;labelBorderColor=none;fontColor=#ffffff;" vertex="1" parent="1">
          <mxGeometry x="1675" y="3900" width="200" height="20" as="geometry" />
        </mxCell>
        <mxCell id="SjNW3VqROAEUk7hYalKs-354" value="Coding Scheme Designator (8,102)" style="text;html=1;strokeColor=#6D1F00;fillColor=#a0522d;align=left;verticalAlign=middle;whiteSpace=wrap;rounded=0;glass=0;shadow=0;sketch=0;labelBackgroundColor=none;labelBorderColor=none;fontColor=#ffffff;" vertex="1" parent="1">
          <mxGeometry x="1675" y="3940" width="200" height="20" as="geometry" />
        </mxCell>
        <mxCell id="SjNW3VqROAEUk7hYalKs-355" value="Code Value (8,100)" style="text;html=1;strokeColor=#006EAF;fillColor=#1ba1e2;align=left;verticalAlign=middle;whiteSpace=wrap;rounded=0;glass=0;shadow=0;sketch=0;labelBackgroundColor=none;labelBorderColor=none;fontColor=#ffffff;" vertex="1" parent="1">
          <mxGeometry x="1715" y="4100" width="200" height="20" as="geometry" />
        </mxCell>
        <mxCell id="SjNW3VqROAEUk7hYalKs-356" value="Coding Scheme Designator (8,102)" style="text;html=1;strokeColor=#006EAF;fillColor=#1ba1e2;align=left;verticalAlign=middle;whiteSpace=wrap;rounded=0;glass=0;shadow=0;sketch=0;labelBackgroundColor=none;labelBorderColor=none;fontColor=#ffffff;" vertex="1" parent="1">
          <mxGeometry x="1715" y="4140" width="200" height="20" as="geometry" />
        </mxCell>
        <mxCell id="SjNW3VqROAEUk7hYalKs-357" value="Code Meaning (8,104)" style="text;html=1;strokeColor=#006EAF;fillColor=#1ba1e2;align=left;verticalAlign=middle;whiteSpace=wrap;rounded=0;glass=0;shadow=0;sketch=0;labelBackgroundColor=none;labelBorderColor=none;fontColor=#ffffff;" vertex="1" parent="1">
          <mxGeometry x="1715" y="4180" width="200" height="20" as="geometry" />
        </mxCell>
        <mxCell id="SjNW3VqROAEUk7hYalKs-358" value="" style="rounded=1;whiteSpace=wrap;html=1;shadow=0;glass=1;dashed=1;dashPattern=1 1;labelBackgroundColor=none;strokeWidth=4;fillColor=none;strokeColor=#999900;" vertex="1" parent="1">
          <mxGeometry x="1625" y="4290" width="290" height="490" as="geometry" />
        </mxCell>
        <mxCell id="SjNW3VqROAEUk7hYalKs-359" value="Relationship Type (40,A010)" style="text;html=1;strokeColor=#9673a6;fillColor=#e1d5e7;align=left;verticalAlign=middle;whiteSpace=wrap;rounded=0;glass=0;shadow=0;sketch=0;labelBackgroundColor=none;labelBorderColor=none;" vertex="1" parent="1">
          <mxGeometry x="1635" y="4300" width="200" height="20" as="geometry" />
        </mxCell>
        <mxCell id="SjNW3VqROAEUk7hYalKs-360" value="Value Type (40,A040)" style="text;html=1;strokeColor=#9673a6;fillColor=#e1d5e7;align=left;verticalAlign=middle;whiteSpace=wrap;rounded=0;glass=0;shadow=0;sketch=0;labelBackgroundColor=none;labelBorderColor=none;" vertex="1" parent="1">
          <mxGeometry x="1635" y="4340" width="200" height="20" as="geometry" />
        </mxCell>
        <mxCell id="SjNW3VqROAEUk7hYalKs-361" value="Concept Name Code Sequence (40,A043)" style="text;html=1;strokeColor=#9673a6;fillColor=#e1d5e7;align=left;verticalAlign=middle;whiteSpace=wrap;rounded=0;glass=0;shadow=0;sketch=0;labelBackgroundColor=none;labelBorderColor=none;" vertex="1" parent="1">
          <mxGeometry x="1635" y="4380" width="200" height="20" as="geometry" />
        </mxCell>
        <mxCell id="SjNW3VqROAEUk7hYalKs-362" value="Code Value (8,100)" style="text;html=1;strokeColor=#6D1F00;fillColor=#a0522d;align=left;verticalAlign=middle;whiteSpace=wrap;rounded=0;glass=0;shadow=0;sketch=0;labelBackgroundColor=none;labelBorderColor=none;fontColor=#ffffff;" vertex="1" parent="1">
          <mxGeometry x="1675" y="4420" width="200" height="20" as="geometry" />
        </mxCell>
        <mxCell id="SjNW3VqROAEUk7hYalKs-363" value="Coding Scheme Designator (8,102)" style="text;html=1;strokeColor=#6D1F00;fillColor=#a0522d;align=left;verticalAlign=middle;whiteSpace=wrap;rounded=0;glass=0;shadow=0;sketch=0;labelBackgroundColor=none;labelBorderColor=none;fontColor=#ffffff;" vertex="1" parent="1">
          <mxGeometry x="1675" y="4460" width="200" height="20" as="geometry" />
        </mxCell>
        <mxCell id="SjNW3VqROAEUk7hYalKs-364" value="Code Meaning (8,104)" style="text;html=1;strokeColor=#6D1F00;fillColor=#a0522d;align=left;verticalAlign=middle;whiteSpace=wrap;rounded=0;glass=0;shadow=0;sketch=0;labelBackgroundColor=none;labelBorderColor=none;fontColor=#ffffff;" vertex="1" parent="1">
          <mxGeometry x="1675" y="4500" width="200" height="20" as="geometry" />
        </mxCell>
        <mxCell id="SjNW3VqROAEUk7hYalKs-365" value="Measured Value Sequence (40,A043)" style="text;html=1;strokeColor=#9673a6;fillColor=#e1d5e7;align=left;verticalAlign=middle;whiteSpace=wrap;rounded=0;glass=0;shadow=0;sketch=0;labelBackgroundColor=none;labelBorderColor=none;" vertex="1" parent="1">
          <mxGeometry x="1635" y="4540" width="200" height="20" as="geometry" />
        </mxCell>
        <mxCell id="SjNW3VqROAEUk7hYalKs-366" value="Measured Units Code Sequence (40, 08EA)" style="text;html=1;strokeColor=#6D1F00;fillColor=#a0522d;align=left;verticalAlign=middle;whiteSpace=wrap;rounded=0;glass=0;shadow=0;sketch=0;labelBackgroundColor=none;labelBorderColor=none;fontColor=#ffffff;" vertex="1" parent="1">
          <mxGeometry x="1675" y="4580" width="200" height="20" as="geometry" />
        </mxCell>
        <mxCell id="SjNW3VqROAEUk7hYalKs-367" value="Numeric Value (40, A30A)" style="text;html=1;strokeColor=#6D1F00;fillColor=#a0522d;align=left;verticalAlign=middle;whiteSpace=wrap;rounded=0;glass=0;shadow=0;sketch=0;labelBackgroundColor=none;labelBorderColor=none;fontColor=#ffffff;" vertex="1" parent="1">
          <mxGeometry x="1675" y="4740" width="200" height="20" as="geometry" />
        </mxCell>
        <mxCell id="SjNW3VqROAEUk7hYalKs-368" value="Relationship Type (40,A010)" style="text;html=1;strokeColor=#9673a6;fillColor=#e1d5e7;align=left;verticalAlign=middle;whiteSpace=wrap;rounded=0;glass=0;shadow=0;sketch=0;labelBackgroundColor=none;labelBorderColor=none;" vertex="1" parent="1">
          <mxGeometry x="1635" y="4300" width="200" height="20" as="geometry" />
        </mxCell>
        <mxCell id="SjNW3VqROAEUk7hYalKs-369" value="Relationship Type (40,A010)" style="text;html=1;strokeColor=#9673a6;fillColor=#e1d5e7;align=left;verticalAlign=middle;whiteSpace=wrap;rounded=0;glass=0;shadow=0;sketch=0;labelBackgroundColor=none;labelBorderColor=none;" vertex="1" parent="1">
          <mxGeometry x="1635" y="4300" width="200" height="20" as="geometry" />
        </mxCell>
        <mxCell id="SjNW3VqROAEUk7hYalKs-370" value="Value Type (40,A040)" style="text;html=1;strokeColor=#9673a6;fillColor=#e1d5e7;align=left;verticalAlign=middle;whiteSpace=wrap;rounded=0;glass=0;shadow=0;sketch=0;labelBackgroundColor=none;labelBorderColor=none;" vertex="1" parent="1">
          <mxGeometry x="1635" y="4340" width="200" height="20" as="geometry" />
        </mxCell>
        <mxCell id="SjNW3VqROAEUk7hYalKs-371" value="Concept Name Code Sequence (40,A043)" style="text;html=1;strokeColor=#9673a6;fillColor=#e1d5e7;align=left;verticalAlign=middle;whiteSpace=wrap;rounded=0;glass=0;shadow=0;sketch=0;labelBackgroundColor=none;labelBorderColor=none;" vertex="1" parent="1">
          <mxGeometry x="1635" y="4380" width="200" height="20" as="geometry" />
        </mxCell>
        <mxCell id="SjNW3VqROAEUk7hYalKs-372" value="Code Value (8,100)" style="text;html=1;strokeColor=#6D1F00;fillColor=#a0522d;align=left;verticalAlign=middle;whiteSpace=wrap;rounded=0;glass=0;shadow=0;sketch=0;labelBackgroundColor=none;labelBorderColor=none;fontColor=#ffffff;" vertex="1" parent="1">
          <mxGeometry x="1675" y="4420" width="200" height="20" as="geometry" />
        </mxCell>
        <mxCell id="SjNW3VqROAEUk7hYalKs-373" value="Coding Scheme Designator (8,102)" style="text;html=1;strokeColor=#6D1F00;fillColor=#a0522d;align=left;verticalAlign=middle;whiteSpace=wrap;rounded=0;glass=0;shadow=0;sketch=0;labelBackgroundColor=none;labelBorderColor=none;fontColor=#ffffff;" vertex="1" parent="1">
          <mxGeometry x="1675" y="4460" width="200" height="20" as="geometry" />
        </mxCell>
        <mxCell id="SjNW3VqROAEUk7hYalKs-374" value="&lt;font face=&quot;monospace&quot;&gt;&lt;span&gt;9&lt;/span&gt;&lt;/font&gt;" style="text;html=1;strokeColor=#6F0000;align=center;verticalAlign=middle;whiteSpace=wrap;rounded=0;shadow=0;glass=0;labelBackgroundColor=none;fillColor=#0000FF;fontStyle=0;labelBorderColor=none;fontColor=#FFFFFF;" vertex="1" parent="1">
          <mxGeometry x="1615" y="4290" width="20" height="10" as="geometry" />
        </mxCell>
        <mxCell id="SjNW3VqROAEUk7hYalKs-375" value="Code Value (8,100)" style="text;html=1;strokeColor=#6D1F00;fillColor=#a0522d;align=left;verticalAlign=middle;whiteSpace=wrap;rounded=0;glass=0;shadow=0;sketch=0;labelBackgroundColor=none;labelBorderColor=none;fontColor=#ffffff;" vertex="1" parent="1">
          <mxGeometry x="1675" y="4420" width="200" height="20" as="geometry" />
        </mxCell>
        <mxCell id="SjNW3VqROAEUk7hYalKs-376" value="Coding Scheme Designator (8,102)" style="text;html=1;strokeColor=#6D1F00;fillColor=#a0522d;align=left;verticalAlign=middle;whiteSpace=wrap;rounded=0;glass=0;shadow=0;sketch=0;labelBackgroundColor=none;labelBorderColor=none;fontColor=#ffffff;" vertex="1" parent="1">
          <mxGeometry x="1675" y="4460" width="200" height="20" as="geometry" />
        </mxCell>
        <mxCell id="SjNW3VqROAEUk7hYalKs-377" value="Code Value (8,100)" style="text;html=1;strokeColor=#006EAF;fillColor=#1ba1e2;align=left;verticalAlign=middle;whiteSpace=wrap;rounded=0;glass=0;shadow=0;sketch=0;labelBackgroundColor=none;labelBorderColor=none;fontColor=#ffffff;" vertex="1" parent="1">
          <mxGeometry x="1715" y="4620" width="200" height="20" as="geometry" />
        </mxCell>
        <mxCell id="SjNW3VqROAEUk7hYalKs-378" value="Coding Scheme Designator (8,102)" style="text;html=1;strokeColor=#006EAF;fillColor=#1ba1e2;align=left;verticalAlign=middle;whiteSpace=wrap;rounded=0;glass=0;shadow=0;sketch=0;labelBackgroundColor=none;labelBorderColor=none;fontColor=#ffffff;" vertex="1" parent="1">
          <mxGeometry x="1715" y="4660" width="200" height="20" as="geometry" />
        </mxCell>
        <mxCell id="SjNW3VqROAEUk7hYalKs-379" value="Code Meaning (8,104)" style="text;html=1;strokeColor=#006EAF;fillColor=#1ba1e2;align=left;verticalAlign=middle;whiteSpace=wrap;rounded=0;glass=0;shadow=0;sketch=0;labelBackgroundColor=none;labelBorderColor=none;fontColor=#ffffff;" vertex="1" parent="1">
          <mxGeometry x="1715" y="4700" width="200" height="20" as="geometry" />
        </mxCell>
        <mxCell id="SjNW3VqROAEUk7hYalKs-383" value="" style="edgeStyle=orthogonalEdgeStyle;rounded=0;orthogonalLoop=1;jettySize=auto;html=1;fontColor=#FF9933;" edge="1" parent="1" source="SjNW3VqROAEUk7hYalKs-380" target="SjNW3VqROAEUk7hYalKs-382">
          <mxGeometry relative="1" as="geometry" />
        </mxCell>
        <mxCell id="SjNW3VqROAEUk7hYalKs-380" value="+" style="text;html=1;strokeColor=#6F0000;fillColor=#a20025;align=center;verticalAlign=middle;whiteSpace=wrap;rounded=0;shadow=0;glass=0;labelBackgroundColor=none;fontColor=#ffffff;" vertex="1" parent="1">
          <mxGeometry x="1930" y="200" width="30" height="10" as="geometry" />
        </mxCell>
        <mxCell id="SjNW3VqROAEUk7hYalKs-382" value="7" style="text;html=1;strokeColor=#6F0000;fillColor=#a20025;align=center;verticalAlign=middle;whiteSpace=wrap;rounded=0;shadow=0;glass=0;labelBackgroundColor=none;fontColor=#ffffff;" vertex="1" parent="1">
          <mxGeometry x="2000" y="200" width="30" height="10" as="geometry" />
        </mxCell>
        <mxCell id="SjNW3VqROAEUk7hYalKs-384" value="" style="rounded=1;whiteSpace=wrap;html=1;shadow=0;glass=0;labelBackgroundColor=none;dashed=1;dashPattern=1 1;strokeWidth=4;fillColor=none;" vertex="1" parent="1">
          <mxGeometry x="2000" y="200" width="420" height="3150" as="geometry" />
        </mxCell>
        <mxCell id="SjNW3VqROAEUk7hYalKs-385" value="Relationship Type (40,A010)" style="text;html=1;strokeColor=#82b366;fillColor=#d5e8d4;align=left;verticalAlign=middle;whiteSpace=wrap;rounded=0;glass=0;shadow=0;sketch=0;labelBackgroundColor=none;labelBorderColor=none;" vertex="1" parent="1">
          <mxGeometry x="2030" y="210" width="200" height="20" as="geometry" />
        </mxCell>
        <mxCell id="SjNW3VqROAEUk7hYalKs-386" value="Value Type (40,A040)" style="text;html=1;strokeColor=#82b366;fillColor=#d5e8d4;align=left;verticalAlign=middle;whiteSpace=wrap;rounded=0;glass=0;shadow=0;sketch=0;labelBackgroundColor=none;labelBorderColor=none;" vertex="1" parent="1">
          <mxGeometry x="1540" y="250" width="200" height="20" as="geometry" />
        </mxCell>
        <mxCell id="SjNW3VqROAEUk7hYalKs-387" value="Concept Name Code Sequence (40,A043)" style="text;html=1;strokeColor=#82b366;fillColor=#d5e8d4;align=left;verticalAlign=middle;whiteSpace=wrap;rounded=0;glass=0;shadow=0;sketch=0;labelBackgroundColor=none;labelBorderColor=none;" vertex="1" parent="1">
          <mxGeometry x="1540" y="290" width="200" height="20" as="geometry" />
        </mxCell>
        <mxCell id="SjNW3VqROAEUk7hYalKs-388" value="Code Value (8,100)" style="text;html=1;strokeColor=#d6b656;fillColor=#fff2cc;align=left;verticalAlign=middle;whiteSpace=wrap;rounded=0;glass=0;shadow=0;sketch=0;labelBackgroundColor=none;labelBorderColor=none;" vertex="1" parent="1">
          <mxGeometry x="1580" y="330" width="200" height="20" as="geometry" />
        </mxCell>
        <mxCell id="SjNW3VqROAEUk7hYalKs-389" value="Coding Scheme Designator (8,102)" style="text;html=1;strokeColor=#d6b656;fillColor=#fff2cc;align=left;verticalAlign=middle;whiteSpace=wrap;rounded=0;glass=0;shadow=0;sketch=0;labelBackgroundColor=none;labelBorderColor=none;" vertex="1" parent="1">
          <mxGeometry x="1580" y="370" width="200" height="20" as="geometry" />
        </mxCell>
        <mxCell id="SjNW3VqROAEUk7hYalKs-391" value="Code Meaning (8,104)" style="text;html=1;strokeColor=#d6b656;fillColor=#fff2cc;align=left;verticalAlign=middle;whiteSpace=wrap;rounded=0;glass=0;shadow=0;sketch=0;labelBackgroundColor=none;labelBorderColor=none;" vertex="1" parent="1">
          <mxGeometry x="1580" y="410" width="200" height="20" as="geometry" />
        </mxCell>
        <mxCell id="SjNW3VqROAEUk7hYalKs-392" value="Continuity Of Content (40, A050)" style="text;html=1;strokeColor=#82b366;fillColor=#d5e8d4;align=left;verticalAlign=middle;whiteSpace=wrap;rounded=0;glass=0;shadow=0;sketch=0;labelBackgroundColor=none;labelBorderColor=none;" vertex="1" parent="1">
          <mxGeometry x="1540" y="450" width="200" height="20" as="geometry" />
        </mxCell>
        <mxCell id="SjNW3VqROAEUk7hYalKs-393" value="Value Type (40,A040)" style="text;html=1;strokeColor=#82b366;fillColor=#d5e8d4;align=left;verticalAlign=middle;whiteSpace=wrap;rounded=0;glass=0;shadow=0;sketch=0;labelBackgroundColor=none;labelBorderColor=none;" vertex="1" parent="1">
          <mxGeometry x="2030" y="250" width="200" height="20" as="geometry" />
        </mxCell>
        <mxCell id="SjNW3VqROAEUk7hYalKs-394" value="Concept Name Code Sequence (40,A043)" style="text;html=1;strokeColor=#82b366;fillColor=#d5e8d4;align=left;verticalAlign=middle;whiteSpace=wrap;rounded=0;glass=0;shadow=0;sketch=0;labelBackgroundColor=none;labelBorderColor=none;" vertex="1" parent="1">
          <mxGeometry x="2030" y="290" width="200" height="20" as="geometry" />
        </mxCell>
        <mxCell id="SjNW3VqROAEUk7hYalKs-395" value="Code Value (8,100)" style="text;html=1;strokeColor=#d6b656;fillColor=#fff2cc;align=left;verticalAlign=middle;whiteSpace=wrap;rounded=0;glass=0;shadow=0;sketch=0;labelBackgroundColor=none;labelBorderColor=none;" vertex="1" parent="1">
          <mxGeometry x="2070" y="330" width="200" height="20" as="geometry" />
        </mxCell>
        <mxCell id="SjNW3VqROAEUk7hYalKs-396" value="Coding Scheme Designator (8,102)" style="text;html=1;strokeColor=#d6b656;fillColor=#fff2cc;align=left;verticalAlign=middle;whiteSpace=wrap;rounded=0;glass=0;shadow=0;sketch=0;labelBackgroundColor=none;labelBorderColor=none;" vertex="1" parent="1">
          <mxGeometry x="2070" y="370" width="200" height="20" as="geometry" />
        </mxCell>
        <mxCell id="SjNW3VqROAEUk7hYalKs-397" value="Code Meaning (8,104)" style="text;html=1;strokeColor=#d6b656;fillColor=#fff2cc;align=left;verticalAlign=middle;whiteSpace=wrap;rounded=0;glass=0;shadow=0;sketch=0;labelBackgroundColor=none;labelBorderColor=none;" vertex="1" parent="1">
          <mxGeometry x="2070" y="410" width="200" height="20" as="geometry" />
        </mxCell>
        <mxCell id="SjNW3VqROAEUk7hYalKs-398" value="Continuity Of Content (40, A050)" style="text;html=1;strokeColor=#82b366;fillColor=#d5e8d4;align=left;verticalAlign=middle;whiteSpace=wrap;rounded=0;glass=0;shadow=0;sketch=0;labelBackgroundColor=none;labelBorderColor=none;" vertex="1" parent="1">
          <mxGeometry x="2030" y="450" width="200" height="20" as="geometry" />
        </mxCell>
        <mxCell id="SjNW3VqROAEUk7hYalKs-399" value="Content Sequence (40, A730)" style="text;html=1;strokeColor=#82b366;fillColor=#d5e8d4;align=left;verticalAlign=middle;whiteSpace=wrap;rounded=0;glass=0;shadow=0;sketch=0;labelBackgroundColor=none;labelBorderColor=none;" vertex="1" parent="1">
          <mxGeometry x="2030" y="490" width="200" height="20" as="geometry" />
        </mxCell>
        <mxCell id="SjNW3VqROAEUk7hYalKs-400" value="Relationship Type (40,A010)" style="text;html=1;strokeColor=#d6b656;fillColor=#fff2cc;align=left;verticalAlign=middle;whiteSpace=wrap;rounded=0;glass=0;shadow=0;sketch=0;labelBackgroundColor=none;labelBorderColor=none;" vertex="1" parent="1">
          <mxGeometry x="2070" y="530" width="200" height="20" as="geometry" />
        </mxCell>
        <mxCell id="SjNW3VqROAEUk7hYalKs-401" value="Value Type (40,A040)" style="text;html=1;strokeColor=#d6b656;fillColor=#fff2cc;align=left;verticalAlign=middle;whiteSpace=wrap;rounded=0;glass=0;shadow=0;sketch=0;labelBackgroundColor=none;labelBorderColor=none;" vertex="1" parent="1">
          <mxGeometry x="2070" y="570" width="200" height="20" as="geometry" />
        </mxCell>
        <mxCell id="SjNW3VqROAEUk7hYalKs-402" value="Concept Name Code Sequence (40,A043)" style="text;html=1;strokeColor=#d6b656;fillColor=#fff2cc;align=left;verticalAlign=middle;whiteSpace=wrap;rounded=0;glass=0;shadow=0;sketch=0;labelBackgroundColor=none;labelBorderColor=none;" vertex="1" parent="1">
          <mxGeometry x="2070" y="610" width="200" height="20" as="geometry" />
        </mxCell>
        <mxCell id="SjNW3VqROAEUk7hYalKs-403" value="Code Value (8,100)" style="text;html=1;strokeColor=#9673a6;fillColor=#e1d5e7;align=left;verticalAlign=middle;whiteSpace=wrap;rounded=0;glass=0;shadow=0;sketch=0;labelBackgroundColor=none;labelBorderColor=none;" vertex="1" parent="1">
          <mxGeometry x="2110" y="650" width="200" height="20" as="geometry" />
        </mxCell>
        <mxCell id="SjNW3VqROAEUk7hYalKs-404" value="Coding Scheme Designator (8,102)" style="text;html=1;strokeColor=#9673a6;fillColor=#e1d5e7;align=left;verticalAlign=middle;whiteSpace=wrap;rounded=0;glass=0;shadow=0;sketch=0;labelBackgroundColor=none;labelBorderColor=none;" vertex="1" parent="1">
          <mxGeometry x="2110" y="690" width="200" height="20" as="geometry" />
        </mxCell>
        <mxCell id="SjNW3VqROAEUk7hYalKs-405" value="Code Meaning (8,104)" style="text;html=1;strokeColor=#9673a6;fillColor=#e1d5e7;align=left;verticalAlign=middle;whiteSpace=wrap;rounded=0;glass=0;shadow=0;sketch=0;labelBackgroundColor=none;labelBorderColor=none;" vertex="1" parent="1">
          <mxGeometry x="2110" y="730" width="200" height="20" as="geometry" />
        </mxCell>
        <mxCell id="SjNW3VqROAEUk7hYalKs-406" value="Continuity Of Content (40, A050)" style="text;html=1;strokeColor=#d6b656;fillColor=#fff2cc;align=left;verticalAlign=middle;whiteSpace=wrap;rounded=0;glass=0;shadow=0;sketch=0;labelBackgroundColor=none;labelBorderColor=none;" vertex="1" parent="1">
          <mxGeometry x="2070" y="770" width="200" height="20" as="geometry" />
        </mxCell>
        <mxCell id="SjNW3VqROAEUk7hYalKs-407" value="Content Sequence (40, A730)" style="text;html=1;strokeColor=#d6b656;fillColor=#fff2cc;align=left;verticalAlign=middle;whiteSpace=wrap;rounded=0;glass=0;shadow=0;sketch=0;labelBackgroundColor=none;labelBorderColor=none;" vertex="1" parent="1">
          <mxGeometry x="2070" y="810" width="200" height="20" as="geometry" />
        </mxCell>
        <mxCell id="SjNW3VqROAEUk7hYalKs-408" value="" style="rounded=1;whiteSpace=wrap;html=1;shadow=0;glass=1;dashed=1;dashPattern=1 1;labelBackgroundColor=none;strokeWidth=4;fillColor=none;strokeColor=#FFFF00;" vertex="1" parent="1">
          <mxGeometry x="2110" y="850" width="260" height="280" as="geometry" />
        </mxCell>
        <mxCell id="SjNW3VqROAEUk7hYalKs-409" value="Code Value (8,100)" style="text;html=1;strokeColor=#6D1F00;fillColor=#a0522d;align=left;verticalAlign=middle;whiteSpace=wrap;rounded=0;glass=0;shadow=0;sketch=0;labelBackgroundColor=none;labelBorderColor=none;fontColor=#ffffff;" vertex="1" parent="1">
          <mxGeometry x="2160" y="980" width="200" height="20" as="geometry" />
        </mxCell>
        <mxCell id="SjNW3VqROAEUk7hYalKs-410" value="Coding Scheme Designator (8,102)" style="text;html=1;strokeColor=#6D1F00;fillColor=#a0522d;align=left;verticalAlign=middle;whiteSpace=wrap;rounded=0;glass=0;shadow=0;sketch=0;labelBackgroundColor=none;labelBorderColor=none;fontColor=#ffffff;" vertex="1" parent="1">
          <mxGeometry x="2160" y="1020" width="200" height="20" as="geometry" />
        </mxCell>
        <mxCell id="SjNW3VqROAEUk7hYalKs-411" value="Code Meaning (8,104)" style="text;html=1;strokeColor=#6D1F00;fillColor=#a0522d;align=left;verticalAlign=middle;whiteSpace=wrap;rounded=0;glass=0;shadow=0;sketch=0;labelBackgroundColor=none;labelBorderColor=none;fontColor=#ffffff;" vertex="1" parent="1">
          <mxGeometry x="2160" y="1060" width="200" height="20" as="geometry" />
        </mxCell>
        <mxCell id="SjNW3VqROAEUk7hYalKs-412" value="Relationship Type (40,A010)" style="text;html=1;strokeColor=#9673a6;fillColor=#e1d5e7;align=left;verticalAlign=middle;whiteSpace=wrap;rounded=0;glass=0;shadow=0;sketch=0;labelBackgroundColor=none;labelBorderColor=none;" vertex="1" parent="1">
          <mxGeometry x="2120" y="860" width="200" height="20" as="geometry" />
        </mxCell>
        <mxCell id="SjNW3VqROAEUk7hYalKs-413" value="Value Type (40,A040)" style="text;html=1;strokeColor=#9673a6;fillColor=#e1d5e7;align=left;verticalAlign=middle;whiteSpace=wrap;rounded=0;glass=0;shadow=0;sketch=0;labelBackgroundColor=none;labelBorderColor=none;" vertex="1" parent="1">
          <mxGeometry x="2120" y="900" width="200" height="20" as="geometry" />
        </mxCell>
        <mxCell id="SjNW3VqROAEUk7hYalKs-414" value="Concept Name Code Sequence (40,A043)" style="text;html=1;strokeColor=#9673a6;fillColor=#e1d5e7;align=left;verticalAlign=middle;whiteSpace=wrap;rounded=0;glass=0;shadow=0;sketch=0;labelBackgroundColor=none;labelBorderColor=none;" vertex="1" parent="1">
          <mxGeometry x="2120" y="940" width="200" height="20" as="geometry" />
        </mxCell>
        <mxCell id="SjNW3VqROAEUk7hYalKs-415" value="Text Value (40,A160)" style="text;html=1;strokeColor=#9673a6;fillColor=#e1d5e7;align=left;verticalAlign=middle;whiteSpace=wrap;rounded=0;glass=0;shadow=0;sketch=0;labelBackgroundColor=none;labelBorderColor=none;" vertex="1" parent="1">
          <mxGeometry x="2120" y="1100" width="200" height="20" as="geometry" />
        </mxCell>
        <mxCell id="SjNW3VqROAEUk7hYalKs-416" value="1" style="text;html=1;strokeColor=#6F0000;align=center;verticalAlign=middle;whiteSpace=wrap;rounded=0;shadow=0;glass=0;labelBackgroundColor=none;fontColor=#ffffff;fillColor=#0000FF;" vertex="1" parent="1">
          <mxGeometry x="2100" y="850" width="20" height="10" as="geometry" />
        </mxCell>
        <mxCell id="SjNW3VqROAEUk7hYalKs-417" value="" style="rounded=1;whiteSpace=wrap;html=1;shadow=0;glass=1;dashed=1;dashPattern=1 1;labelBackgroundColor=none;strokeWidth=4;fillColor=none;strokeColor=#FF6666;" vertex="1" parent="1">
          <mxGeometry x="2110" y="1170" width="260" height="280" as="geometry" />
        </mxCell>
        <mxCell id="SjNW3VqROAEUk7hYalKs-418" value="Relationship Type (40,A010)" style="text;html=1;strokeColor=#9673a6;fillColor=#e1d5e7;align=left;verticalAlign=middle;whiteSpace=wrap;rounded=0;glass=0;shadow=0;sketch=0;labelBackgroundColor=none;labelBorderColor=none;" vertex="1" parent="1">
          <mxGeometry x="2120" y="1180" width="200" height="20" as="geometry" />
        </mxCell>
        <mxCell id="SjNW3VqROAEUk7hYalKs-419" value="Value Type (40,A040)" style="text;html=1;strokeColor=#9673a6;fillColor=#e1d5e7;align=left;verticalAlign=middle;whiteSpace=wrap;rounded=0;glass=0;shadow=0;sketch=0;labelBackgroundColor=none;labelBorderColor=none;" vertex="1" parent="1">
          <mxGeometry x="2120" y="1220" width="200" height="20" as="geometry" />
        </mxCell>
        <mxCell id="SjNW3VqROAEUk7hYalKs-420" value="Concept Name Code Sequence (40,A043)" style="text;html=1;strokeColor=#9673a6;fillColor=#e1d5e7;align=left;verticalAlign=middle;whiteSpace=wrap;rounded=0;glass=0;shadow=0;sketch=0;labelBackgroundColor=none;labelBorderColor=none;" vertex="1" parent="1">
          <mxGeometry x="2120" y="1260" width="200" height="20" as="geometry" />
        </mxCell>
        <mxCell id="SjNW3VqROAEUk7hYalKs-421" value="Code Value (8,100)" style="text;html=1;strokeColor=#6D1F00;fillColor=#a0522d;align=left;verticalAlign=middle;whiteSpace=wrap;rounded=0;glass=0;shadow=0;sketch=0;labelBackgroundColor=none;labelBorderColor=none;fontColor=#ffffff;" vertex="1" parent="1">
          <mxGeometry x="2160" y="1300" width="200" height="20" as="geometry" />
        </mxCell>
        <mxCell id="SjNW3VqROAEUk7hYalKs-422" value="Coding Scheme Designator (8,102)" style="text;html=1;strokeColor=#6D1F00;fillColor=#a0522d;align=left;verticalAlign=middle;whiteSpace=wrap;rounded=0;glass=0;shadow=0;sketch=0;labelBackgroundColor=none;labelBorderColor=none;fontColor=#ffffff;" vertex="1" parent="1">
          <mxGeometry x="2160" y="1340" width="200" height="20" as="geometry" />
        </mxCell>
        <mxCell id="SjNW3VqROAEUk7hYalKs-423" value="Code Meaning (8,104)" style="text;html=1;strokeColor=#6D1F00;fillColor=#a0522d;align=left;verticalAlign=middle;whiteSpace=wrap;rounded=0;glass=0;shadow=0;sketch=0;labelBackgroundColor=none;labelBorderColor=none;fontColor=#ffffff;" vertex="1" parent="1">
          <mxGeometry x="2160" y="1380" width="200" height="20" as="geometry" />
        </mxCell>
        <mxCell id="SjNW3VqROAEUk7hYalKs-424" value="UID (40,A124)" style="text;html=1;strokeColor=#9673a6;fillColor=#e1d5e7;align=left;verticalAlign=middle;whiteSpace=wrap;rounded=0;glass=0;shadow=0;sketch=0;labelBackgroundColor=none;labelBorderColor=none;" vertex="1" parent="1">
          <mxGeometry x="2120" y="1420" width="200" height="20" as="geometry" />
        </mxCell>
        <mxCell id="SjNW3VqROAEUk7hYalKs-425" value="2" style="text;html=1;strokeColor=#6F0000;align=center;verticalAlign=middle;whiteSpace=wrap;rounded=0;shadow=0;glass=0;labelBackgroundColor=none;fontColor=#ffffff;fillColor=#0000FF;" vertex="1" parent="1">
          <mxGeometry x="2100" y="1170" width="20" height="10" as="geometry" />
        </mxCell>
        <mxCell id="SjNW3VqROAEUk7hYalKs-426" value="" style="rounded=1;whiteSpace=wrap;html=1;shadow=0;glass=1;dashed=1;dashPattern=1 1;labelBackgroundColor=none;strokeWidth=4;fillColor=none;strokeColor=#9999FF;" vertex="1" parent="1">
          <mxGeometry x="2115" y="1490" width="260" height="410" as="geometry" />
        </mxCell>
        <mxCell id="SjNW3VqROAEUk7hYalKs-427" value="Relationship Type (40,A010)" style="text;html=1;strokeColor=#9673a6;fillColor=#e1d5e7;align=left;verticalAlign=middle;whiteSpace=wrap;rounded=0;glass=0;shadow=0;sketch=0;labelBackgroundColor=none;labelBorderColor=none;" vertex="1" parent="1">
          <mxGeometry x="2125" y="1500" width="200" height="20" as="geometry" />
        </mxCell>
        <mxCell id="SjNW3VqROAEUk7hYalKs-428" value="Value Type (40,A040)" style="text;html=1;strokeColor=#9673a6;fillColor=#e1d5e7;align=left;verticalAlign=middle;whiteSpace=wrap;rounded=0;glass=0;shadow=0;sketch=0;labelBackgroundColor=none;labelBorderColor=none;" vertex="1" parent="1">
          <mxGeometry x="2125" y="1540" width="200" height="20" as="geometry" />
        </mxCell>
        <mxCell id="SjNW3VqROAEUk7hYalKs-429" value="Concept Name Code Sequence (40,A043)" style="text;html=1;strokeColor=#9673a6;fillColor=#e1d5e7;align=left;verticalAlign=middle;whiteSpace=wrap;rounded=0;glass=0;shadow=0;sketch=0;labelBackgroundColor=none;labelBorderColor=none;" vertex="1" parent="1">
          <mxGeometry x="2125" y="1580" width="200" height="20" as="geometry" />
        </mxCell>
        <mxCell id="SjNW3VqROAEUk7hYalKs-430" value="Code Value (8,100)" style="text;html=1;strokeColor=#6D1F00;fillColor=#a0522d;align=left;verticalAlign=middle;whiteSpace=wrap;rounded=0;glass=0;shadow=0;sketch=0;labelBackgroundColor=none;labelBorderColor=none;fontColor=#ffffff;" vertex="1" parent="1">
          <mxGeometry x="2165" y="1620" width="200" height="20" as="geometry" />
        </mxCell>
        <mxCell id="SjNW3VqROAEUk7hYalKs-431" value="Coding Scheme Designator (8,102)" style="text;html=1;strokeColor=#6D1F00;fillColor=#a0522d;align=left;verticalAlign=middle;whiteSpace=wrap;rounded=0;glass=0;shadow=0;sketch=0;labelBackgroundColor=none;labelBorderColor=none;fontColor=#ffffff;" vertex="1" parent="1">
          <mxGeometry x="2165" y="1660" width="200" height="20" as="geometry" />
        </mxCell>
        <mxCell id="SjNW3VqROAEUk7hYalKs-432" value="Code Meaning (8,104)" style="text;html=1;strokeColor=#6D1F00;fillColor=#a0522d;align=left;verticalAlign=middle;whiteSpace=wrap;rounded=0;glass=0;shadow=0;sketch=0;labelBackgroundColor=none;labelBorderColor=none;fontColor=#ffffff;" vertex="1" parent="1">
          <mxGeometry x="2165" y="1700" width="200" height="20" as="geometry" />
        </mxCell>
        <mxCell id="SjNW3VqROAEUk7hYalKs-433" value="Concept Code Sequence (40,A168)" style="text;html=1;strokeColor=#9673a6;fillColor=#e1d5e7;align=left;verticalAlign=middle;whiteSpace=wrap;rounded=0;glass=0;shadow=0;sketch=0;labelBackgroundColor=none;labelBorderColor=none;" vertex="1" parent="1">
          <mxGeometry x="2125" y="1740" width="200" height="20" as="geometry" />
        </mxCell>
        <mxCell id="SjNW3VqROAEUk7hYalKs-434" value="Code Value (8,100)" style="text;html=1;strokeColor=#6D1F00;fillColor=#a0522d;align=left;verticalAlign=middle;whiteSpace=wrap;rounded=0;glass=0;shadow=0;sketch=0;labelBackgroundColor=none;labelBorderColor=none;fontColor=#ffffff;" vertex="1" parent="1">
          <mxGeometry x="2165" y="1780" width="200" height="20" as="geometry" />
        </mxCell>
        <mxCell id="SjNW3VqROAEUk7hYalKs-435" value="Coding Scheme Designator (8,102)" style="text;html=1;strokeColor=#6D1F00;fillColor=#a0522d;align=left;verticalAlign=middle;whiteSpace=wrap;rounded=0;glass=0;shadow=0;sketch=0;labelBackgroundColor=none;labelBorderColor=none;fontColor=#ffffff;" vertex="1" parent="1">
          <mxGeometry x="2165" y="1820" width="200" height="20" as="geometry" />
        </mxCell>
        <mxCell id="SjNW3VqROAEUk7hYalKs-436" value="Code Meaning (8,104)" style="text;html=1;strokeColor=#6D1F00;fillColor=#a0522d;align=left;verticalAlign=middle;whiteSpace=wrap;rounded=0;glass=0;shadow=0;sketch=0;labelBackgroundColor=none;labelBorderColor=none;fontColor=#ffffff;" vertex="1" parent="1">
          <mxGeometry x="2165" y="1860" width="200" height="20" as="geometry" />
        </mxCell>
        <mxCell id="SjNW3VqROAEUk7hYalKs-437" value="Relationship Type (40,A010)" style="text;html=1;strokeColor=#9673a6;fillColor=#e1d5e7;align=left;verticalAlign=middle;whiteSpace=wrap;rounded=0;glass=0;shadow=0;sketch=0;labelBackgroundColor=none;labelBorderColor=none;" vertex="1" parent="1">
          <mxGeometry x="2125" y="1500" width="200" height="20" as="geometry" />
        </mxCell>
        <mxCell id="SjNW3VqROAEUk7hYalKs-438" value="Relationship Type (40,A010)" style="text;html=1;strokeColor=#9673a6;fillColor=#e1d5e7;align=left;verticalAlign=middle;whiteSpace=wrap;rounded=0;glass=0;shadow=0;sketch=0;labelBackgroundColor=none;labelBorderColor=none;" vertex="1" parent="1">
          <mxGeometry x="2125" y="1500" width="200" height="20" as="geometry" />
        </mxCell>
        <mxCell id="SjNW3VqROAEUk7hYalKs-439" value="Value Type (40,A040)" style="text;html=1;strokeColor=#9673a6;fillColor=#e1d5e7;align=left;verticalAlign=middle;whiteSpace=wrap;rounded=0;glass=0;shadow=0;sketch=0;labelBackgroundColor=none;labelBorderColor=none;" vertex="1" parent="1">
          <mxGeometry x="2125" y="1540" width="200" height="20" as="geometry" />
        </mxCell>
        <mxCell id="SjNW3VqROAEUk7hYalKs-440" value="Concept Name Code Sequence (40,A043)" style="text;html=1;strokeColor=#9673a6;fillColor=#e1d5e7;align=left;verticalAlign=middle;whiteSpace=wrap;rounded=0;glass=0;shadow=0;sketch=0;labelBackgroundColor=none;labelBorderColor=none;" vertex="1" parent="1">
          <mxGeometry x="2125" y="1580" width="200" height="20" as="geometry" />
        </mxCell>
        <mxCell id="SjNW3VqROAEUk7hYalKs-441" value="Code Value (8,100)" style="text;html=1;strokeColor=#6D1F00;fillColor=#a0522d;align=left;verticalAlign=middle;whiteSpace=wrap;rounded=0;glass=0;shadow=0;sketch=0;labelBackgroundColor=none;labelBorderColor=none;fontColor=#ffffff;" vertex="1" parent="1">
          <mxGeometry x="2165" y="1620" width="200" height="20" as="geometry" />
        </mxCell>
        <mxCell id="SjNW3VqROAEUk7hYalKs-442" value="Coding Scheme Designator (8,102)" style="text;html=1;strokeColor=#6D1F00;fillColor=#a0522d;align=left;verticalAlign=middle;whiteSpace=wrap;rounded=0;glass=0;shadow=0;sketch=0;labelBackgroundColor=none;labelBorderColor=none;fontColor=#ffffff;" vertex="1" parent="1">
          <mxGeometry x="2165" y="1660" width="200" height="20" as="geometry" />
        </mxCell>
        <mxCell id="SjNW3VqROAEUk7hYalKs-443" value="&lt;span style=&quot;color: rgba(0 , 0 , 0 , 0) ; font-family: monospace ; font-size: 0px&quot;&gt;%3CmxGraphModel%3E%3Croot%3E%3CmxCell%20id%3D%220%22%2F%3E%3CmxCell%20id%3D%221%22%20parent%3D%220%22%2F%3E%3CmxCell%20id%3D%222%22%20value%3D%222%22%20style%3D%22text%3Bhtml%3D1%3BstrokeColor%3D%236F0000%3Balign%3Dcenter%3BverticalAlign%3Dmiddle%3BwhiteSpace%3Dwrap%3Brounded%3D0%3Bshadow%3D0%3Bglass%3D0%3BlabelBackgroundColor%3Dnone%3BfontColor%3D%23ffffff%3BfillColor%3D%230000FF%3B%22%20vertex%3D%221%22%20parent%3D%221%22%3E%3CmxGeometry%20x%3D%221610%22%20y%3D%221170%22%20width%3D%2220%22%20height%3D%2210%22%20as%3D%22geometry%22%2F%3E%3C%2FmxCell%3E%3C%2Froot%3E%3C%2FmxGraphModel%3E&lt;/span&gt;3" style="text;html=1;strokeColor=#6F0000;align=center;verticalAlign=middle;whiteSpace=wrap;rounded=0;shadow=0;glass=0;labelBackgroundColor=none;fontColor=#ffffff;fillColor=#0000FF;" vertex="1" parent="1">
          <mxGeometry x="2105" y="1490" width="20" height="10" as="geometry" />
        </mxCell>
        <mxCell id="SjNW3VqROAEUk7hYalKs-444" value="" style="rounded=1;whiteSpace=wrap;html=1;shadow=0;glass=1;dashed=1;dashPattern=1 1;labelBackgroundColor=none;strokeWidth=4;fillColor=none;strokeColor=#7CCF7C;" vertex="1" parent="1">
          <mxGeometry x="2115" y="1940" width="260" height="410" as="geometry" />
        </mxCell>
        <mxCell id="SjNW3VqROAEUk7hYalKs-445" value="Relationship Type (40,A010)" style="text;html=1;strokeColor=#9673a6;fillColor=#e1d5e7;align=left;verticalAlign=middle;whiteSpace=wrap;rounded=0;glass=0;shadow=0;sketch=0;labelBackgroundColor=none;labelBorderColor=none;" vertex="1" parent="1">
          <mxGeometry x="2125" y="1950" width="200" height="20" as="geometry" />
        </mxCell>
        <mxCell id="SjNW3VqROAEUk7hYalKs-446" value="Value Type (40,A040)" style="text;html=1;strokeColor=#9673a6;fillColor=#e1d5e7;align=left;verticalAlign=middle;whiteSpace=wrap;rounded=0;glass=0;shadow=0;sketch=0;labelBackgroundColor=none;labelBorderColor=none;" vertex="1" parent="1">
          <mxGeometry x="2125" y="1990" width="200" height="20" as="geometry" />
        </mxCell>
        <mxCell id="SjNW3VqROAEUk7hYalKs-447" value="Concept Name Code Sequence (40,A043)" style="text;html=1;strokeColor=#9673a6;fillColor=#e1d5e7;align=left;verticalAlign=middle;whiteSpace=wrap;rounded=0;glass=0;shadow=0;sketch=0;labelBackgroundColor=none;labelBorderColor=none;" vertex="1" parent="1">
          <mxGeometry x="2125" y="2030" width="200" height="20" as="geometry" />
        </mxCell>
        <mxCell id="SjNW3VqROAEUk7hYalKs-448" value="Code Value (8,100)" style="text;html=1;strokeColor=#6D1F00;fillColor=#a0522d;align=left;verticalAlign=middle;whiteSpace=wrap;rounded=0;glass=0;shadow=0;sketch=0;labelBackgroundColor=none;labelBorderColor=none;fontColor=#ffffff;" vertex="1" parent="1">
          <mxGeometry x="2165" y="2070" width="200" height="20" as="geometry" />
        </mxCell>
        <mxCell id="SjNW3VqROAEUk7hYalKs-449" value="Coding Scheme Designator (8,102)" style="text;html=1;strokeColor=#6D1F00;fillColor=#a0522d;align=left;verticalAlign=middle;whiteSpace=wrap;rounded=0;glass=0;shadow=0;sketch=0;labelBackgroundColor=none;labelBorderColor=none;fontColor=#ffffff;" vertex="1" parent="1">
          <mxGeometry x="2165" y="2110" width="200" height="20" as="geometry" />
        </mxCell>
        <mxCell id="SjNW3VqROAEUk7hYalKs-450" value="Code Meaning (8,104)" style="text;html=1;strokeColor=#6D1F00;fillColor=#a0522d;align=left;verticalAlign=middle;whiteSpace=wrap;rounded=0;glass=0;shadow=0;sketch=0;labelBackgroundColor=none;labelBorderColor=none;fontColor=#ffffff;" vertex="1" parent="1">
          <mxGeometry x="2165" y="2150" width="200" height="20" as="geometry" />
        </mxCell>
        <mxCell id="SjNW3VqROAEUk7hYalKs-451" value="Concept Code Sequence (40,A168)" style="text;html=1;strokeColor=#9673a6;fillColor=#e1d5e7;align=left;verticalAlign=middle;whiteSpace=wrap;rounded=0;glass=0;shadow=0;sketch=0;labelBackgroundColor=none;labelBorderColor=none;" vertex="1" parent="1">
          <mxGeometry x="2125" y="2190" width="200" height="20" as="geometry" />
        </mxCell>
        <mxCell id="SjNW3VqROAEUk7hYalKs-452" value="Code Value (8,100)" style="text;html=1;strokeColor=#6D1F00;fillColor=#a0522d;align=left;verticalAlign=middle;whiteSpace=wrap;rounded=0;glass=0;shadow=0;sketch=0;labelBackgroundColor=none;labelBorderColor=none;fontColor=#ffffff;" vertex="1" parent="1">
          <mxGeometry x="2165" y="2230" width="200" height="20" as="geometry" />
        </mxCell>
        <mxCell id="SjNW3VqROAEUk7hYalKs-453" value="Coding Scheme Designator (8,102)" style="text;html=1;strokeColor=#6D1F00;fillColor=#a0522d;align=left;verticalAlign=middle;whiteSpace=wrap;rounded=0;glass=0;shadow=0;sketch=0;labelBackgroundColor=none;labelBorderColor=none;fontColor=#ffffff;" vertex="1" parent="1">
          <mxGeometry x="2165" y="2270" width="200" height="20" as="geometry" />
        </mxCell>
        <mxCell id="SjNW3VqROAEUk7hYalKs-454" value="Code Meaning (8,104)" style="text;html=1;strokeColor=#6D1F00;fillColor=#a0522d;align=left;verticalAlign=middle;whiteSpace=wrap;rounded=0;glass=0;shadow=0;sketch=0;labelBackgroundColor=none;labelBorderColor=none;fontColor=#ffffff;" vertex="1" parent="1">
          <mxGeometry x="2165" y="2310" width="200" height="20" as="geometry" />
        </mxCell>
        <mxCell id="SjNW3VqROAEUk7hYalKs-455" value="Relationship Type (40,A010)" style="text;html=1;strokeColor=#9673a6;fillColor=#e1d5e7;align=left;verticalAlign=middle;whiteSpace=wrap;rounded=0;glass=0;shadow=0;sketch=0;labelBackgroundColor=none;labelBorderColor=none;" vertex="1" parent="1">
          <mxGeometry x="2125" y="1950" width="200" height="20" as="geometry" />
        </mxCell>
        <mxCell id="SjNW3VqROAEUk7hYalKs-456" value="Relationship Type (40,A010)" style="text;html=1;strokeColor=#9673a6;fillColor=#e1d5e7;align=left;verticalAlign=middle;whiteSpace=wrap;rounded=0;glass=0;shadow=0;sketch=0;labelBackgroundColor=none;labelBorderColor=none;" vertex="1" parent="1">
          <mxGeometry x="2125" y="1950" width="200" height="20" as="geometry" />
        </mxCell>
        <mxCell id="SjNW3VqROAEUk7hYalKs-457" value="Value Type (40,A040)" style="text;html=1;strokeColor=#9673a6;fillColor=#e1d5e7;align=left;verticalAlign=middle;whiteSpace=wrap;rounded=0;glass=0;shadow=0;sketch=0;labelBackgroundColor=none;labelBorderColor=none;" vertex="1" parent="1">
          <mxGeometry x="2125" y="1990" width="200" height="20" as="geometry" />
        </mxCell>
        <mxCell id="SjNW3VqROAEUk7hYalKs-458" value="Concept Name Code Sequence (40,A043)" style="text;html=1;strokeColor=#9673a6;fillColor=#e1d5e7;align=left;verticalAlign=middle;whiteSpace=wrap;rounded=0;glass=0;shadow=0;sketch=0;labelBackgroundColor=none;labelBorderColor=none;" vertex="1" parent="1">
          <mxGeometry x="2125" y="2030" width="200" height="20" as="geometry" />
        </mxCell>
        <mxCell id="SjNW3VqROAEUk7hYalKs-459" value="Code Value (8,100)" style="text;html=1;strokeColor=#6D1F00;fillColor=#a0522d;align=left;verticalAlign=middle;whiteSpace=wrap;rounded=0;glass=0;shadow=0;sketch=0;labelBackgroundColor=none;labelBorderColor=none;fontColor=#ffffff;" vertex="1" parent="1">
          <mxGeometry x="2165" y="2070" width="200" height="20" as="geometry" />
        </mxCell>
        <mxCell id="SjNW3VqROAEUk7hYalKs-460" value="Coding Scheme Designator (8,102)" style="text;html=1;strokeColor=#6D1F00;fillColor=#a0522d;align=left;verticalAlign=middle;whiteSpace=wrap;rounded=0;glass=0;shadow=0;sketch=0;labelBackgroundColor=none;labelBorderColor=none;fontColor=#ffffff;" vertex="1" parent="1">
          <mxGeometry x="2165" y="2110" width="200" height="20" as="geometry" />
        </mxCell>
        <mxCell id="SjNW3VqROAEUk7hYalKs-461" value="&lt;font face=&quot;monospace&quot;&gt;&lt;span&gt;4&lt;/span&gt;&lt;/font&gt;" style="text;html=1;strokeColor=#6F0000;align=center;verticalAlign=middle;whiteSpace=wrap;rounded=0;shadow=0;glass=0;labelBackgroundColor=none;fillColor=#0000FF;fontStyle=0;labelBorderColor=none;fontColor=#FFFFFF;" vertex="1" parent="1">
          <mxGeometry x="2105" y="1940" width="20" height="10" as="geometry" />
        </mxCell>
        <mxCell id="SjNW3VqROAEUk7hYalKs-462" value="" style="rounded=1;whiteSpace=wrap;html=1;shadow=0;glass=1;dashed=1;dashPattern=1 1;labelBackgroundColor=none;strokeWidth=4;fillColor=none;strokeColor=#FF8000;" vertex="1" parent="1">
          <mxGeometry x="2115" y="2390" width="260" height="410" as="geometry" />
        </mxCell>
        <mxCell id="SjNW3VqROAEUk7hYalKs-463" value="Relationship Type (40,A010)" style="text;html=1;strokeColor=#9673a6;fillColor=#e1d5e7;align=left;verticalAlign=middle;whiteSpace=wrap;rounded=0;glass=0;shadow=0;sketch=0;labelBackgroundColor=none;labelBorderColor=none;" vertex="1" parent="1">
          <mxGeometry x="2125" y="2400" width="200" height="20" as="geometry" />
        </mxCell>
        <mxCell id="SjNW3VqROAEUk7hYalKs-464" value="Value Type (40,A040)" style="text;html=1;strokeColor=#9673a6;fillColor=#e1d5e7;align=left;verticalAlign=middle;whiteSpace=wrap;rounded=0;glass=0;shadow=0;sketch=0;labelBackgroundColor=none;labelBorderColor=none;" vertex="1" parent="1">
          <mxGeometry x="2125" y="2440" width="200" height="20" as="geometry" />
        </mxCell>
        <mxCell id="SjNW3VqROAEUk7hYalKs-465" value="Concept Name Code Sequence (40,A043)" style="text;html=1;strokeColor=#9673a6;fillColor=#e1d5e7;align=left;verticalAlign=middle;whiteSpace=wrap;rounded=0;glass=0;shadow=0;sketch=0;labelBackgroundColor=none;labelBorderColor=none;" vertex="1" parent="1">
          <mxGeometry x="2125" y="2480" width="200" height="20" as="geometry" />
        </mxCell>
        <mxCell id="SjNW3VqROAEUk7hYalKs-466" value="Code Value (8,100)" style="text;html=1;strokeColor=#6D1F00;fillColor=#a0522d;align=left;verticalAlign=middle;whiteSpace=wrap;rounded=0;glass=0;shadow=0;sketch=0;labelBackgroundColor=none;labelBorderColor=none;fontColor=#ffffff;" vertex="1" parent="1">
          <mxGeometry x="2165" y="2520" width="200" height="20" as="geometry" />
        </mxCell>
        <mxCell id="SjNW3VqROAEUk7hYalKs-467" value="Coding Scheme Designator (8,102)" style="text;html=1;strokeColor=#6D1F00;fillColor=#a0522d;align=left;verticalAlign=middle;whiteSpace=wrap;rounded=0;glass=0;shadow=0;sketch=0;labelBackgroundColor=none;labelBorderColor=none;fontColor=#ffffff;" vertex="1" parent="1">
          <mxGeometry x="2165" y="2560" width="200" height="20" as="geometry" />
        </mxCell>
        <mxCell id="SjNW3VqROAEUk7hYalKs-468" value="Code Meaning (8,104)" style="text;html=1;strokeColor=#6D1F00;fillColor=#a0522d;align=left;verticalAlign=middle;whiteSpace=wrap;rounded=0;glass=0;shadow=0;sketch=0;labelBackgroundColor=none;labelBorderColor=none;fontColor=#ffffff;" vertex="1" parent="1">
          <mxGeometry x="2165" y="2600" width="200" height="20" as="geometry" />
        </mxCell>
        <mxCell id="SjNW3VqROAEUk7hYalKs-469" value="Concept Code Sequence (40,A168)" style="text;html=1;strokeColor=#9673a6;fillColor=#e1d5e7;align=left;verticalAlign=middle;whiteSpace=wrap;rounded=0;glass=0;shadow=0;sketch=0;labelBackgroundColor=none;labelBorderColor=none;" vertex="1" parent="1">
          <mxGeometry x="2125" y="2640" width="200" height="20" as="geometry" />
        </mxCell>
        <mxCell id="SjNW3VqROAEUk7hYalKs-470" value="Code Value (8,100)" style="text;html=1;strokeColor=#6D1F00;fillColor=#a0522d;align=left;verticalAlign=middle;whiteSpace=wrap;rounded=0;glass=0;shadow=0;sketch=0;labelBackgroundColor=none;labelBorderColor=none;fontColor=#ffffff;" vertex="1" parent="1">
          <mxGeometry x="2165" y="2680" width="200" height="20" as="geometry" />
        </mxCell>
        <mxCell id="SjNW3VqROAEUk7hYalKs-471" value="Coding Scheme Designator (8,102)" style="text;html=1;strokeColor=#6D1F00;fillColor=#a0522d;align=left;verticalAlign=middle;whiteSpace=wrap;rounded=0;glass=0;shadow=0;sketch=0;labelBackgroundColor=none;labelBorderColor=none;fontColor=#ffffff;" vertex="1" parent="1">
          <mxGeometry x="2165" y="2720" width="200" height="20" as="geometry" />
        </mxCell>
        <mxCell id="SjNW3VqROAEUk7hYalKs-472" value="Code Meaning (8,104)" style="text;html=1;strokeColor=#6D1F00;fillColor=#a0522d;align=left;verticalAlign=middle;whiteSpace=wrap;rounded=0;glass=0;shadow=0;sketch=0;labelBackgroundColor=none;labelBorderColor=none;fontColor=#ffffff;" vertex="1" parent="1">
          <mxGeometry x="2165" y="2760" width="200" height="20" as="geometry" />
        </mxCell>
        <mxCell id="SjNW3VqROAEUk7hYalKs-473" value="Relationship Type (40,A010)" style="text;html=1;strokeColor=#9673a6;fillColor=#e1d5e7;align=left;verticalAlign=middle;whiteSpace=wrap;rounded=0;glass=0;shadow=0;sketch=0;labelBackgroundColor=none;labelBorderColor=none;" vertex="1" parent="1">
          <mxGeometry x="2125" y="2400" width="200" height="20" as="geometry" />
        </mxCell>
        <mxCell id="SjNW3VqROAEUk7hYalKs-474" value="Relationship Type (40,A010)" style="text;html=1;strokeColor=#9673a6;fillColor=#e1d5e7;align=left;verticalAlign=middle;whiteSpace=wrap;rounded=0;glass=0;shadow=0;sketch=0;labelBackgroundColor=none;labelBorderColor=none;" vertex="1" parent="1">
          <mxGeometry x="2125" y="2400" width="200" height="20" as="geometry" />
        </mxCell>
        <mxCell id="SjNW3VqROAEUk7hYalKs-475" value="Value Type (40,A040)" style="text;html=1;strokeColor=#9673a6;fillColor=#e1d5e7;align=left;verticalAlign=middle;whiteSpace=wrap;rounded=0;glass=0;shadow=0;sketch=0;labelBackgroundColor=none;labelBorderColor=none;" vertex="1" parent="1">
          <mxGeometry x="2125" y="2440" width="200" height="20" as="geometry" />
        </mxCell>
        <mxCell id="SjNW3VqROAEUk7hYalKs-476" value="Concept Name Code Sequence (40,A043)" style="text;html=1;strokeColor=#9673a6;fillColor=#e1d5e7;align=left;verticalAlign=middle;whiteSpace=wrap;rounded=0;glass=0;shadow=0;sketch=0;labelBackgroundColor=none;labelBorderColor=none;" vertex="1" parent="1">
          <mxGeometry x="2125" y="2480" width="200" height="20" as="geometry" />
        </mxCell>
        <mxCell id="SjNW3VqROAEUk7hYalKs-477" value="Code Value (8,100)" style="text;html=1;strokeColor=#6D1F00;fillColor=#a0522d;align=left;verticalAlign=middle;whiteSpace=wrap;rounded=0;glass=0;shadow=0;sketch=0;labelBackgroundColor=none;labelBorderColor=none;fontColor=#ffffff;" vertex="1" parent="1">
          <mxGeometry x="2165" y="2520" width="200" height="20" as="geometry" />
        </mxCell>
        <mxCell id="SjNW3VqROAEUk7hYalKs-478" value="Coding Scheme Designator (8,102)" style="text;html=1;strokeColor=#6D1F00;fillColor=#a0522d;align=left;verticalAlign=middle;whiteSpace=wrap;rounded=0;glass=0;shadow=0;sketch=0;labelBackgroundColor=none;labelBorderColor=none;fontColor=#ffffff;" vertex="1" parent="1">
          <mxGeometry x="2165" y="2560" width="200" height="20" as="geometry" />
        </mxCell>
        <mxCell id="SjNW3VqROAEUk7hYalKs-479" value="&lt;font face=&quot;monospace&quot;&gt;&lt;span&gt;5&lt;/span&gt;&lt;/font&gt;" style="text;html=1;strokeColor=#6F0000;align=center;verticalAlign=middle;whiteSpace=wrap;rounded=0;shadow=0;glass=0;labelBackgroundColor=none;fillColor=#0000FF;fontStyle=0;labelBorderColor=none;fontColor=#FFFFFF;" vertex="1" parent="1">
          <mxGeometry x="2105" y="2390" width="20" height="10" as="geometry" />
        </mxCell>
        <mxCell id="SjNW3VqROAEUk7hYalKs-480" value="" style="rounded=1;whiteSpace=wrap;html=1;shadow=0;glass=1;dashed=1;dashPattern=1 1;labelBackgroundColor=none;strokeWidth=4;fillColor=none;strokeColor=#33FF99;" vertex="1" parent="1">
          <mxGeometry x="2120" y="2840" width="290" height="480" as="geometry" />
        </mxCell>
        <mxCell id="SjNW3VqROAEUk7hYalKs-481" value="Relationship Type (40,A010)" style="text;html=1;strokeColor=#9673a6;fillColor=#e1d5e7;align=left;verticalAlign=middle;whiteSpace=wrap;rounded=0;glass=0;shadow=0;sketch=0;labelBackgroundColor=none;labelBorderColor=none;" vertex="1" parent="1">
          <mxGeometry x="2130" y="2850" width="200" height="20" as="geometry" />
        </mxCell>
        <mxCell id="SjNW3VqROAEUk7hYalKs-482" value="Value Type (40,A040)" style="text;html=1;strokeColor=#9673a6;fillColor=#e1d5e7;align=left;verticalAlign=middle;whiteSpace=wrap;rounded=0;glass=0;shadow=0;sketch=0;labelBackgroundColor=none;labelBorderColor=none;" vertex="1" parent="1">
          <mxGeometry x="2130" y="2890" width="200" height="20" as="geometry" />
        </mxCell>
        <mxCell id="SjNW3VqROAEUk7hYalKs-483" value="Concept Name Code Sequence (40,A043)" style="text;html=1;strokeColor=#9673a6;fillColor=#e1d5e7;align=left;verticalAlign=middle;whiteSpace=wrap;rounded=0;glass=0;shadow=0;sketch=0;labelBackgroundColor=none;labelBorderColor=none;" vertex="1" parent="1">
          <mxGeometry x="2130" y="2930" width="200" height="20" as="geometry" />
        </mxCell>
        <mxCell id="SjNW3VqROAEUk7hYalKs-484" value="Code Value (8,100)" style="text;html=1;strokeColor=#6D1F00;fillColor=#a0522d;align=left;verticalAlign=middle;whiteSpace=wrap;rounded=0;glass=0;shadow=0;sketch=0;labelBackgroundColor=none;labelBorderColor=none;fontColor=#ffffff;" vertex="1" parent="1">
          <mxGeometry x="2170" y="2970" width="200" height="20" as="geometry" />
        </mxCell>
        <mxCell id="SjNW3VqROAEUk7hYalKs-485" value="Coding Scheme Designator (8,102)" style="text;html=1;strokeColor=#6D1F00;fillColor=#a0522d;align=left;verticalAlign=middle;whiteSpace=wrap;rounded=0;glass=0;shadow=0;sketch=0;labelBackgroundColor=none;labelBorderColor=none;fontColor=#ffffff;" vertex="1" parent="1">
          <mxGeometry x="2170" y="3010" width="200" height="20" as="geometry" />
        </mxCell>
        <mxCell id="SjNW3VqROAEUk7hYalKs-486" value="Code Meaning (8,104)" style="text;html=1;strokeColor=#6D1F00;fillColor=#a0522d;align=left;verticalAlign=middle;whiteSpace=wrap;rounded=0;glass=0;shadow=0;sketch=0;labelBackgroundColor=none;labelBorderColor=none;fontColor=#ffffff;" vertex="1" parent="1">
          <mxGeometry x="2170" y="3050" width="200" height="20" as="geometry" />
        </mxCell>
        <mxCell id="SjNW3VqROAEUk7hYalKs-487" value="Measured Value Sequence (40,A043)" style="text;html=1;strokeColor=#9673a6;fillColor=#e1d5e7;align=left;verticalAlign=middle;whiteSpace=wrap;rounded=0;glass=0;shadow=0;sketch=0;labelBackgroundColor=none;labelBorderColor=none;" vertex="1" parent="1">
          <mxGeometry x="2130" y="3090" width="200" height="20" as="geometry" />
        </mxCell>
        <mxCell id="SjNW3VqROAEUk7hYalKs-488" value="Measured Units Code Sequence (40, 08EA)" style="text;html=1;strokeColor=#6D1F00;fillColor=#a0522d;align=left;verticalAlign=middle;whiteSpace=wrap;rounded=0;glass=0;shadow=0;sketch=0;labelBackgroundColor=none;labelBorderColor=none;fontColor=#ffffff;" vertex="1" parent="1">
          <mxGeometry x="2170" y="3130" width="200" height="20" as="geometry" />
        </mxCell>
        <mxCell id="SjNW3VqROAEUk7hYalKs-489" value="Numeric Value (40, A30A)" style="text;html=1;strokeColor=#6D1F00;fillColor=#a0522d;align=left;verticalAlign=middle;whiteSpace=wrap;rounded=0;glass=0;shadow=0;sketch=0;labelBackgroundColor=none;labelBorderColor=none;fontColor=#ffffff;" vertex="1" parent="1">
          <mxGeometry x="2170" y="3290" width="200" height="20" as="geometry" />
        </mxCell>
        <mxCell id="SjNW3VqROAEUk7hYalKs-490" value="Relationship Type (40,A010)" style="text;html=1;strokeColor=#9673a6;fillColor=#e1d5e7;align=left;verticalAlign=middle;whiteSpace=wrap;rounded=0;glass=0;shadow=0;sketch=0;labelBackgroundColor=none;labelBorderColor=none;" vertex="1" parent="1">
          <mxGeometry x="2130" y="2850" width="200" height="20" as="geometry" />
        </mxCell>
        <mxCell id="SjNW3VqROAEUk7hYalKs-491" value="Relationship Type (40,A010)" style="text;html=1;strokeColor=#9673a6;fillColor=#e1d5e7;align=left;verticalAlign=middle;whiteSpace=wrap;rounded=0;glass=0;shadow=0;sketch=0;labelBackgroundColor=none;labelBorderColor=none;" vertex="1" parent="1">
          <mxGeometry x="2130" y="2850" width="200" height="20" as="geometry" />
        </mxCell>
        <mxCell id="SjNW3VqROAEUk7hYalKs-492" value="Value Type (40,A040)" style="text;html=1;strokeColor=#9673a6;fillColor=#e1d5e7;align=left;verticalAlign=middle;whiteSpace=wrap;rounded=0;glass=0;shadow=0;sketch=0;labelBackgroundColor=none;labelBorderColor=none;" vertex="1" parent="1">
          <mxGeometry x="2130" y="2890" width="200" height="20" as="geometry" />
        </mxCell>
        <mxCell id="SjNW3VqROAEUk7hYalKs-493" value="Concept Name Code Sequence (40,A043)" style="text;html=1;strokeColor=#9673a6;fillColor=#e1d5e7;align=left;verticalAlign=middle;whiteSpace=wrap;rounded=0;glass=0;shadow=0;sketch=0;labelBackgroundColor=none;labelBorderColor=none;" vertex="1" parent="1">
          <mxGeometry x="2130" y="2930" width="200" height="20" as="geometry" />
        </mxCell>
        <mxCell id="SjNW3VqROAEUk7hYalKs-494" value="Code Value (8,100)" style="text;html=1;strokeColor=#6D1F00;fillColor=#a0522d;align=left;verticalAlign=middle;whiteSpace=wrap;rounded=0;glass=0;shadow=0;sketch=0;labelBackgroundColor=none;labelBorderColor=none;fontColor=#ffffff;" vertex="1" parent="1">
          <mxGeometry x="2170" y="2970" width="200" height="20" as="geometry" />
        </mxCell>
        <mxCell id="SjNW3VqROAEUk7hYalKs-495" value="Coding Scheme Designator (8,102)" style="text;html=1;strokeColor=#6D1F00;fillColor=#a0522d;align=left;verticalAlign=middle;whiteSpace=wrap;rounded=0;glass=0;shadow=0;sketch=0;labelBackgroundColor=none;labelBorderColor=none;fontColor=#ffffff;" vertex="1" parent="1">
          <mxGeometry x="2170" y="3010" width="200" height="20" as="geometry" />
        </mxCell>
        <mxCell id="SjNW3VqROAEUk7hYalKs-496" value="&lt;font face=&quot;monospace&quot;&gt;&lt;span&gt;6&lt;/span&gt;&lt;/font&gt;" style="text;html=1;strokeColor=#6F0000;align=center;verticalAlign=middle;whiteSpace=wrap;rounded=0;shadow=0;glass=0;labelBackgroundColor=none;fillColor=#0000FF;fontStyle=0;labelBorderColor=none;fontColor=#FFFFFF;" vertex="1" parent="1">
          <mxGeometry x="2110" y="2840" width="20" height="10" as="geometry" />
        </mxCell>
        <mxCell id="SjNW3VqROAEUk7hYalKs-497" value="Code Value (8,100)" style="text;html=1;strokeColor=#6D1F00;fillColor=#a0522d;align=left;verticalAlign=middle;whiteSpace=wrap;rounded=0;glass=0;shadow=0;sketch=0;labelBackgroundColor=none;labelBorderColor=none;fontColor=#ffffff;" vertex="1" parent="1">
          <mxGeometry x="2170" y="2970" width="200" height="20" as="geometry" />
        </mxCell>
        <mxCell id="SjNW3VqROAEUk7hYalKs-498" value="Coding Scheme Designator (8,102)" style="text;html=1;strokeColor=#6D1F00;fillColor=#a0522d;align=left;verticalAlign=middle;whiteSpace=wrap;rounded=0;glass=0;shadow=0;sketch=0;labelBackgroundColor=none;labelBorderColor=none;fontColor=#ffffff;" vertex="1" parent="1">
          <mxGeometry x="2170" y="3010" width="200" height="20" as="geometry" />
        </mxCell>
        <mxCell id="SjNW3VqROAEUk7hYalKs-499" value="Code Value (8,100)" style="text;html=1;strokeColor=#006EAF;fillColor=#1ba1e2;align=left;verticalAlign=middle;whiteSpace=wrap;rounded=0;glass=0;shadow=0;sketch=0;labelBackgroundColor=none;labelBorderColor=none;fontColor=#ffffff;" vertex="1" parent="1">
          <mxGeometry x="2210" y="3170" width="200" height="20" as="geometry" />
        </mxCell>
        <mxCell id="SjNW3VqROAEUk7hYalKs-500" value="Coding Scheme Designator (8,102)" style="text;html=1;strokeColor=#006EAF;fillColor=#1ba1e2;align=left;verticalAlign=middle;whiteSpace=wrap;rounded=0;glass=0;shadow=0;sketch=0;labelBackgroundColor=none;labelBorderColor=none;fontColor=#ffffff;" vertex="1" parent="1">
          <mxGeometry x="2210" y="3210" width="200" height="20" as="geometry" />
        </mxCell>
        <mxCell id="SjNW3VqROAEUk7hYalKs-501" value="Code Meaning (8,104)" style="text;html=1;strokeColor=#006EAF;fillColor=#1ba1e2;align=left;verticalAlign=middle;whiteSpace=wrap;rounded=0;glass=0;shadow=0;sketch=0;labelBackgroundColor=none;labelBorderColor=none;fontColor=#ffffff;" vertex="1" parent="1">
          <mxGeometry x="2210" y="3250" width="200" height="20" as="geometry" />
        </mxCell>
        <mxCell id="SjNW3VqROAEUk7hYalKs-502" value="" style="endArrow=none;html=1;fontColor=#FF9933;" edge="1" parent="1">
          <mxGeometry width="50" height="50" relative="1" as="geometry">
            <mxPoint x="-120" y="160" as="sourcePoint" />
            <mxPoint x="2530" y="160" as="targetPoint" />
          </mxGeometry>
        </mxCell>
        <mxCell id="SjNW3VqROAEUk7hYalKs-516" value="&lt;span style=&quot;text-align: center&quot;&gt;Manufacturer (8,70)&lt;/span&gt;" style="text;html=1;strokeColor=#82b366;fillColor=#d5e8d4;align=left;verticalAlign=middle;whiteSpace=wrap;rounded=0;labelBackgroundColor=none;labelBorderColor=none;" vertex="1" parent="1">
          <mxGeometry x="200" y="200" width="200" height="20" as="geometry" />
        </mxCell>
        <mxCell id="SjNW3VqROAEUk7hYalKs-517" value="Siemens Healthineers, AG" style="text;html=1;strokeColor=none;fillColor=none;align=right;verticalAlign=middle;whiteSpace=wrap;rounded=0;shadow=0;glass=1;dashed=1;dashPattern=1 1;labelBackgroundColor=#FFFF99;fontColor=#330000;" vertex="1" parent="1">
          <mxGeometry x="200" y="220" width="200" height="20" as="geometry" />
        </mxCell>
        <mxCell id="SjNW3VqROAEUk7hYalKs-518" value="AI Rad Companion Research" style="text;html=1;strokeColor=none;fillColor=none;align=right;verticalAlign=middle;whiteSpace=wrap;rounded=0;shadow=0;glass=1;dashed=1;dashPattern=1 1;labelBackgroundColor=#FFFF99;fontColor=#330000;" vertex="1" parent="1">
          <mxGeometry x="200" y="260" width="200" height="20" as="geometry" />
        </mxCell>
        <mxCell id="SjNW3VqROAEUk7hYalKs-519" value="VAXX" style="text;html=1;strokeColor=none;fillColor=none;align=right;verticalAlign=middle;whiteSpace=wrap;rounded=0;shadow=0;glass=1;dashed=1;dashPattern=1 1;labelBackgroundColor=#FFFF99;fontColor=#330000;" vertex="1" parent="1">
          <mxGeometry x="200" y="300" width="200" height="20" as="geometry" />
        </mxCell>
        <mxCell id="SjNW3VqROAEUk7hYalKs-520" value="Newcode1" style="text;html=1;strokeColor=none;fillColor=none;align=right;verticalAlign=middle;whiteSpace=wrap;rounded=0;shadow=0;glass=1;dashed=1;dashPattern=1 1;labelBackgroundColor=#FFFF99;fontColor=#330000;" vertex="1" parent="1">
          <mxGeometry x="240" y="380" width="200" height="20" as="geometry" />
        </mxCell>
        <mxCell id="SjNW3VqROAEUk7hYalKs-521" value="99IHE&amp;nbsp;" style="text;html=1;strokeColor=none;fillColor=none;align=right;verticalAlign=middle;whiteSpace=wrap;rounded=0;shadow=0;glass=1;dashed=1;dashPattern=1 1;labelBackgroundColor=#FFFF99;fontColor=#330000;" vertex="1" parent="1">
          <mxGeometry x="240" y="420" width="200" height="20" as="geometry" />
        </mxCell>
        <mxCell id="SjNW3VqROAEUk7hYalKs-522" value="Processing Algorithm" style="text;html=1;strokeColor=none;fillColor=none;align=right;verticalAlign=middle;whiteSpace=wrap;rounded=0;shadow=0;glass=1;dashed=1;dashPattern=1 1;labelBackgroundColor=#FFFF99;fontColor=#330000;" vertex="1" parent="1">
          <mxGeometry x="240" y="460" width="200" height="20" as="geometry" />
        </mxCell>
        <mxCell id="SjNW3VqROAEUk7hYalKs-523" value="126000" style="text;html=1;strokeColor=none;fillColor=none;align=right;verticalAlign=middle;whiteSpace=wrap;rounded=0;shadow=0;glass=1;dashed=1;dashPattern=1 1;labelBackgroundColor=#FFFF99;fontColor=#330000;" vertex="1" parent="1">
          <mxGeometry x="440" y="220" width="200" height="20" as="geometry" />
        </mxCell>
        <mxCell id="SjNW3VqROAEUk7hYalKs-524" value="DCM&amp;nbsp;" style="text;html=1;strokeColor=none;fillColor=none;align=right;verticalAlign=middle;whiteSpace=wrap;rounded=0;shadow=0;glass=1;dashed=1;dashPattern=1 1;labelBackgroundColor=#FFFF99;fontColor=#330000;" vertex="1" parent="1">
          <mxGeometry x="440" y="260" width="200" height="20" as="geometry" />
        </mxCell>
        <mxCell id="SjNW3VqROAEUk7hYalKs-525" value="AIRC Research CT Lung Lesion - NOT FOR CLINICAL USE&amp;nbsp;" style="text;html=1;strokeColor=none;fillColor=none;align=right;verticalAlign=middle;whiteSpace=wrap;rounded=0;shadow=0;glass=1;dashed=1;dashPattern=1 1;labelBackgroundColor=#FFFF99;fontColor=#330000;" vertex="1" parent="1">
          <mxGeometry x="440" y="300" width="200" height="20" as="geometry" />
        </mxCell>
        <mxCell id="SjNW3VqROAEUk7hYalKs-528" value="241540006" style="text;html=1;strokeColor=none;fillColor=none;align=right;verticalAlign=middle;whiteSpace=wrap;rounded=0;shadow=0;glass=1;dashed=1;dashPattern=1 1;labelBackgroundColor=#FFFF99;fontColor=#330000;" vertex="1" parent="1">
          <mxGeometry x="680" y="220" width="200" height="20" as="geometry" />
        </mxCell>
        <mxCell id="SjNW3VqROAEUk7hYalKs-529" value="SCT&amp;nbsp;" style="text;html=1;strokeColor=none;fillColor=none;align=right;verticalAlign=middle;whiteSpace=wrap;rounded=0;shadow=0;glass=1;dashed=1;dashPattern=1 1;labelBackgroundColor=#FFFF99;fontColor=#330000;" vertex="1" parent="1">
          <mxGeometry x="680" y="260" width="200" height="20" as="geometry" />
        </mxCell>
        <mxCell id="SjNW3VqROAEUk7hYalKs-530" value="1.3.12.2.1107.5.1.4.64935.30000019030319571981200000034" style="text;html=1;strokeColor=none;fillColor=none;align=right;verticalAlign=middle;whiteSpace=wrap;rounded=0;shadow=0;glass=1;dashed=1;dashPattern=1 1;labelBackgroundColor=#FFFF99;fontColor=#330000;" vertex="1" parent="1">
          <mxGeometry x="920" y="1660" width="200" height="20" as="geometry" />
        </mxCell>
        <mxCell id="SjNW3VqROAEUk7hYalKs-531" value="1.3.12.2.1107.5.1.4.64935.30000019030320513276900022653" style="text;html=1;strokeColor=none;fillColor=none;align=right;verticalAlign=middle;whiteSpace=wrap;rounded=0;shadow=0;glass=1;dashed=1;dashPattern=1 1;labelBackgroundColor=#FFFF99;fontColor=#330000;" vertex="1" parent="1">
          <mxGeometry x="970" y="390" width="200" height="20" as="geometry" />
        </mxCell>
        <mxCell id="SjNW3VqROAEUk7hYalKs-532" value="1.3.12.2.1107.5.8.21.192168561.30000020051015561311300000648" style="text;html=1;strokeColor=none;fillColor=none;align=right;verticalAlign=middle;whiteSpace=wrap;rounded=0;shadow=0;glass=1;dashed=1;dashPattern=1 1;labelBackgroundColor=#FFFF99;fontColor=#330000;" vertex="1" parent="1">
          <mxGeometry x="970" y="590" width="200" height="20" as="geometry" />
        </mxCell>
        <mxCell id="SjNW3VqROAEUk7hYalKs-533" value="1.3.12.2.1107.5.8.21.192168561.30000020051015561311300000648" style="text;html=1;strokeColor=none;fillColor=none;align=right;verticalAlign=middle;whiteSpace=wrap;rounded=0;shadow=0;glass=1;dashed=1;dashPattern=1 1;labelBackgroundColor=#FFFF99;fontColor=#330000;" vertex="1" parent="1">
          <mxGeometry x="970" y="790" width="200" height="20" as="geometry" />
        </mxCell>
        <mxCell id="SjNW3VqROAEUk7hYalKs-534" value="1.3.12.2.1107.5.8.21.192168561.30000020051015561311300000648" style="text;html=1;strokeColor=none;fillColor=none;align=right;verticalAlign=middle;whiteSpace=wrap;rounded=0;shadow=0;glass=1;dashed=1;dashPattern=1 1;labelBackgroundColor=#FFFF99;fontColor=#330000;" vertex="1" parent="1">
          <mxGeometry x="970" y="990" width="200" height="20" as="geometry" />
        </mxCell>
        <mxCell id="SjNW3VqROAEUk7hYalKs-535" value="1.3.12.2.1107.5.8.21.192168561.30000020051015561311300000648" style="text;html=1;strokeColor=none;fillColor=none;align=right;verticalAlign=middle;whiteSpace=wrap;rounded=0;shadow=0;glass=1;dashed=1;dashPattern=1 1;labelBackgroundColor=#FFFF99;fontColor=#330000;" vertex="1" parent="1">
          <mxGeometry x="970" y="1190" width="200" height="20" as="geometry" />
        </mxCell>
        <mxCell id="SjNW3VqROAEUk7hYalKs-536" value="1.3.12.2.1107.5.8.21.192168561.30000020051015561311300000648" style="text;html=1;strokeColor=none;fillColor=none;align=right;verticalAlign=middle;whiteSpace=wrap;rounded=0;shadow=0;glass=1;dashed=1;dashPattern=1 1;labelBackgroundColor=#FFFF99;fontColor=#330000;" vertex="1" parent="1">
          <mxGeometry x="970" y="1390" width="200" height="20" as="geometry" />
        </mxCell>
        <mxCell id="SjNW3VqROAEUk7hYalKs-537" value="1.3.12.2.1107.5.8.21.192168561.30000020051015561311300000648" style="text;html=1;strokeColor=none;fillColor=none;align=right;verticalAlign=middle;whiteSpace=wrap;rounded=0;shadow=0;glass=1;dashed=1;dashPattern=1 1;labelBackgroundColor=#FFFF99;fontColor=#330000;" vertex="1" parent="1">
          <mxGeometry x="970" y="1590" width="200" height="20" as="geometry" />
        </mxCell>
        <mxCell id="SjNW3VqROAEUk7hYalKs-538" value="1.2.840.10008.5.1.4.1.1.2" style="text;html=1;strokeColor=none;fillColor=none;align=right;verticalAlign=middle;whiteSpace=wrap;rounded=0;shadow=0;glass=1;dashed=1;dashPattern=1 1;labelBackgroundColor=#FFFF99;fontColor=#330000;" vertex="1" parent="1">
          <mxGeometry x="1010" y="310" width="200" height="20" as="geometry" />
        </mxCell>
        <mxCell id="SjNW3VqROAEUk7hYalKs-539" value="1.3.6.1.4.1.9590.100.1.2.83290151511383906508319776271215631386" style="text;html=1;strokeColor=none;fillColor=none;align=right;verticalAlign=middle;whiteSpace=wrap;rounded=0;shadow=0;glass=1;dashed=1;dashPattern=1 1;labelBackgroundColor=#FFFF99;fontColor=#330000;" vertex="1" parent="1">
          <mxGeometry x="1010" y="350" width="200" height="20" as="geometry" />
        </mxCell>
        <mxCell id="SjNW3VqROAEUk7hYalKs-540" value="1.2.840.10008.5.1.4.1.1.7" style="text;html=1;strokeColor=none;fillColor=none;align=right;verticalAlign=middle;whiteSpace=wrap;rounded=0;shadow=0;glass=1;dashed=1;dashPattern=1 1;labelBackgroundColor=#FFFF99;fontColor=#330000;" vertex="1" parent="1">
          <mxGeometry x="1010" y="510" width="200" height="20" as="geometry" />
        </mxCell>
        <mxCell id="SjNW3VqROAEUk7hYalKs-541" value="1.3.12.2.1107.5.8.21.192168561.30000020051015561311300000905" style="text;html=1;strokeColor=none;fillColor=none;align=right;verticalAlign=middle;whiteSpace=wrap;rounded=0;shadow=0;glass=1;dashed=1;dashPattern=1 1;labelBackgroundColor=#FFFF99;fontColor=#330000;" vertex="1" parent="1">
          <mxGeometry x="1010" y="550" width="200" height="20" as="geometry" />
        </mxCell>
        <mxCell id="SjNW3VqROAEUk7hYalKs-542" value="1.2.840.10008.5.1.4.1.1.7" style="text;html=1;strokeColor=none;fillColor=none;align=right;verticalAlign=middle;whiteSpace=wrap;rounded=0;shadow=0;glass=1;dashed=1;dashPattern=1 1;labelBackgroundColor=#FFFF99;fontColor=#330000;" vertex="1" parent="1">
          <mxGeometry x="1010" y="710" width="200" height="20" as="geometry" />
        </mxCell>
        <mxCell id="SjNW3VqROAEUk7hYalKs-543" value="1.3.12.2.1107.5.8.21.192168561.30000020051015561311300000763" style="text;html=1;strokeColor=none;fillColor=none;align=right;verticalAlign=middle;whiteSpace=wrap;rounded=0;shadow=0;glass=1;dashed=1;dashPattern=1 1;labelBackgroundColor=#FFFF99;fontColor=#330000;" vertex="1" parent="1">
          <mxGeometry x="1010" y="750" width="200" height="20" as="geometry" />
        </mxCell>
        <mxCell id="SjNW3VqROAEUk7hYalKs-544" value="1.2.840.10008.5.1.4.1.1.7" style="text;html=1;strokeColor=none;fillColor=none;align=right;verticalAlign=middle;whiteSpace=wrap;rounded=0;shadow=0;glass=1;dashed=1;dashPattern=1 1;labelBackgroundColor=#FFFF99;fontColor=#330000;" vertex="1" parent="1">
          <mxGeometry x="1010" y="910" width="200" height="20" as="geometry" />
        </mxCell>
        <mxCell id="SjNW3VqROAEUk7hYalKs-545" value="1.3.12.2.1107.5.8.21.192168561.30000020051015561311300000995" style="text;html=1;strokeColor=none;fillColor=none;align=right;verticalAlign=middle;whiteSpace=wrap;rounded=0;shadow=0;glass=1;dashed=1;dashPattern=1 1;labelBackgroundColor=#FFFF99;fontColor=#330000;" vertex="1" parent="1">
          <mxGeometry x="1010" y="950" width="200" height="20" as="geometry" />
        </mxCell>
        <mxCell id="SjNW3VqROAEUk7hYalKs-546" value="1.2.840.10008.5.1.4.1.1.7" style="text;html=1;strokeColor=none;fillColor=none;align=right;verticalAlign=middle;whiteSpace=wrap;rounded=0;shadow=0;glass=1;dashed=1;dashPattern=1 1;labelBackgroundColor=#FFFF99;fontColor=#330000;" vertex="1" parent="1">
          <mxGeometry x="1010" y="1110" width="200" height="20" as="geometry" />
        </mxCell>
        <mxCell id="SjNW3VqROAEUk7hYalKs-547" value="1.3.12.2.1107.5.8.21.192168561.30000020051015561311300000857" style="text;html=1;strokeColor=none;fillColor=none;align=right;verticalAlign=middle;whiteSpace=wrap;rounded=0;shadow=0;glass=1;dashed=1;dashPattern=1 1;labelBackgroundColor=#FFFF99;fontColor=#330000;" vertex="1" parent="1">
          <mxGeometry x="1010" y="1150" width="200" height="20" as="geometry" />
        </mxCell>
        <mxCell id="SjNW3VqROAEUk7hYalKs-548" value="1.2.840.10008.5.1.4.1.1.7" style="text;html=1;strokeColor=none;fillColor=none;align=right;verticalAlign=middle;whiteSpace=wrap;rounded=0;shadow=0;glass=1;dashed=1;dashPattern=1 1;labelBackgroundColor=#FFFF99;fontColor=#330000;" vertex="1" parent="1">
          <mxGeometry x="1010" y="1310" width="200" height="20" as="geometry" />
        </mxCell>
        <mxCell id="SjNW3VqROAEUk7hYalKs-549" value="1.3.12.2.1107.5.8.21.192168561.30000020051015561311300000801" style="text;html=1;strokeColor=none;fillColor=none;align=right;verticalAlign=middle;whiteSpace=wrap;rounded=0;shadow=0;glass=1;dashed=1;dashPattern=1 1;labelBackgroundColor=#FFFF99;fontColor=#330000;" vertex="1" parent="1">
          <mxGeometry x="1010" y="1350" width="200" height="20" as="geometry" />
        </mxCell>
        <mxCell id="SjNW3VqROAEUk7hYalKs-550" value="1.2.840.10008.5.1.4.1.1.7" style="text;html=1;strokeColor=none;fillColor=none;align=right;verticalAlign=middle;whiteSpace=wrap;rounded=0;shadow=0;glass=1;dashed=1;dashPattern=1 1;labelBackgroundColor=#FFFF99;fontColor=#330000;" vertex="1" parent="1">
          <mxGeometry x="1010" y="1510" width="200" height="20" as="geometry" />
        </mxCell>
        <mxCell id="SjNW3VqROAEUk7hYalKs-551" value="1.3.12.2.1107.5.8.21.192168561.30000020051015561311300000931" style="text;html=1;strokeColor=none;fillColor=none;align=right;verticalAlign=middle;whiteSpace=wrap;rounded=0;shadow=0;glass=1;dashed=1;dashPattern=1 1;labelBackgroundColor=#FFFF99;fontColor=#330000;" vertex="1" parent="1">
          <mxGeometry x="1010" y="1550" width="200" height="20" as="geometry" />
        </mxCell>
        <mxCell id="SjNW3VqROAEUk7hYalKs-553" value="DCMR" style="text;html=1;strokeColor=none;fillColor=none;align=right;verticalAlign=middle;whiteSpace=wrap;rounded=0;shadow=0;glass=1;dashed=1;dashPattern=1 1;labelBackgroundColor=#FFFF99;fontColor=#330000;" vertex="1" parent="1">
          <mxGeometry x="1280" y="220" width="200" height="20" as="geometry" />
        </mxCell>
        <mxCell id="SjNW3VqROAEUk7hYalKs-554" value="1.2.840.10008.8.1.1" style="text;html=1;strokeColor=none;fillColor=none;align=right;verticalAlign=middle;whiteSpace=wrap;rounded=0;shadow=0;glass=1;dashed=1;dashPattern=1 1;labelBackgroundColor=#FFFF99;fontColor=#330000;" vertex="1" parent="1">
          <mxGeometry x="1280" y="260" width="200" height="20" as="geometry" />
        </mxCell>
        <mxCell id="SjNW3VqROAEUk7hYalKs-555" value="1500" style="text;html=1;strokeColor=none;fillColor=none;align=right;verticalAlign=middle;whiteSpace=wrap;rounded=0;shadow=0;glass=1;dashed=1;dashPattern=1 1;labelBackgroundColor=#FFFF99;fontColor=#330000;" vertex="1" parent="1">
          <mxGeometry x="1280" y="300" width="200" height="20" as="geometry" />
        </mxCell>
        <mxCell id="SjNW3VqROAEUk7hYalKs-556" value="CONTAINS" style="text;html=1;strokeColor=none;fillColor=none;align=right;verticalAlign=middle;whiteSpace=wrap;rounded=0;shadow=0;glass=1;dashed=1;dashPattern=1 1;labelBackgroundColor=#FFFF99;fontColor=#330000;" vertex="1" parent="1">
          <mxGeometry x="1540" y="230" width="200" height="20" as="geometry" />
        </mxCell>
        <mxCell id="SjNW3VqROAEUk7hYalKs-557" value="CONTAINER&amp;nbsp;" style="text;html=1;strokeColor=none;fillColor=none;align=right;verticalAlign=middle;whiteSpace=wrap;rounded=0;shadow=0;glass=1;dashed=1;dashPattern=1 1;labelBackgroundColor=#FFFF99;fontColor=#330000;" vertex="1" parent="1">
          <mxGeometry x="1540" y="270" width="200" height="20" as="geometry" />
        </mxCell>
        <mxCell id="SjNW3VqROAEUk7hYalKs-558" value="126010" style="text;html=1;strokeColor=none;fillColor=none;align=right;verticalAlign=middle;whiteSpace=wrap;rounded=0;shadow=0;glass=1;dashed=1;dashPattern=1 1;labelBackgroundColor=#FFFF99;fontColor=#330000;" vertex="1" parent="1">
          <mxGeometry x="1580" y="350" width="200" height="20" as="geometry" />
        </mxCell>
        <mxCell id="SjNW3VqROAEUk7hYalKs-559" value="DCM&amp;nbsp;" style="text;html=1;strokeColor=none;fillColor=none;align=right;verticalAlign=middle;whiteSpace=wrap;rounded=0;shadow=0;glass=1;dashed=1;dashPattern=1 1;labelBackgroundColor=#FFFF99;fontColor=#330000;" vertex="1" parent="1">
          <mxGeometry x="1580" y="390" width="200" height="20" as="geometry" />
        </mxCell>
        <mxCell id="SjNW3VqROAEUk7hYalKs-560" value="Imaging Measurements" style="text;html=1;strokeColor=none;fillColor=none;align=right;verticalAlign=middle;whiteSpace=wrap;rounded=0;shadow=0;glass=1;dashed=1;dashPattern=1 1;labelBackgroundColor=#FFFF99;fontColor=#330000;" vertex="1" parent="1">
          <mxGeometry x="1580" y="430" width="200" height="20" as="geometry" />
        </mxCell>
        <mxCell id="SjNW3VqROAEUk7hYalKs-561" value="SEPARATE" style="text;html=1;strokeColor=none;fillColor=none;align=right;verticalAlign=middle;whiteSpace=wrap;rounded=0;shadow=0;glass=1;dashed=1;dashPattern=1 1;labelBackgroundColor=#FFFF99;fontColor=#330000;" vertex="1" parent="1">
          <mxGeometry x="1540" y="470" width="200" height="20" as="geometry" />
        </mxCell>
        <mxCell id="SjNW3VqROAEUk7hYalKs-562" value="CONTAINS" style="text;html=1;strokeColor=none;fillColor=none;align=right;verticalAlign=middle;whiteSpace=wrap;rounded=0;shadow=0;glass=1;dashed=1;dashPattern=1 1;labelBackgroundColor=#FFFF99;fontColor=#330000;" vertex="1" parent="1">
          <mxGeometry x="1580" y="550" width="200" height="20" as="geometry" />
        </mxCell>
        <mxCell id="SjNW3VqROAEUk7hYalKs-563" value="CONTAINER&amp;nbsp;" style="text;html=1;strokeColor=none;fillColor=none;align=right;verticalAlign=middle;whiteSpace=wrap;rounded=0;shadow=0;glass=1;dashed=1;dashPattern=1 1;labelBackgroundColor=#FFFF99;fontColor=#330000;" vertex="1" parent="1">
          <mxGeometry x="1580" y="590" width="200" height="20" as="geometry" />
        </mxCell>
        <mxCell id="SjNW3VqROAEUk7hYalKs-564" value="125007" style="text;html=1;strokeColor=none;fillColor=none;align=right;verticalAlign=middle;whiteSpace=wrap;rounded=0;shadow=0;glass=1;dashed=1;dashPattern=1 1;labelBackgroundColor=#FFFF99;fontColor=#330000;" vertex="1" parent="1">
          <mxGeometry x="1620" y="670" width="200" height="20" as="geometry" />
        </mxCell>
        <mxCell id="SjNW3VqROAEUk7hYalKs-565" value="DCM&amp;nbsp;" style="text;html=1;strokeColor=none;fillColor=none;align=right;verticalAlign=middle;whiteSpace=wrap;rounded=0;shadow=0;glass=1;dashed=1;dashPattern=1 1;labelBackgroundColor=#FFFF99;fontColor=#330000;" vertex="1" parent="1">
          <mxGeometry x="1620" y="710" width="200" height="20" as="geometry" />
        </mxCell>
        <mxCell id="SjNW3VqROAEUk7hYalKs-566" value="Measurement Group&amp;nbsp;" style="text;html=1;strokeColor=none;fillColor=none;align=right;verticalAlign=middle;whiteSpace=wrap;rounded=0;shadow=0;glass=1;dashed=1;dashPattern=1 1;labelBackgroundColor=#FFFF99;fontColor=#330000;" vertex="1" parent="1">
          <mxGeometry x="1620" y="750" width="200" height="20" as="geometry" />
        </mxCell>
        <mxCell id="SjNW3VqROAEUk7hYalKs-567" value="SEPARATE" style="text;html=1;strokeColor=none;fillColor=none;align=right;verticalAlign=middle;whiteSpace=wrap;rounded=0;shadow=0;glass=1;dashed=1;dashPattern=1 1;labelBackgroundColor=#FFFF99;fontColor=#330000;" vertex="1" parent="1">
          <mxGeometry x="1580" y="790" width="200" height="20" as="geometry" />
        </mxCell>
        <mxCell id="SjNW3VqROAEUk7hYalKs-568" value="HAS OBS CONTEXT&amp;nbsp;" style="text;html=1;strokeColor=none;fillColor=none;align=right;verticalAlign=middle;whiteSpace=wrap;rounded=0;shadow=0;glass=1;dashed=1;dashPattern=1 1;labelBackgroundColor=#FFFF99;fontColor=#330000;" vertex="1" parent="1">
          <mxGeometry x="1630" y="880" width="200" height="20" as="geometry" />
        </mxCell>
        <mxCell id="SjNW3VqROAEUk7hYalKs-569" value="Tracking Identifier&amp;nbsp;" style="text;html=1;strokeColor=none;fillColor=none;align=right;verticalAlign=middle;whiteSpace=wrap;rounded=0;shadow=0;glass=1;dashed=1;dashPattern=1 1;labelBackgroundColor=#FFFF99;fontColor=#330000;" vertex="1" parent="1">
          <mxGeometry x="1670" y="1080" width="200" height="20" as="geometry" />
        </mxCell>
        <mxCell id="SjNW3VqROAEUk7hYalKs-570" value="DCM&amp;nbsp;" style="text;html=1;strokeColor=none;fillColor=none;align=right;verticalAlign=middle;whiteSpace=wrap;rounded=0;shadow=0;glass=1;dashed=1;dashPattern=1 1;labelBackgroundColor=#FFFF99;fontColor=#330000;" vertex="1" parent="1">
          <mxGeometry x="1670" y="1040" width="200" height="20" as="geometry" />
        </mxCell>
        <mxCell id="SjNW3VqROAEUk7hYalKs-571" value="112039" style="text;html=1;strokeColor=none;fillColor=none;align=right;verticalAlign=middle;whiteSpace=wrap;rounded=0;shadow=0;glass=1;dashed=1;dashPattern=1 1;labelBackgroundColor=#FFFF99;fontColor=#330000;" vertex="1" parent="1">
          <mxGeometry x="1670" y="1000" width="200" height="20" as="geometry" />
        </mxCell>
        <mxCell id="SjNW3VqROAEUk7hYalKs-572" value="TEXT" style="text;html=1;strokeColor=none;fillColor=none;align=right;verticalAlign=middle;whiteSpace=wrap;rounded=0;shadow=0;glass=1;dashed=1;dashPattern=1 1;labelBackgroundColor=#FFFF99;fontColor=#330000;" vertex="1" parent="1">
          <mxGeometry x="1630" y="920" width="200" height="20" as="geometry" />
        </mxCell>
        <mxCell id="SjNW3VqROAEUk7hYalKs-573" value="L1" style="text;html=1;strokeColor=none;fillColor=none;align=right;verticalAlign=middle;whiteSpace=wrap;rounded=0;shadow=0;glass=1;dashed=1;dashPattern=1 1;labelBackgroundColor=#FFFF99;fontColor=#330000;" vertex="1" parent="1">
          <mxGeometry x="1630" y="1120" width="200" height="20" as="geometry" />
        </mxCell>
        <mxCell id="SjNW3VqROAEUk7hYalKs-574" value="HAS OBS CONTEXT&amp;nbsp;" style="text;html=1;strokeColor=none;fillColor=none;align=right;verticalAlign=middle;whiteSpace=wrap;rounded=0;shadow=0;glass=1;dashed=1;dashPattern=1 1;labelBackgroundColor=#FFFF99;fontColor=#330000;" vertex="1" parent="1">
          <mxGeometry x="1630" y="1200" width="200" height="20" as="geometry" />
        </mxCell>
        <mxCell id="SjNW3VqROAEUk7hYalKs-575" value="UIDREF" style="text;html=1;strokeColor=none;fillColor=none;align=right;verticalAlign=middle;whiteSpace=wrap;rounded=0;shadow=0;glass=1;dashed=1;dashPattern=1 1;labelBackgroundColor=#FFFF99;fontColor=#330000;" vertex="1" parent="1">
          <mxGeometry x="1630" y="1240" width="200" height="20" as="geometry" />
        </mxCell>
        <mxCell id="SjNW3VqROAEUk7hYalKs-576" value="112040" style="text;html=1;strokeColor=none;fillColor=none;align=right;verticalAlign=middle;whiteSpace=wrap;rounded=0;shadow=0;glass=1;dashed=1;dashPattern=1 1;labelBackgroundColor=#FFFF99;fontColor=#330000;" vertex="1" parent="1">
          <mxGeometry x="1670" y="1320" width="200" height="20" as="geometry" />
        </mxCell>
        <mxCell id="SjNW3VqROAEUk7hYalKs-577" value="DCM&amp;nbsp;" style="text;html=1;strokeColor=none;fillColor=none;align=right;verticalAlign=middle;whiteSpace=wrap;rounded=0;shadow=0;glass=1;dashed=1;dashPattern=1 1;labelBackgroundColor=#FFFF99;fontColor=#330000;" vertex="1" parent="1">
          <mxGeometry x="1670" y="1360" width="200" height="20" as="geometry" />
        </mxCell>
        <mxCell id="SjNW3VqROAEUk7hYalKs-578" value="Tracking Unique Identifier" style="text;html=1;strokeColor=none;fillColor=none;align=right;verticalAlign=middle;whiteSpace=wrap;rounded=0;shadow=0;glass=1;dashed=1;dashPattern=1 1;labelBackgroundColor=#FFFF99;fontColor=#330000;" vertex="1" parent="1">
          <mxGeometry x="1670" y="1400" width="200" height="20" as="geometry" />
        </mxCell>
        <mxCell id="SjNW3VqROAEUk7hYalKs-579" value="1.3.12.2.1107.5.8.21.192168561.30000020051015561311300001158" style="text;html=1;strokeColor=none;fillColor=none;align=right;verticalAlign=middle;whiteSpace=wrap;rounded=0;shadow=0;glass=1;dashed=1;dashPattern=1 1;labelBackgroundColor=#FFFF99;fontColor=#330000;" vertex="1" parent="1">
          <mxGeometry x="1630" y="1440" width="200" height="20" as="geometry" />
        </mxCell>
        <mxCell id="SjNW3VqROAEUk7hYalKs-580" value="CONTAINS" style="text;html=1;strokeColor=none;fillColor=none;align=right;verticalAlign=middle;whiteSpace=wrap;rounded=0;shadow=0;glass=1;dashed=1;dashPattern=1 1;labelBackgroundColor=#FFFF99;fontColor=#330000;" vertex="1" parent="1">
          <mxGeometry x="1630" y="1520" width="200" height="20" as="geometry" />
        </mxCell>
        <mxCell id="SjNW3VqROAEUk7hYalKs-581" value="CODE" style="text;html=1;strokeColor=none;fillColor=none;align=right;verticalAlign=middle;whiteSpace=wrap;rounded=0;shadow=0;glass=1;dashed=1;dashPattern=1 1;labelBackgroundColor=#FFFF99;fontColor=#330000;" vertex="1" parent="1">
          <mxGeometry x="1630" y="1560" width="200" height="20" as="geometry" />
        </mxCell>
        <mxCell id="SjNW3VqROAEUk7hYalKs-582" value="121071" style="text;html=1;strokeColor=none;fillColor=none;align=right;verticalAlign=middle;whiteSpace=wrap;rounded=0;shadow=0;glass=1;dashed=1;dashPattern=1 1;labelBackgroundColor=#FFFF99;fontColor=#330000;" vertex="1" parent="1">
          <mxGeometry x="1670" y="1640" width="200" height="20" as="geometry" />
        </mxCell>
        <mxCell id="SjNW3VqROAEUk7hYalKs-583" value="DCM&amp;nbsp;" style="text;html=1;strokeColor=none;fillColor=none;align=right;verticalAlign=middle;whiteSpace=wrap;rounded=0;shadow=0;glass=1;dashed=1;dashPattern=1 1;labelBackgroundColor=#FFFF99;fontColor=#330000;" vertex="1" parent="1">
          <mxGeometry x="1670" y="1680" width="200" height="20" as="geometry" />
        </mxCell>
        <mxCell id="SjNW3VqROAEUk7hYalKs-584" value="Finding&amp;nbsp;" style="text;html=1;strokeColor=none;fillColor=none;align=right;verticalAlign=middle;whiteSpace=wrap;rounded=0;shadow=0;glass=1;dashed=1;dashPattern=1 1;labelBackgroundColor=#FFFF99;fontColor=#330000;" vertex="1" parent="1">
          <mxGeometry x="1670" y="1720" width="200" height="20" as="geometry" />
        </mxCell>
        <mxCell id="SjNW3VqROAEUk7hYalKs-585" value="301232003&amp;nbsp;" style="text;html=1;strokeColor=none;fillColor=none;align=right;verticalAlign=middle;whiteSpace=wrap;rounded=0;shadow=0;glass=1;dashed=1;dashPattern=1 1;labelBackgroundColor=#FFFF99;fontColor=#330000;" vertex="1" parent="1">
          <mxGeometry x="1670" y="1800" width="200" height="20" as="geometry" />
        </mxCell>
        <mxCell id="SjNW3VqROAEUk7hYalKs-586" value="SCT&amp;nbsp;" style="text;html=1;strokeColor=none;fillColor=none;align=right;verticalAlign=middle;whiteSpace=wrap;rounded=0;shadow=0;glass=1;dashed=1;dashPattern=1 1;labelBackgroundColor=#FFFF99;fontColor=#330000;" vertex="1" parent="1">
          <mxGeometry x="1670" y="1840" width="200" height="20" as="geometry" />
        </mxCell>
        <mxCell id="SjNW3VqROAEUk7hYalKs-587" value="Lesion of lung" style="text;html=1;strokeColor=none;fillColor=none;align=right;verticalAlign=middle;whiteSpace=wrap;rounded=0;shadow=0;glass=1;dashed=1;dashPattern=1 1;labelBackgroundColor=#FFFF99;fontColor=#330000;" vertex="1" parent="1">
          <mxGeometry x="1670" y="1880" width="200" height="20" as="geometry" />
        </mxCell>
        <mxCell id="SjNW3VqROAEUk7hYalKs-588" value="HAS CONCEPT MOD&amp;nbsp;" style="text;html=1;strokeColor=none;fillColor=none;align=right;verticalAlign=middle;whiteSpace=wrap;rounded=0;shadow=0;glass=1;dashed=1;dashPattern=1 1;labelBackgroundColor=#FFFF99;fontColor=#330000;" vertex="1" parent="1">
          <mxGeometry x="1630" y="1970" width="200" height="20" as="geometry" />
        </mxCell>
        <mxCell id="SjNW3VqROAEUk7hYalKs-589" value="CODE" style="text;html=1;strokeColor=none;fillColor=none;align=right;verticalAlign=middle;whiteSpace=wrap;rounded=0;shadow=0;glass=1;dashed=1;dashPattern=1 1;labelBackgroundColor=#FFFF99;fontColor=#330000;" vertex="1" parent="1">
          <mxGeometry x="1630" y="2010" width="200" height="20" as="geometry" />
        </mxCell>
        <mxCell id="SjNW3VqROAEUk7hYalKs-590" value="363698007&amp;nbsp;" style="text;html=1;strokeColor=none;fillColor=none;align=right;verticalAlign=middle;whiteSpace=wrap;rounded=0;shadow=0;glass=1;dashed=1;dashPattern=1 1;labelBackgroundColor=#FFFF99;fontColor=#330000;" vertex="1" parent="1">
          <mxGeometry x="1670" y="2090" width="200" height="20" as="geometry" />
        </mxCell>
        <mxCell id="SjNW3VqROAEUk7hYalKs-591" value="SCT&amp;nbsp;" style="text;html=1;strokeColor=none;fillColor=none;align=right;verticalAlign=middle;whiteSpace=wrap;rounded=0;shadow=0;glass=1;dashed=1;dashPattern=1 1;labelBackgroundColor=#FFFF99;fontColor=#330000;" vertex="1" parent="1">
          <mxGeometry x="1670" y="2130" width="200" height="20" as="geometry" />
        </mxCell>
        <mxCell id="SjNW3VqROAEUk7hYalKs-592" value="Finding Site" style="text;html=1;strokeColor=none;fillColor=none;align=right;verticalAlign=middle;whiteSpace=wrap;rounded=0;shadow=0;glass=1;dashed=1;dashPattern=1 1;labelBackgroundColor=#FFFF99;fontColor=#330000;" vertex="1" parent="1">
          <mxGeometry x="1670" y="2170" width="200" height="20" as="geometry" />
        </mxCell>
        <mxCell id="SjNW3VqROAEUk7hYalKs-593" value="39607008" style="text;html=1;strokeColor=none;fillColor=none;align=right;verticalAlign=middle;whiteSpace=wrap;rounded=0;shadow=0;glass=1;dashed=1;dashPattern=1 1;labelBackgroundColor=#FFFF99;fontColor=#330000;" vertex="1" parent="1">
          <mxGeometry x="1670" y="2250" width="200" height="20" as="geometry" />
        </mxCell>
        <mxCell id="SjNW3VqROAEUk7hYalKs-594" value="SCT&amp;nbsp;" style="text;html=1;strokeColor=none;fillColor=none;align=right;verticalAlign=middle;whiteSpace=wrap;rounded=0;shadow=0;glass=1;dashed=1;dashPattern=1 1;labelBackgroundColor=#FFFF99;fontColor=#330000;" vertex="1" parent="1">
          <mxGeometry x="1670" y="2290" width="200" height="20" as="geometry" />
        </mxCell>
        <mxCell id="SjNW3VqROAEUk7hYalKs-595" value="Lung" style="text;html=1;strokeColor=none;fillColor=none;align=right;verticalAlign=middle;whiteSpace=wrap;rounded=0;shadow=0;glass=1;dashed=1;dashPattern=1 1;labelBackgroundColor=#FFFF99;fontColor=#330000;" vertex="1" parent="1">
          <mxGeometry x="1670" y="2330" width="200" height="20" as="geometry" />
        </mxCell>
        <mxCell id="SjNW3VqROAEUk7hYalKs-596" value="HAS CONCEPT MOD&amp;nbsp;" style="text;html=1;strokeColor=none;fillColor=none;align=right;verticalAlign=middle;whiteSpace=wrap;rounded=0;shadow=0;glass=1;dashed=1;dashPattern=1 1;labelBackgroundColor=#FFFF99;fontColor=#330000;" vertex="1" parent="1">
          <mxGeometry x="1630" y="2420" width="200" height="20" as="geometry" />
        </mxCell>
        <mxCell id="SjNW3VqROAEUk7hYalKs-597" value="CODE" style="text;html=1;strokeColor=none;fillColor=none;align=right;verticalAlign=middle;whiteSpace=wrap;rounded=0;shadow=0;glass=1;dashed=1;dashPattern=1 1;labelBackgroundColor=#FFFF99;fontColor=#330000;" vertex="1" parent="1">
          <mxGeometry x="1630" y="2460" width="200" height="20" as="geometry" />
        </mxCell>
        <mxCell id="SjNW3VqROAEUk7hYalKs-598" value="31094006" style="text;html=1;strokeColor=none;fillColor=none;align=right;verticalAlign=middle;whiteSpace=wrap;rounded=0;shadow=0;glass=1;dashed=1;dashPattern=1 1;labelBackgroundColor=#FFFF99;fontColor=#330000;" vertex="1" parent="1">
          <mxGeometry x="1670" y="2540" width="200" height="20" as="geometry" />
        </mxCell>
        <mxCell id="SjNW3VqROAEUk7hYalKs-599" value="SCT&amp;nbsp;" style="text;html=1;strokeColor=none;fillColor=none;align=right;verticalAlign=middle;whiteSpace=wrap;rounded=0;shadow=0;glass=1;dashed=1;dashPattern=1 1;labelBackgroundColor=#FFFF99;fontColor=#330000;" vertex="1" parent="1">
          <mxGeometry x="1670" y="2580" width="200" height="20" as="geometry" />
        </mxCell>
        <mxCell id="SjNW3VqROAEUk7hYalKs-600" value="Lobe of lung" style="text;html=1;strokeColor=none;fillColor=none;align=right;verticalAlign=middle;whiteSpace=wrap;rounded=0;shadow=0;glass=1;dashed=1;dashPattern=1 1;labelBackgroundColor=#FFFF99;fontColor=#330000;" vertex="1" parent="1">
          <mxGeometry x="1670" y="2620" width="200" height="20" as="geometry" />
        </mxCell>
        <mxCell id="SjNW3VqROAEUk7hYalKs-601" value="000801" style="text;html=1;strokeColor=none;fillColor=none;align=right;verticalAlign=middle;whiteSpace=wrap;rounded=0;shadow=0;glass=1;dashed=1;dashPattern=1 1;labelBackgroundColor=#FFFF99;fontColor=#330000;" vertex="1" parent="1">
          <mxGeometry x="1670" y="2700" width="200" height="20" as="geometry" />
        </mxCell>
        <mxCell id="SjNW3VqROAEUk7hYalKs-602" value="SCT&amp;nbsp;" style="text;html=1;strokeColor=none;fillColor=none;align=right;verticalAlign=middle;whiteSpace=wrap;rounded=0;shadow=0;glass=1;dashed=1;dashPattern=1 1;labelBackgroundColor=#FFFF99;fontColor=#330000;" vertex="1" parent="1">
          <mxGeometry x="1670" y="2740" width="200" height="20" as="geometry" />
        </mxCell>
        <mxCell id="SjNW3VqROAEUk7hYalKs-603" value="Middle lobe of right lung&amp;nbsp;" style="text;html=1;strokeColor=none;fillColor=none;align=right;verticalAlign=middle;whiteSpace=wrap;rounded=0;shadow=0;glass=1;dashed=1;dashPattern=1 1;labelBackgroundColor=#FFFF99;fontColor=#330000;" vertex="1" parent="1">
          <mxGeometry x="1670" y="2780" width="200" height="20" as="geometry" />
        </mxCell>
        <mxCell id="SjNW3VqROAEUk7hYalKs-604" value="1.3.12.2.1107.5.8.21.192168561.30000020051015561311300000905" style="text;html=1;strokeColor=none;fillColor=none;align=right;verticalAlign=middle;whiteSpace=wrap;rounded=0;shadow=0;glass=1;dashed=1;dashPattern=1 1;labelBackgroundColor=#FFFF99;fontColor=#330000;" vertex="1" parent="1">
          <mxGeometry x="1675" y="2950" width="200" height="20" as="geometry" />
        </mxCell>
        <mxCell id="SjNW3VqROAEUk7hYalKs-605" value="1.2.840.10008.5.1.4.1.1.7" style="text;html=1;strokeColor=none;fillColor=none;align=right;verticalAlign=middle;whiteSpace=wrap;rounded=0;shadow=0;glass=1;dashed=1;dashPattern=1 1;labelBackgroundColor=#FFFF99;fontColor=#330000;" vertex="1" parent="1">
          <mxGeometry x="1675" y="2910" width="200" height="20" as="geometry" />
        </mxCell>
        <mxCell id="SjNW3VqROAEUk7hYalKs-607" value="CONTAINS" style="text;html=1;strokeColor=none;fillColor=none;align=right;verticalAlign=middle;whiteSpace=wrap;rounded=0;shadow=0;glass=1;dashed=1;dashPattern=1 1;labelBackgroundColor=#FFFF99;fontColor=#330000;" vertex="1" parent="1">
          <mxGeometry x="1635" y="2990" width="200" height="20" as="geometry" />
        </mxCell>
        <mxCell id="SjNW3VqROAEUk7hYalKs-608" value="IMAGE&amp;nbsp;" style="text;html=1;strokeColor=none;fillColor=none;align=right;verticalAlign=middle;whiteSpace=wrap;rounded=0;shadow=0;glass=1;dashed=1;dashPattern=1 1;labelBackgroundColor=#FFFF99;fontColor=#330000;" vertex="1" parent="1">
          <mxGeometry x="1635" y="3030" width="200" height="20" as="geometry" />
        </mxCell>
        <mxCell id="SjNW3VqROAEUk7hYalKs-609" value="130401" style="text;html=1;strokeColor=none;fillColor=none;align=right;verticalAlign=middle;whiteSpace=wrap;rounded=0;shadow=0;glass=1;dashed=1;dashPattern=1 1;labelBackgroundColor=#FFFF99;fontColor=#330000;" vertex="1" parent="1">
          <mxGeometry x="1675" y="3110" width="200" height="20" as="geometry" />
        </mxCell>
        <mxCell id="SjNW3VqROAEUk7hYalKs-610" value="DCM&amp;nbsp;" style="text;html=1;strokeColor=none;fillColor=none;align=right;verticalAlign=middle;whiteSpace=wrap;rounded=0;shadow=0;glass=1;dashed=1;dashPattern=1 1;labelBackgroundColor=#FFFF99;fontColor=#330000;" vertex="1" parent="1">
          <mxGeometry x="1675" y="3150" width="200" height="20" as="geometry" />
        </mxCell>
        <mxCell id="SjNW3VqROAEUk7hYalKs-611" value="Visual explanation" style="text;html=1;strokeColor=none;fillColor=none;align=right;verticalAlign=middle;whiteSpace=wrap;rounded=0;shadow=0;glass=1;dashed=1;dashPattern=1 1;labelBackgroundColor=#FFFF99;fontColor=#330000;" vertex="1" parent="1">
          <mxGeometry x="1675" y="3190" width="200" height="20" as="geometry" />
        </mxCell>
        <mxCell id="SjNW3VqROAEUk7hYalKs-612" value="CONTAINS" style="text;html=1;strokeColor=none;fillColor=none;align=right;verticalAlign=middle;whiteSpace=wrap;rounded=0;shadow=0;glass=1;dashed=1;dashPattern=1 1;labelBackgroundColor=#FFFF99;fontColor=#330000;" vertex="1" parent="1">
          <mxGeometry x="1640" y="3280" width="200" height="20" as="geometry" />
        </mxCell>
        <mxCell id="SjNW3VqROAEUk7hYalKs-613" value="NUM&amp;nbsp;" style="text;html=1;strokeColor=none;fillColor=none;align=right;verticalAlign=middle;whiteSpace=wrap;rounded=0;shadow=0;glass=1;dashed=1;dashPattern=1 1;labelBackgroundColor=#FFFF99;fontColor=#330000;" vertex="1" parent="1">
          <mxGeometry x="1640" y="3320" width="200" height="20" as="geometry" />
        </mxCell>
        <mxCell id="SjNW3VqROAEUk7hYalKs-614" value="103339001&amp;nbsp;" style="text;html=1;strokeColor=none;fillColor=none;align=right;verticalAlign=middle;whiteSpace=wrap;rounded=0;shadow=0;glass=1;dashed=1;dashPattern=1 1;labelBackgroundColor=#FFFF99;fontColor=#330000;" vertex="1" parent="1">
          <mxGeometry x="1680" y="3400" width="200" height="20" as="geometry" />
        </mxCell>
        <mxCell id="SjNW3VqROAEUk7hYalKs-615" value="SCT&amp;nbsp;" style="text;html=1;strokeColor=none;fillColor=none;align=right;verticalAlign=middle;whiteSpace=wrap;rounded=0;shadow=0;glass=1;dashed=1;dashPattern=1 1;labelBackgroundColor=#FFFF99;fontColor=#330000;" vertex="1" parent="1">
          <mxGeometry x="1680" y="3440" width="200" height="20" as="geometry" />
        </mxCell>
        <mxCell id="SjNW3VqROAEUk7hYalKs-616" value="mm" style="text;html=1;strokeColor=none;fillColor=none;align=right;verticalAlign=middle;whiteSpace=wrap;rounded=0;shadow=0;glass=1;dashed=1;dashPattern=1 1;labelBackgroundColor=#FFFF99;fontColor=#330000;" vertex="1" parent="1">
          <mxGeometry x="1720" y="3600" width="200" height="20" as="geometry" />
        </mxCell>
        <mxCell id="SjNW3VqROAEUk7hYalKs-617" value="Long axis&amp;nbsp;" style="text;html=1;strokeColor=none;fillColor=none;align=right;verticalAlign=middle;whiteSpace=wrap;rounded=0;shadow=0;glass=1;dashed=1;dashPattern=1 1;labelBackgroundColor=#FFFF99;fontColor=#330000;" vertex="1" parent="1">
          <mxGeometry x="1680" y="3480" width="200" height="20" as="geometry" />
        </mxCell>
        <mxCell id="SjNW3VqROAEUk7hYalKs-618" value="UCUM" style="text;html=1;strokeColor=none;fillColor=none;align=right;verticalAlign=middle;whiteSpace=wrap;rounded=0;shadow=0;glass=1;dashed=1;dashPattern=1 1;labelBackgroundColor=#FFFF99;fontColor=#330000;" vertex="1" parent="1">
          <mxGeometry x="1720" y="3640" width="200" height="20" as="geometry" />
        </mxCell>
        <mxCell id="SjNW3VqROAEUk7hYalKs-619" value="millimeter" style="text;html=1;strokeColor=none;fillColor=none;align=right;verticalAlign=middle;whiteSpace=wrap;rounded=0;shadow=0;glass=1;dashed=1;dashPattern=1 1;labelBackgroundColor=#FFFF99;fontColor=#330000;" vertex="1" parent="1">
          <mxGeometry x="1720" y="3680" width="200" height="20" as="geometry" />
        </mxCell>
        <mxCell id="SjNW3VqROAEUk7hYalKs-620" value="10.75&amp;nbsp;" style="text;html=1;strokeColor=none;fillColor=none;align=right;verticalAlign=middle;whiteSpace=wrap;rounded=0;shadow=0;glass=1;dashed=1;dashPattern=1 1;labelBackgroundColor=#FFFF99;fontColor=#330000;" vertex="1" parent="1">
          <mxGeometry x="1680" y="3720" width="200" height="20" as="geometry" />
        </mxCell>
        <mxCell id="SjNW3VqROAEUk7hYalKs-621" value="CONTAINS" style="text;html=1;strokeColor=none;fillColor=none;align=right;verticalAlign=middle;whiteSpace=wrap;rounded=0;shadow=0;glass=1;dashed=1;dashPattern=1 1;labelBackgroundColor=#FFFF99;fontColor=#330000;" vertex="1" parent="1">
          <mxGeometry x="1635" y="3800" width="200" height="20" as="geometry" />
        </mxCell>
        <mxCell id="SjNW3VqROAEUk7hYalKs-622" value="NUM&amp;nbsp;" style="text;html=1;strokeColor=none;fillColor=none;align=right;verticalAlign=middle;whiteSpace=wrap;rounded=0;shadow=0;glass=1;dashed=1;dashPattern=1 1;labelBackgroundColor=#FFFF99;fontColor=#330000;" vertex="1" parent="1">
          <mxGeometry x="1635" y="3840" width="200" height="20" as="geometry" />
        </mxCell>
        <mxCell id="SjNW3VqROAEUk7hYalKs-623" value="TDIC" style="text;html=1;strokeColor=none;fillColor=none;align=right;verticalAlign=middle;whiteSpace=wrap;rounded=0;shadow=0;glass=1;dashed=1;dashPattern=1 1;labelBackgroundColor=#FFFF99;fontColor=#330000;" vertex="1" parent="1">
          <mxGeometry x="1675" y="3920" width="200" height="20" as="geometry" />
        </mxCell>
        <mxCell id="SjNW3VqROAEUk7hYalKs-624" value="IBSI" style="text;html=1;strokeColor=none;fillColor=none;align=right;verticalAlign=middle;whiteSpace=wrap;rounded=0;shadow=0;glass=1;dashed=1;dashPattern=1 1;labelBackgroundColor=#FFFF99;fontColor=#330000;" vertex="1" parent="1">
          <mxGeometry x="1675" y="3960" width="200" height="20" as="geometry" />
        </mxCell>
        <mxCell id="SjNW3VqROAEUk7hYalKs-625" value="Major Axis in 3D Length&amp;nbsp;" style="text;html=1;strokeColor=none;fillColor=none;align=right;verticalAlign=middle;whiteSpace=wrap;rounded=0;shadow=0;glass=1;dashed=1;dashPattern=1 1;labelBackgroundColor=#FFFF99;fontColor=#330000;" vertex="1" parent="1">
          <mxGeometry x="1675" y="4000" width="200" height="20" as="geometry" />
        </mxCell>
        <mxCell id="SjNW3VqROAEUk7hYalKs-626" value="mm" style="text;html=1;strokeColor=none;fillColor=none;align=right;verticalAlign=middle;whiteSpace=wrap;rounded=0;shadow=0;glass=1;dashed=1;dashPattern=1 1;labelBackgroundColor=#FFFF99;fontColor=#330000;" vertex="1" parent="1">
          <mxGeometry x="1715" y="4120" width="200" height="20" as="geometry" />
        </mxCell>
        <mxCell id="SjNW3VqROAEUk7hYalKs-627" value="UCUM" style="text;html=1;strokeColor=none;fillColor=none;align=right;verticalAlign=middle;whiteSpace=wrap;rounded=0;shadow=0;glass=1;dashed=1;dashPattern=1 1;labelBackgroundColor=#FFFF99;fontColor=#330000;" vertex="1" parent="1">
          <mxGeometry x="1715" y="4160" width="200" height="20" as="geometry" />
        </mxCell>
        <mxCell id="SjNW3VqROAEUk7hYalKs-628" value="millimeter" style="text;html=1;strokeColor=none;fillColor=none;align=right;verticalAlign=middle;whiteSpace=wrap;rounded=0;shadow=0;glass=1;dashed=1;dashPattern=1 1;labelBackgroundColor=#FFFF99;fontColor=#330000;" vertex="1" parent="1">
          <mxGeometry x="1715" y="4200" width="200" height="20" as="geometry" />
        </mxCell>
        <mxCell id="SjNW3VqROAEUk7hYalKs-629" value="13.1" style="text;html=1;strokeColor=none;fillColor=none;align=right;verticalAlign=middle;whiteSpace=wrap;rounded=0;shadow=0;glass=1;dashed=1;dashPattern=1 1;labelBackgroundColor=#FFFF99;fontColor=#330000;" vertex="1" parent="1">
          <mxGeometry x="1675" y="4240" width="200" height="20" as="geometry" />
        </mxCell>
        <mxCell id="SjNW3VqROAEUk7hYalKs-630" value="CONTAINS" style="text;html=1;strokeColor=none;fillColor=none;align=right;verticalAlign=middle;whiteSpace=wrap;rounded=0;shadow=0;glass=1;dashed=1;dashPattern=1 1;labelBackgroundColor=#FFFF99;fontColor=#330000;" vertex="1" parent="1">
          <mxGeometry x="1635" y="4320" width="200" height="20" as="geometry" />
        </mxCell>
        <mxCell id="SjNW3VqROAEUk7hYalKs-631" value="NUM&amp;nbsp;" style="text;html=1;strokeColor=none;fillColor=none;align=right;verticalAlign=middle;whiteSpace=wrap;rounded=0;shadow=0;glass=1;dashed=1;dashPattern=1 1;labelBackgroundColor=#FFFF99;fontColor=#330000;" vertex="1" parent="1">
          <mxGeometry x="1635" y="4360" width="200" height="20" as="geometry" />
        </mxCell>
        <mxCell id="SjNW3VqROAEUk7hYalKs-632" value="118565006&amp;nbsp;" style="text;html=1;strokeColor=none;fillColor=none;align=right;verticalAlign=middle;whiteSpace=wrap;rounded=0;shadow=0;glass=1;dashed=1;dashPattern=1 1;labelBackgroundColor=#FFFF99;fontColor=#330000;" vertex="1" parent="1">
          <mxGeometry x="1675" y="4440" width="200" height="20" as="geometry" />
        </mxCell>
        <mxCell id="SjNW3VqROAEUk7hYalKs-633" value="SCT&amp;nbsp;" style="text;html=1;strokeColor=none;fillColor=none;align=right;verticalAlign=middle;whiteSpace=wrap;rounded=0;shadow=0;glass=1;dashed=1;dashPattern=1 1;labelBackgroundColor=#FFFF99;fontColor=#330000;" vertex="1" parent="1">
          <mxGeometry x="1675" y="4480" width="200" height="20" as="geometry" />
        </mxCell>
        <mxCell id="SjNW3VqROAEUk7hYalKs-634" value="Volume" style="text;html=1;strokeColor=none;fillColor=none;align=right;verticalAlign=middle;whiteSpace=wrap;rounded=0;shadow=0;glass=1;dashed=1;dashPattern=1 1;labelBackgroundColor=#FFFF99;fontColor=#330000;" vertex="1" parent="1">
          <mxGeometry x="1675" y="4520" width="200" height="20" as="geometry" />
        </mxCell>
        <mxCell id="SjNW3VqROAEUk7hYalKs-635" value="mm3&amp;nbsp;" style="text;html=1;strokeColor=none;fillColor=none;align=right;verticalAlign=middle;whiteSpace=wrap;rounded=0;shadow=0;glass=1;dashed=1;dashPattern=1 1;labelBackgroundColor=#FFFF99;fontColor=#330000;" vertex="1" parent="1">
          <mxGeometry x="1715" y="4640" width="200" height="20" as="geometry" />
        </mxCell>
        <mxCell id="SjNW3VqROAEUk7hYalKs-636" value="UCUM" style="text;html=1;strokeColor=none;fillColor=none;align=right;verticalAlign=middle;whiteSpace=wrap;rounded=0;shadow=0;glass=1;dashed=1;dashPattern=1 1;labelBackgroundColor=#FFFF99;fontColor=#330000;" vertex="1" parent="1">
          <mxGeometry x="1715" y="4680" width="200" height="20" as="geometry" />
        </mxCell>
        <mxCell id="SjNW3VqROAEUk7hYalKs-637" value="cubic millimeter" style="text;html=1;strokeColor=none;fillColor=none;align=right;verticalAlign=middle;whiteSpace=wrap;rounded=0;shadow=0;glass=1;dashed=1;dashPattern=1 1;labelBackgroundColor=#FFFF99;fontColor=#330000;" vertex="1" parent="1">
          <mxGeometry x="1715" y="4720" width="200" height="20" as="geometry" />
        </mxCell>
        <mxCell id="SjNW3VqROAEUk7hYalKs-638" value="375.1&amp;nbsp;" style="text;html=1;strokeColor=none;fillColor=none;align=right;verticalAlign=middle;whiteSpace=wrap;rounded=0;shadow=0;glass=1;dashed=1;dashPattern=1 1;labelBackgroundColor=#FFFF99;fontColor=#330000;" vertex="1" parent="1">
          <mxGeometry x="1675" y="4760" width="200" height="20" as="geometry" />
        </mxCell>
      </root>
    </mxGraphModel>
  </diagram>
</mxfile>
